<?xml version="1.0" encoding="UTF-8"?>
<svg xmlns="http://www.w3.org/2000/svg" width="3840" height="3840" viewBox="0 0 3840 3840">
  <g id="layer-white">
  <path fill="#ffffff" stroke="none" d="M1165.5 1.0 c1.7 0.4 342.5 0.8 757.5 0.8 415.0 -0.0 755.9 -0.4 757.5 -0.8 1.7 -0.4 -339.2 -0.8 -757.5 -0.8 -418.3 -0.0 -759.1 0.4 -757.5 0.8 Z M3838.6 91.7 c-0.9 5.5 -0.5 2269.2 0.4 2272.8 0.4 1.6 0.8 -509.9 0.9 -1136.8 0.0 -626.8 -0.1 -1139.7 -0.3 -1139.7 -0.2 -0.0 -0.6 1.7 -1.0 3.7 Z M0.2 1241.5 c0.0 626.4 0.4 1137.6 0.8 1136.0 1.0 -3.9 1.0 -2268.1 0.0 -2272.0 -0.4 -1.7 -0.8 509.5 -0.8 1136.0 Z M2961.2 299.0 c-1.8 1.1 -9.5 6.9 -17.0 12.8 -7.5 5.9 -17.7 13.6 -22.7 17.2 -4.9 3.5 -12.6 9.2 -17.0 12.6 -8.7 6.7 -54.6 37.1 -69.0 45.6 -18.0 10.7 -48.7 28.0 -60.5 34.1 -7.4 3.8 -16.4 8.7 -20.0 10.7 -12.0 7.0 -45.3 23.1 -68.0 33.0 -12.4 5.4 -31.3 13.7 -42.0 18.5 -21.6 9.6 -35.8 15.4 -62.0 25.1 -9.6 3.5 -24.0 8.9 -32.0 11.8 -16.7 6.2 -42.2 15.0 -49.5 17.0 -2.7 0.8 -12.9 4.0 -22.5 7.1 -32.4 10.6 -48.3 14.8 -52.2 14.0 -1.6 -0.4 -8.9 -2.9 -16.1 -5.7 -7.3 -2.7 -18.4 -6.7 -24.7 -8.8 -6.3 -2.2 -15.4 -5.3 -20.2 -7.0 -7.6 -2.7 -56.2 -17.7 -62.8 -19.4 -1.4 -0.3 -6.8 -1.8 -12.0 -3.2 -5.2 -1.5 -12.0 -3.2 -15.0 -3.9 -3.0 -0.7 -10.9 -2.7 -17.5 -4.4 -6.6 -1.7 -12.9 -3.1 -14.1 -3.1 -1.1 -0.0 -4.0 -0.6 -6.5 -1.4 -11.0 -3.4 -25.2 -6.6 -52.4 -11.6 -6.0 -1.2 -12.8 -2.5 -15.0 -3.1 -2.2 -0.5 -8.5 -1.6 -13.9 -2.5 -5.5 -0.8 -10.3 -1.7 -10.6 -1.9 -0.4 -0.2 -6.4 -1.1 -13.5 -2.0 -7.0 -0.8 -13.1 -1.8 -13.5 -2.0 -0.4 -0.3 -6.3 -1.0 -13.1 -1.5 -6.8 -0.6 -14.4 -1.6 -16.9 -2.1 -2.5 -0.6 -10.8 -1.4 -18.5 -2.0 -7.7 -0.5 -16.5 -1.3 -19.5 -1.9 -5.6 -1.0 -19.7 -1.7 -88.0 -4.6 -38.2 -1.5 -80.1 -1.3 -111.1 0.6 -8.1 0.5 -22.9 1.4 -33.0 2.0 -10.1 0.6 -21.8 1.5 -25.9 2.0 -4.1 0.5 -13.4 1.4 -20.7 2.0 -7.3 0.5 -15.1 1.4 -17.5 2.0 -2.4 0.5 -9.5 1.4 -15.8 1.9 -19.1 1.6 -36.0 4.2 -69.0 10.7 -10.2 2.0 -21.6 4.3 -25.5 5.0 -10.4 2.0 -23.8 4.9 -34.5 7.4 -22.7 5.2 -26.1 6.0 -37.7 9.1 -3.9 1.0 -7.8 1.9 -8.7 1.9 -1.5 -0.0 -34.1 9.1 -46.6 13.0 -3.6 1.1 -14.6 4.5 -24.5 7.5 -25.7 7.9 -43.7 14.0 -61.5 20.8 -18.4 7.1 -20.4 7.5 -28.4 5.2 -39.9 -11.5 -101.7 -31.9 -130.6 -43.0 -8.0 -3.1 -19.4 -7.4 -25.5 -9.7 -41.0 -15.1 -135.2 -57.8 -163.8 -74.1 -6.1 -3.5 -17.0 -9.5 -24.2 -13.2 -7.1 -3.7 -16.6 -8.9 -21.0 -11.5 -4.4 -2.6 -15.9 -9.4 -25.5 -15.0 -18.2 -10.7 -67.1 -42.9 -77.5 -51.0 -3.3 -2.6 -9.8 -7.3 -14.5 -10.5 -4.7 -3.2 -14.8 -10.9 -22.5 -17.0 -18.9 -15.1 -18.5 -14.9 -24.2 -14.1 -12.8 1.8 -14.4 3.2 -18.2 15.5 -12.8 41.4 -18.4 62.6 -21.6 82.6 -0.8 4.9 -1.9 11.2 -2.5 14.0 -3.0 15.7 -6.9 71.3 -6.7 96.5 0.4 43.2 6.2 90.8 14.8 122.5 1.0 3.8 1.9 7.8 1.9 8.7 0.0 7.4 25.1 73.8 37.3 98.8 21.9 44.6 70.1 111.9 83.2 116.2 5.7 1.9 5.7 6.2 0.2 9.8 -3.4 2.2 -5.2 5.2 -15.7 26.5 -10.6 21.6 -15.1 32.2 -26.3 61.0 -6.9 18.0 -19.4 58.5 -22.2 72.2 -0.9 4.3 -2.0 9.4 -2.5 11.4 -2.2 8.1 -4.6 22.7 -7.9 47.4 -4.0 29.9 -6.1 83.9 -4.2 106.0 0.7 7.1 1.8 21.1 2.6 31.1 0.8 9.9 1.8 19.2 2.3 20.5 0.5 1.3 1.3 6.2 1.7 10.9 0.7 9.0 4.6 29.6 6.4 34.3 0.6 1.6 1.1 3.9 1.1 5.3 0.0 1.3 0.9 5.0 2.0 8.1 1.1 3.2 2.0 6.8 2.0 8.0 0.0 1.3 2.5 9.4 5.6 18.0 3.0 8.7 7.1 20.3 9.1 25.8 9.3 26.2 13.2 34.8 17.9 39.2 6.0 5.4 5.1 8.3 -2.6 8.3 -3.4 -0.0 -7.7 1.2 -14.7 4.1 -5.4 2.2 -11.4 4.7 -13.4 5.4 -7.7 2.8 -33.1 15.9 -47.9 24.6 -33.8 19.8 -57.9 37.7 -90.0 66.6 -29.5 26.5 -65.7 68.8 -85.7 100.2 -3.0 4.7 -7.7 11.7 -10.3 15.6 -10.3 15.2 -24.3 40.9 -33.2 60.9 -15.8 35.5 -36.3 93.4 -38.9 109.6 -0.3 2.5 -1.4 7.6 -2.3 11.5 -0.9 3.8 -2.3 9.7 -3.1 13.0 -0.8 3.3 -1.7 8.5 -2.0 11.5 -0.4 3.0 -1.2 8.2 -2.0 11.5 -0.7 3.3 -1.6 9.7 -2.0 14.2 -0.3 4.6 -1.1 9.8 -1.6 11.5 -5.6 19.2 -5.5 150.2 0.1 174.2 0.4 2.1 1.1 7.3 1.5 11.5 0.7 8.1 3.8 27.7 5.7 35.1 0.6 2.5 1.4 6.7 1.8 9.5 0.4 2.7 1.3 7.0 2.0 9.4 0.6 2.5 1.5 6.5 2.0 9.0 2.5 14.4 19.6 70.7 26.1 85.8 2.8 6.5 16.9 11.6 22.1 8.0 8.2 -5.8 19.5 -18.3 20.2 -22.4 0.7 -4.8 4.1 -7.9 7.6 -6.8 2.5 0.8 2.8 5.6 0.4 7.6 -1.8 1.5 -1.5 22.0 0.5 30.4 0.5 2.2 1.4 8.0 2.0 13.0 1.8 15.0 4.1 28.0 9.0 50.5 1.2 5.2 2.1 10.3 2.1 11.3 -0.1 8.6 29.3 100.9 36.4 114.2 0.9 1.7 6.9 13.8 13.5 27.1 18.9 38.4 42.2 76.0 48.5 78.4 12.6 4.7 29.4 -12.1 30.1 -29.9 0.2 -7.1 3.4 -10.0 7.0 -6.5 1.3 1.3 1.5 2.8 0.9 7.0 -0.9 7.2 6.2 22.0 31.1 64.9 13.2 22.8 38.0 60.9 46.0 70.5 2.5 3.0 7.1 8.9 10.3 13.1 3.2 4.1 10.1 12.7 15.4 19.0 5.3 6.3 13.8 16.3 18.9 22.4 30.9 37.1 105.3 103.7 147.4 132.1 8.8 5.9 18.0 12.1 20.5 13.8 19.7 13.6 64.2 39.3 83.2 48.1 4.6 2.1 7.3 4.5 14.5 12.8 4.8 5.6 15.3 16.9 23.3 25.2 8.0 8.2 16.6 17.1 19.1 19.7 3.2 3.4 5.4 4.8 7.3 4.8 2.6 -0.0 6.6 3.0 6.6 5.0 0.0 1.9 -4.0 5.0 -6.4 5.0 -3.2 -0.0 -5.5 2.0 -16.9 14.6 -29.0 32.4 -50.2 72.4 -53.8 101.9 -0.5 4.4 -1.4 10.3 -2.0 13.1 -3.4 15.4 2.2 51.1 10.9 69.6 23.6 50.7 77.0 81.7 140.5 81.8 18.0 -0.0 18.1 -0.0 19.0 11.5 0.7 7.5 1.3 10.4 5.9 26.0 9.3 31.8 52.5 73.3 83.3 80.0 1.7 0.4 5.7 1.5 9.0 2.5 21.2 6.5 65.4 5.8 73.3 -1.2 5.8 -5.0 8.6 -3.8 9.2 4.2 3.2 37.3 56.6 82.3 112.0 94.4 31.2 6.7 85.0 2.8 95.0 -6.9 5.4 -5.3 9.0 -4.3 9.0 2.4 0.0 6.0 11.2 22.6 26.0 38.4 27.0 28.8 68.4 50.5 114.0 59.7 25.2 5.1 33.3 4.8 57.7 -1.6 5.4 -1.5 11.4 -3.0 13.3 -3.5 18.6 -4.5 45.0 -16.6 62.8 -28.8 26.7 -18.4 57.2 -52.0 57.2 -63.2 0.0 -6.4 4.3 -7.9 8.8 -3.0 7.3 7.9 63.0 13.0 89.2 8.2 56.9 -10.5 96.5 -40.2 116.0 -87.1 1.7 -4.1 4.0 -8.3 5.1 -9.2 2.1 -1.8 1.7 -1.8 20.1 0.8 73.9 10.3 156.8 -45.9 156.8 -106.4 0.0 -13.6 3.1 -17.2 14.9 -17.2 119.1 -0.0 184.7 -90.3 143.9 -198.0 -11.3 -29.9 -49.5 -83.0 -59.5 -83.0 -3.4 -0.0 -7.3 -2.9 -7.3 -5.3 0.1 -2.8 4.1 -5.7 8.0 -5.7 2.5 -0.0 11.9 -9.3 36.6 -36.2 19.9 -21.5 23.8 -25.0 31.5 -27.8 15.0 -5.4 47.7 -25.0 90.9 -54.5 29.4 -20.0 41.8 -29.6 72.0 -56.0 5.7 -5.0 13.1 -11.3 16.4 -14.1 20.8 -17.3 70.6 -69.8 90.6 -95.4 4.1 -5.2 10.6 -13.6 14.6 -18.5 7.3 -9.3 20.5 -27.8 28.5 -40.0 2.5 -3.9 8.6 -13.1 13.5 -20.5 10.1 -15.4 9.3 -14.0 32.9 -59.5 7.7 -15.0 7.7 -15.0 7.1 -21.2 -0.5 -4.9 -0.3 -6.4 1.0 -7.7 3.8 -3.8 7.7 -0.0 7.9 7.8 0.6 15.1 11.7 27.5 25.0 27.5 9.8 0.1 30.5 -30.5 56.1 -82.7 18.7 -38.3 43.3 -110.9 46.9 -138.5 0.4 -2.7 1.3 -6.7 2.1 -8.9 0.8 -2.2 1.4 -5.5 1.4 -7.4 0.0 -1.8 0.5 -4.5 1.0 -6.0 1.9 -4.9 9.6 -54.4 10.5 -67.1 0.5 -7.1 0.3 -8.9 -1.5 -12.4 -2.3 -4.5 -1.9 -7.5 1.2 -8.5 3.2 -1.0 7.1 2.6 8.3 7.6 0.8 3.5 2.4 5.7 8.8 11.9 10.5 10.1 11.4 10.6 19.1 9.1 10.0 -2.0 11.0 -2.8 14.6 -12.7 11.0 -30.4 20.6 -62.7 24.7 -83.3 0.8 -4.1 2.1 -10.4 2.8 -14.0 0.7 -3.6 1.8 -8.5 2.4 -11.0 0.6 -2.5 1.5 -7.4 2.0 -11.0 0.6 -3.6 1.5 -9.4 2.1 -13.0 10.1 -64.6 11.6 -150.8 3.4 -198.3 -0.9 -4.9 -1.9 -12.3 -2.4 -16.5 -0.5 -4.2 -1.3 -10.2 -2.0 -13.2 -0.6 -3.0 -2.4 -12.3 -4.0 -20.5 -1.7 -8.3 -3.5 -16.8 -4.0 -19.0 -0.5 -2.2 -2.1 -8.7 -3.5 -14.5 -4.1 -17.0 -6.3 -24.6 -10.6 -35.9 -2.2 -5.8 -5.5 -14.9 -7.4 -20.1 -8.8 -25.1 -20.9 -51.9 -32.3 -71.5 -3.5 -6.1 -6.8 -12.0 -7.3 -13.2 -0.7 -2.0 -6.9 -12.2 -14.4 -23.8 -1.8 -2.8 -5.8 -9.1 -9.0 -14.0 -26.2 -40.7 -75.5 -94.1 -113.3 -122.9 -37.0 -28.1 -74.1 -50.7 -106.2 -64.4 -21.6 -9.2 -24.4 -10.2 -29.7 -10.2 -8.0 -0.0 -9.0 -2.8 -2.9 -8.3 2.5 -2.4 5.4 -6.4 6.6 -9.2 6.9 -16.1 19.2 -50.0 22.5 -62.0 1.4 -5.5 3.5 -13.0 4.6 -16.7 1.0 -3.6 1.9 -7.7 1.9 -9.1 0.0 -1.4 0.5 -3.8 1.1 -5.4 3.1 -8.3 8.5 -40.8 10.4 -63.3 0.8 -9.1 1.9 -21.2 2.4 -27.0 1.3 -13.5 1.3 -57.5 0.1 -70.5 -0.6 -5.5 -1.7 -17.9 -2.5 -27.5 -0.9 -9.6 -1.9 -18.9 -2.4 -20.5 -0.5 -1.7 -1.2 -6.4 -1.6 -10.5 -0.3 -4.1 -1.2 -10.4 -2.0 -14.0 -0.8 -3.6 -2.4 -11.2 -3.5 -17.0 -10.4 -53.2 -32.9 -115.3 -58.5 -161.5 -8.8 -15.9 -9.0 -17.0 -3.2 -23.3 38.9 -42.3 70.7 -90.9 89.7 -137.2 23.2 -56.2 30.7 -84.4 38.8 -144.5 3.4 -25.7 4.1 -114.8 1.0 -132.5 -0.9 -5.2 -1.9 -12.7 -2.3 -16.5 -0.3 -3.9 -1.2 -10.4 -2.0 -14.5 -0.8 -4.1 -2.4 -13.1 -3.5 -20.0 -3.6 -21.4 -8.4 -39.9 -17.7 -68.8 -5.0 -15.6 -4.6 -15.1 -14.5 -18.2 -7.8 -2.4 -7.6 -2.4 -11.6 -0.0 Z m-2016.6 138.8 c21.7 14.3 27.9 18.1 57.9 35.2 18.8 10.8 63.4 33.7 89.0 45.7 38.8 18.3 48.1 22.5 63.0 28.8 8.8 3.7 22.8 9.7 31.0 13.2 8.3 3.6 22.4 9.3 31.5 12.8 9.1 3.4 22.1 8.6 29.0 11.5 16.5 6.8 58.5 23.7 83.5 33.5 11.0 4.3 27.7 11.0 37.0 14.8 21.0 8.5 23.6 9.2 27.2 7.9 2.8 -1.1 8.6 -3.5 31.8 -13.5 50.9 -22.0 131.7 -49.0 175.5 -58.7 4.5 -1.0 12.0 -2.9 19.0 -4.8 3.0 -0.8 8.4 -2.0 12.0 -2.7 12.3 -2.4 18.5 -3.7 24.0 -5.1 5.4 -1.3 18.8 -3.7 30.5 -5.4 3.3 -0.5 9.4 -1.6 13.5 -2.4 4.1 -0.8 13.8 -2.4 21.5 -3.5 7.7 -1.1 18.7 -2.7 24.5 -3.6 5.8 -0.8 15.5 -2.0 21.5 -2.5 6.1 -0.6 17.0 -1.7 24.4 -2.5 84.8 -9.4 248.2 -6.9 305.6 4.5 2.8 0.5 9.7 1.7 15.5 2.5 24.3 3.3 43.0 6.5 52.0 8.8 3.0 0.8 7.5 1.7 10.0 2.1 4.1 0.6 11.6 2.1 23.0 4.8 2.5 0.6 6.5 1.4 9.0 1.9 2.5 0.5 7.9 1.8 12.0 2.9 9.5 2.5 43.7 11.1 47.0 11.7 13.6 2.8 86.7 27.3 118.8 40.0 11.9 4.6 25.5 10.0 30.2 11.8 4.7 1.8 14.0 5.6 20.8 8.4 12.9 5.4 15.6 5.8 21.2 3.6 14.5 -5.6 25.2 -9.9 36.0 -14.4 6.9 -2.9 18.8 -7.6 26.5 -10.6 7.7 -2.9 18.1 -7.0 23.0 -9.0 5.0 -2.0 15.8 -6.3 24.0 -9.5 8.3 -3.2 25.6 -10.2 38.5 -15.5 12.9 -5.3 28.2 -11.4 34.0 -13.7 5.8 -2.2 21.1 -8.7 34.0 -14.3 12.9 -5.7 27.8 -12.1 33.0 -14.3 5.2 -2.2 16.7 -7.5 25.5 -11.7 8.8 -4.2 21.4 -10.1 28.0 -13.0 6.6 -3.0 20.6 -9.8 31.0 -15.1 10.5 -5.3 21.7 -11.0 25.0 -12.7 16.2 -8.0 66.0 -37.5 87.9 -52.1 18.4 -12.2 21.5 -12.9 23.0 -5.3 0.3 1.2 1.0 4.4 1.5 7.2 0.6 2.7 1.5 9.3 2.1 14.5 0.5 5.2 1.5 13.5 2.1 18.5 1.6 12.6 1.7 92.7 0.1 102.0 -0.7 3.8 -1.6 10.6 -2.1 15.0 -1.8 15.4 -6.0 35.1 -12.8 58.5 -2.4 8.5 -5.1 17.7 -5.9 20.5 -3.5 12.5 -15.0 37.0 -25.7 55.0 -33.6 56.3 -74.9 97.2 -127.2 126.0 -7.7 4.3 -14.4 8.1 -15.0 8.5 -10.7 8.6 -71.3 30.2 -104.5 37.4 -28.5 6.1 -44.0 8.5 -63.9 9.6 -10.7 0.6 -19.9 1.4 -20.5 1.8 -0.6 0.4 -35.3 1.0 -77.1 1.3 -75.3 0.7 -82.3 1.0 -123.0 4.9 -16.0 1.6 -33.3 4.6 -46.0 8.0 -3.8 1.0 -12.8 3.0 -20.0 4.5 -7.1 1.4 -15.0 3.2 -17.5 3.9 -2.5 0.8 -8.8 2.6 -14.0 4.1 -37.3 10.9 -86.1 32.3 -117.6 51.5 -84.7 51.6 -149.1 131.4 -159.4 197.5 -0.6 3.8 -1.6 9.7 -2.2 13.0 -2.4 12.6 -1.5 56.8 1.4 66.2 6.1 19.6 8.7 18.7 18.9 -6.3 24.1 -58.9 34.4 -79.9 54.2 -109.9 35.7 -54.0 96.4 -102.6 161.2 -129.0 23.2 -9.4 52.8 -18.6 70.0 -21.5 6.6 -1.2 15.2 -2.7 19.0 -3.5 37.7 -7.4 107.8 -7.4 154.0 -0.1 55.3 8.9 130.0 8.6 167.9 -0.5 4.4 -1.0 8.9 -1.9 10.0 -1.9 2.2 -0.0 7.6 -1.5 26.6 -7.5 44.9 -14.3 78.4 -32.4 121.8 -65.9 19.1 -14.8 20.1 -14.7 30.4 4.1 18.6 34.0 34.5 73.1 44.2 109.3 1.4 5.2 3.7 13.5 5.1 18.5 2.4 8.6 4.3 17.1 6.6 30.0 0.5 3.3 1.7 9.6 2.5 14.0 4.0 22.5 5.6 46.3 5.7 83.5 0.1 37.0 0.1 36.8 -4.4 69.5 -1.4 10.4 -4.4 26.7 -6.9 37.5 -1.2 5.2 -2.6 11.4 -3.1 13.7 -1.0 5.2 -3.8 15.0 -8.6 30.3 -14.9 48.1 -41.5 95.9 -73.8 132.9 -13.5 15.5 -13.4 15.4 -13.5 17.8 0.0 2.4 3.5 4.0 6.8 3.0 34.1 -9.8 52.8 -10.8 77.7 -4.2 18.2 4.8 24.8 6.9 38.1 12.0 160.9 61.8 272.0 221.3 288.5 414.0 2.7 32.4 1.7 85.5 -2.2 116.5 -0.5 4.1 -1.4 12.0 -2.0 17.5 -0.5 5.5 -1.6 13.8 -2.4 18.5 -0.8 4.7 -1.7 11.2 -2.0 14.5 -2.4 23.3 -5.7 26.1 -19.5 16.2 -6.7 -4.7 -21.7 -15.0 -39.8 -27.4 -12.4 -8.4 -13.1 -7.4 -14.3 24.2 -1.4 37.4 -3.8 72.1 -6.9 98.0 -2.6 21.7 -4.7 36.3 -6.5 44.5 -0.8 3.6 -2.2 10.5 -3.1 15.5 -4.0 22.7 -6.6 34.5 -9.2 42.0 -1.1 3.3 -3.0 9.6 -4.2 14.0 -5.1 18.5 -15.4 50.2 -22.7 70.0 -5.4 14.6 -10.4 13.5 -33.3 -7.4 -26.4 -24.1 -24.9 -24.5 -36.9 11.4 -4.6 13.7 -9.6 27.9 -11.1 31.5 -1.5 3.6 -4.6 10.8 -6.8 16.0 -10.7 25.3 -31.2 64.5 -46.9 89.8 -9.9 15.9 -11.4 18.3 -21.6 33.5 -50.6 76.1 -127.6 150.1 -212.9 204.5 -18.7 11.9 -32.7 20.1 -49.1 28.5 -6.0 3.1 -9.9 7.5 -18.2 20.2 -21.1 32.6 -54.7 70.7 -87.1 98.6 -20.9 18.1 -27.4 19.4 -27.4 5.6 -0.1 -43.2 -30.6 -73.0 -75.0 -73.2 -34.5 -0.1 -48.2 15.4 -41.5 46.7 3.3 16.0 6.1 57.9 5.1 79.6 -1.2 28.3 -2.5 45.6 -4.0 53.2 -8.6 44.2 2.0 58.7 32.2 43.4 31.6 -16.0 56.9 -46.9 71.2 -87.2 5.0 -14.0 6.2 -14.2 22.4 -2.6 67.0 47.4 86.2 122.9 40.1 157.4 -31.5 23.5 -97.0 18.1 -150.0 -12.5 -5.3 -3.0 -24.0 -11.0 -28.8 -12.3 -8.3 -2.3 -9.1 2.3 -1.9 10.1 20.4 22.0 39.3 45.1 45.4 55.6 26.3 44.6 -8.2 97.1 -63.2 96.4 -18.7 -0.3 -30.3 -4.0 -52.5 -16.8 -13.1 -7.5 -29.6 -20.2 -55.6 -42.5 -7.3 -6.3 -13.5 -11.4 -30.4 -25.4 -4.4 -3.6 -13.3 -10.9 -19.9 -16.3 -6.5 -5.4 -14.4 -11.8 -17.6 -14.3 -3.1 -2.5 -8.9 -7.1 -12.8 -10.3 -15.5 -12.8 -14.9 -4.8 1.7 22.3 3.9 6.3 11.0 18.2 15.8 26.3 4.9 8.2 12.3 20.4 16.6 27.0 4.2 6.7 10.3 16.4 13.5 21.5 3.1 5.2 8.0 12.9 10.8 17.2 35.2 53.4 28.2 82.5 -25.1 104.5 -56.0 23.2 -89.2 -0.3 -125.1 -88.5 -6.6 -16.2 -14.3 -34.5 -24.4 -57.5 -15.6 -35.8 -27.0 -62.4 -33.5 -78.0 -20.7 -49.5 -28.5 -58.4 -23.4 -26.5 0.6 3.6 1.6 11.0 2.4 16.5 2.1 15.8 5.6 37.8 6.1 38.6 0.2 0.4 0.9 4.3 1.4 8.6 0.5 4.3 1.6 11.6 2.4 16.3 0.9 4.7 2.5 14.3 3.7 21.5 1.1 7.1 2.7 15.8 3.5 19.2 0.8 3.4 1.4 7.9 1.4 10.0 0.0 2.1 0.9 7.4 2.0 11.8 1.1 4.4 2.0 9.0 2.0 10.1 0.0 1.2 0.8 6.9 1.9 12.5 4.1 22.3 6.1 36.2 9.0 60.4 1.2 9.3 2.5 19.7 3.1 23.0 7.9 47.2 -26.3 85.2 -90.7 100.6 -21.7 5.2 -64.6 -10.0 -86.2 -30.5 -18.5 -17.8 -28.3 -43.3 -25.2 -66.1 2.5 -18.2 3.2 -23.7 4.6 -32.5 0.9 -5.2 2.5 -15.4 3.6 -22.5 1.1 -7.2 2.7 -16.8 3.6 -21.5 0.8 -4.7 1.9 -11.7 2.3 -15.5 1.1 -9.5 4.3 -29.9 7.5 -48.0 1.5 -8.3 3.1 -18.4 3.6 -22.5 0.5 -4.1 1.4 -8.9 1.9 -10.5 0.6 -1.7 1.4 -6.2 1.9 -10.0 0.6 -3.9 1.6 -10.4 2.4 -14.5 2.9 -14.6 8.0 -48.2 9.2 -59.5 0.3 -3.3 1.1 -8.2 1.7 -10.8 2.0 -9.4 -4.3 -10.1 -7.3 -0.9 -0.7 2.0 -4.3 10.6 -8.1 19.2 -3.9 8.5 -9.6 21.8 -12.8 29.5 -11.6 28.0 -14.4 34.3 -23.1 52.8 -4.9 10.4 -8.9 19.0 -8.9 19.3 0.0 0.8 -17.6 41.9 -20.5 47.9 -1.3 2.7 -5.0 11.1 -8.1 18.5 -10.2 24.4 -11.1 26.4 -17.3 38.1 -21.2 40.0 -45.9 53.1 -86.9 46.0 -39.9 -6.9 -71.1 -43.9 -61.2 -72.6 1.9 -5.6 3.4 -8.5 12.7 -25.0 4.3 -7.5 20.2 -33.0 28.8 -46.0 7.3 -11.2 9.8 -15.3 14.8 -24.2 2.4 -4.3 10.3 -17.6 17.6 -29.6 18.9 -31.1 18.9 -38.7 0.0 -22.6 -3.0 2.6 -10.1 8.6 -15.9 13.3 -21.3 17.5 -24.5 20.2 -31.9 26.7 -4.2 3.6 -14.3 12.0 -22.6 18.6 -8.2 6.6 -17.8 14.5 -21.1 17.4 -32.7 28.7 -67.8 46.9 -90.7 46.9 -47.7 -0.0 -84.9 -43.0 -71.6 -82.7 4.9 -14.7 9.8 -21.4 43.7 -60.2 23.5 -26.9 22.0 -28.2 -13.1 -11.9 -40.0 18.5 -59.1 25.3 -84.2 30.0 -109.4 20.5 -138.6 -93.8 -42.4 -165.7 21.9 -16.4 24.0 -16.6 28.8 -3.8 15.7 41.8 44.2 75.6 76.7 91.0 27.7 13.2 40.7 -10.5 26.8 -49.1 -1.4 -3.9 -3.6 -30.6 -4.1 -50.1 -0.7 -28.7 1.0 -47.8 7.4 -81.3 6.2 -32.5 -12.7 -49.4 -50.5 -45.2 -38.1 4.3 -62.0 27.5 -66.7 64.7 -2.3 18.5 -2.9 19.2 -10.8 15.4 -21.1 -10.2 -67.8 -58.7 -99.6 -103.4 -17.6 -24.7 -16.1 -23.3 -30.7 -31.1 -60.6 -32.8 -126.6 -83.4 -178.1 -136.2 -23.5 -24.1 -28.7 -29.9 -45.0 -49.5 -13.9 -16.7 -21.2 -26.6 -36.7 -49.9 -39.3 -58.9 -65.3 -112.0 -84.7 -173.0 -7.2 -22.6 -8.0 -22.7 -30.2 -4.5 -29.6 24.2 -30.6 24.5 -35.9 13.3 -2.9 -6.2 -17.5 -48.2 -21.3 -61.3 -1.4 -5.0 -3.9 -13.3 -5.4 -18.5 -7.1 -23.7 -15.3 -66.7 -19.1 -100.5 -4.8 -41.9 -6.1 -59.4 -7.0 -94.9 -1.4 -50.1 1.1 -48.6 -36.0 -22.0 -34.1 24.3 -33.6 24.4 -39.0 -5.4 -10.7 -58.2 -12.8 -130.6 -5.5 -186.7 0.8 -6.1 1.7 -13.3 2.0 -16.0 1.0 -9.1 5.0 -30.4 9.6 -51.5 6.2 -28.3 24.4 -78.5 37.4 -103.5 10.6 -20.4 24.6 -44.1 29.9 -51.0 1.7 -2.2 5.6 -7.6 8.6 -12.0 22.0 -32.5 53.3 -65.7 92.5 -98.1 22.7 -18.8 80.7 -51.9 106.8 -61.0 48.0 -16.7 75.4 -19.6 107.0 -11.3 16.2 4.2 17.5 2.5 7.1 -9.8 -7.8 -9.1 -29.3 -37.8 -38.2 -51.0 -18.2 -26.9 -43.6 -87.9 -51.1 -122.8 -4.5 -21.1 -5.2 -24.3 -7.0 -35.5 -1.1 -6.3 -2.2 -14.9 -2.6 -19.0 -0.4 -4.1 -1.4 -12.0 -2.2 -17.5 -2.4 -15.2 -2.4 -70.4 0.0 -88.5 0.9 -7.4 2.4 -19.1 3.2 -26.0 7.2 -59.1 30.6 -132.0 59.1 -183.6 12.5 -22.8 12.2 -22.8 42.9 1.0 44.8 34.7 82.3 53.1 139.0 67.9 32.6 8.6 100.3 12.3 135.0 7.4 6.6 -0.9 21.0 -2.6 32.0 -3.7 11.0 -1.2 26.5 -3.0 34.5 -4.0 30.3 -4.0 67.5 -5.5 85.5 -3.6 7.2 0.8 17.5 1.7 23.0 2.1 10.7 0.6 33.4 3.9 40.0 5.7 2.2 0.6 5.8 1.4 8.0 1.8 24.4 4.3 69.5 21.4 98.0 37.2 77.0 42.8 127.6 101.0 168.7 194.3 25.5 57.8 33.9 57.4 32.5 -1.5 -0.5 -21.6 -1.2 -28.4 -4.2 -41.5 -0.8 -3.3 -1.7 -7.8 -2.1 -10.0 -8.5 -52.3 -61.7 -122.4 -130.5 -172.0 -33.9 -24.4 -81.3 -47.9 -127.4 -63.2 -19.1 -6.4 -39.0 -12.1 -44.6 -12.8 -2.4 -0.3 -6.9 -1.2 -9.9 -2.0 -25.8 -6.6 -56.8 -10.9 -96.5 -13.5 -8.2 -0.5 -42.9 -1.0 -77.0 -1.0 -58.7 -0.0 -84.8 -0.8 -106.5 -3.1 -5.2 -0.6 -15.6 -1.6 -23.0 -2.4 -15.2 -1.4 -25.9 -3.4 -43.5 -7.7 -6.6 -1.7 -13.8 -3.4 -16.0 -3.9 -12.7 -2.6 -71.8 -24.8 -77.0 -28.9 -0.5 -0.5 -6.6 -3.8 -13.5 -7.5 -80.0 -43.0 -137.6 -109.6 -166.0 -192.0 -10.8 -31.6 -14.3 -47.7 -20.1 -93.5 -1.8 -13.6 -1.4 -74.0 0.5 -90.0 0.9 -7.4 1.9 -16.0 2.2 -19.0 0.3 -3.0 1.1 -8.9 1.9 -13.0 0.8 -4.1 1.9 -10.4 2.4 -14.0 2.0 -12.2 2.7 -12.1 29.7 5.8 Z M988.9 517.9 c-2.4 1.9 -2.4 2.2 -2.8 22.4 -0.5 34.6 1.4 58.0 7.0 85.2 9.1 43.7 25.2 78.6 50.8 110.4 4.2 5.1 8.1 10.0 8.6 10.8 13.4 19.8 65.8 54.1 104.5 68.6 53.2 19.8 83.4 25.1 162.5 28.2 21.5 0.9 50.3 2.0 64.0 2.5 13.8 0.6 29.1 1.5 34.0 2.0 5.0 0.6 14.0 1.5 20.0 2.1 6.1 0.5 14.6 1.6 19.0 2.4 4.4 0.7 10.9 1.6 14.5 2.0 6.5 0.6 13.4 1.8 33.0 5.6 16.1 3.2 29.0 6.0 34.0 7.4 2.5 0.7 6.1 1.6 8.1 1.9 17.6 3.0 90.1 30.6 114.8 43.8 23.6 12.7 52.5 29.6 62.1 36.6 84.3 60.9 138.0 124.9 179.4 213.7 15.7 33.7 14.8 32.0 17.2 32.3 3.1 0.4 4.6 -2.0 12.5 -19.8 20.8 -47.4 40.3 -79.3 75.5 -124.0 30.9 -39.2 76.6 -80.1 121.9 -109.2 11.6 -7.5 27.4 -16.8 30.3 -17.9 1.4 -0.6 8.3 -4.1 15.2 -7.9 31.5 -17.2 78.1 -35.9 111.4 -44.5 40.9 -10.7 49.8 -12.7 64.5 -14.6 3.6 -0.5 7.8 -1.3 9.5 -1.9 1.7 -0.5 7.2 -1.4 12.1 -2.0 5.0 -0.5 11.5 -1.4 14.5 -1.9 3.0 -0.5 8.9 -1.3 13.0 -1.6 4.1 -0.3 13.4 -1.3 20.5 -2.0 7.2 -0.8 33.5 -1.9 58.5 -2.5 42.0 -0.9 96.5 -3.4 100.0 -4.5 0.8 -0.3 6.5 -1.1 12.5 -2.0 125.8 -17.0 216.3 -83.7 247.3 -182.2 12.9 -41.0 17.0 -70.9 15.9 -116.1 -0.7 -28.5 -1.6 -29.5 -17.4 -19.6 -7.1 4.4 -32.4 16.9 -52.8 26.1 -26.9 12.1 -32.6 14.6 -39.5 17.3 -107.8 41.1 -153.0 89.9 -136.0 147.0 11.0 37.1 85.2 24.2 80.4 -14.0 -2.4 -18.6 4.9 -30.3 23.1 -37.2 36.7 -14.0 53.4 18.1 28.0 53.7 -19.4 27.2 -70.3 56.4 -110.5 63.5 -2.5 0.4 -6.5 1.2 -9.0 1.8 -34.1 8.1 -79.0 11.0 -174.9 11.3 -59.6 0.1 -59.4 0.1 -57.0 -4.3 1.1 -2.1 0.9 -2.0 16.9 -7.2 61.0 -19.9 137.4 -65.3 153.0 -90.8 5.4 -9.0 3.1 -9.4 -17.9 -3.2 -8.6 2.5 -17.8 5.0 -20.6 5.4 -2.7 0.5 -9.9 1.9 -16.0 3.0 -6.0 1.1 -22.2 3.6 -36.0 5.5 -13.7 1.9 -29.0 4.1 -34.0 4.9 -4.9 0.8 -13.9 1.8 -20.0 2.1 -6.0 0.4 -12.3 1.1 -14.0 1.5 -1.6 0.5 -7.0 1.4 -12.0 1.9 -13.8 1.6 -36.1 4.8 -45.0 6.5 -4.4 0.8 -12.9 2.2 -19.0 3.1 -10.6 1.6 -22.0 4.0 -33.5 7.0 -3.0 0.7 -9.3 2.4 -14.0 3.6 -67.0 17.5 -138.4 50.8 -186.5 87.2 -56.6 42.9 -88.2 77.2 -126.9 138.1 -10.9 17.0 -31.2 56.7 -36.2 70.5 -2.1 5.8 -5.1 8.6 -8.3 7.6 -2.2 -0.7 -3.6 -3.4 -14.9 -28.2 -31.8 -69.3 -88.1 -139.3 -148.2 -184.0 -34.6 -25.6 -55.9 -38.1 -104.5 -60.8 -18.5 -8.6 -62.9 -24.2 -84.0 -29.5 -22.1 -5.5 -38.9 -9.4 -43.5 -10.0 -3.0 -0.4 -12.0 -1.9 -20.0 -3.4 -15.9 -3.0 -34.2 -5.8 -52.0 -8.1 -24.2 -3.0 -28.0 -3.5 -46.5 -5.5 -10.4 -1.2 -24.7 -3.0 -31.6 -4.1 -6.9 -1.0 -14.0 -1.9 -15.8 -1.9 -3.0 -0.0 -8.5 -1.0 -35.1 -6.1 -5.8 -1.1 -14.5 -3.3 -19.5 -4.9 -21.0 -6.7 -22.5 -6.9 -22.5 -2.0 0.0 21.1 101.8 81.7 163.5 97.2 10.1 2.6 11.5 3.3 11.5 6.2 0.0 3.5 -0.8 3.6 -29.3 3.6 -100.6 -0.1 -163.3 -3.1 -194.2 -9.5 -3.8 -0.8 -11.9 -2.4 -18.0 -3.6 -56.8 -11.2 -105.9 -44.4 -123.6 -83.5 -15.3 -33.7 26.1 -51.5 54.3 -23.4 7.9 7.9 8.9 12.0 6.6 27.5 -2.1 15.0 7.4 25.2 30.2 32.2 66.9 20.4 70.0 -72.0 4.0 -121.4 -13.3 -9.9 -44.5 -26.8 -64.4 -34.7 -4.8 -2.0 -11.4 -4.7 -14.5 -6.1 -3.1 -1.3 -11.9 -4.9 -19.6 -7.9 -25.3 -9.9 -52.0 -22.6 -72.4 -34.4 -8.9 -5.2 -17.1 -9.1 -21.7 -10.6 -1.4 -0.4 -3.0 -0.0 -4.5 1.3 Z M1130.3 996.2 c-3.8 1.8 -12.8 14.4 -26.0 36.4 -22.1 36.6 -33.6 67.5 -43.4 116.4 -5.2 26.2 -5.6 90.5 -0.7 115.9 0.5 3.0 1.6 9.3 2.3 14.0 15.4 103.6 85.9 201.3 185.7 257.2 40.5 22.8 86.8 40.7 123.3 47.9 6.1 1.1 12.8 2.5 15.0 3.1 2.2 0.5 9.9 1.6 17.0 2.4 7.2 0.8 14.0 1.7 15.1 2.0 17.6 4.2 93.4 1.6 116.4 -4.0 3.0 -0.7 11.4 -2.6 18.5 -4.1 60.8 -12.7 114.3 -39.4 165.5 -82.5 30.0 -25.2 40.4 -43.8 16.1 -28.8 -34.7 21.5 -41.1 25.0 -58.8 32.3 -6.2 2.5 -13.8 5.8 -17.0 7.4 -14.5 7.3 -58.4 20.0 -84.8 24.6 -142.6 25.1 -299.9 -43.4 -381.4 -165.9 -18.6 -27.9 -25.2 -40.6 -39.3 -76.5 -5.8 -14.6 -13.1 -38.6 -14.3 -47.0 -0.7 -5.1 -3.5 -21.7 -6.2 -36.5 -3.1 -17.3 -2.5 -81.1 1.0 -100.5 4.2 -23.5 4.7 -26.2 6.4 -33.0 0.9 -3.6 1.9 -8.5 2.4 -11.0 0.4 -2.5 3.5 -12.6 6.8 -22.6 13.1 -39.4 13.2 -38.3 -7.6 -45.5 -9.2 -3.2 -8.9 -3.2 -12.0 -1.7 Z M2698.7 999.0 c-21.1 7.2 -20.6 5.1 -9.2 40.0 3.2 9.6 6.2 19.3 6.7 21.5 0.5 2.2 1.8 7.4 2.9 11.6 1.0 4.2 1.9 8.7 1.9 10.0 0.0 1.3 0.9 6.7 2.0 11.9 8.0 39.0 8.0 101.1 0.0 142.0 -1.0 5.2 -2.1 11.5 -2.5 14.0 -0.8 5.2 -6.1 23.1 -11.2 37.5 -20.1 57.1 -50.0 103.0 -94.8 145.5 -93.1 88.4 -228.2 127.6 -346.0 100.4 -20.9 -4.8 -25.3 -6.0 -39.5 -10.6 -26.2 -8.6 -65.5 -26.4 -83.7 -37.9 -44.9 -28.3 -45.8 -19.5 -1.8 18.0 56.1 47.8 126.0 79.1 195.5 87.6 30.1 3.7 79.3 4.4 101.5 1.4 3.9 -0.5 12.3 -1.6 18.8 -2.4 6.5 -0.8 12.2 -1.7 12.8 -2.0 0.5 -0.4 4.0 -1.1 7.7 -1.6 51.6 -7.2 138.5 -46.6 182.2 -82.5 19.6 -16.1 26.4 -22.2 40.2 -36.2 8.5 -8.6 17.4 -18.3 19.9 -21.6 32.2 -42.6 41.5 -58.5 58.2 -99.1 8.8 -21.6 19.4 -64.1 21.8 -87.5 0.4 -4.7 1.3 -12.6 1.9 -17.5 3.0 -23.7 1.0 -72.5 -3.9 -96.7 -3.4 -16.6 -8.4 -36.3 -10.7 -41.6 -0.9 -2.0 -4.0 -10.4 -7.0 -18.6 -9.2 -24.9 -27.9 -58.8 -45.2 -81.6 -5.9 -7.8 -6.7 -8.0 -18.5 -4.0 Z M1449.0 1015.1 c-34.4 4.0 -79.1 39.1 -98.2 77.2 -17.3 34.6 -25.1 84.1 -17.5 111.4 0.8 2.9 1.8 8.0 2.2 11.4 7.2 62.2 68.5 132.1 136.0 155.1 22.0 7.5 23.1 7.8 36.8 9.8 135.5 20.0 246.9 -105.2 207.2 -232.7 -24.7 -79.1 -124.9 -108.9 -166.4 -49.6 -7.7 11.1 -10.3 36.7 -5.2 52.1 13.0 39.7 70.8 42.8 75.0 4.0 1.4 -13.0 10.6 -13.5 22.7 -1.4 31.4 31.4 17.9 95.4 -26.6 125.6 -23.6 16.0 -55.4 23.4 -79.7 18.4 -34.9 -7.1 -47.3 -12.6 -72.8 -32.2 -40.1 -31.0 -63.5 -93.7 -51.2 -137.2 13.7 -48.0 46.6 -83.2 92.9 -99.5 13.2 -4.6 12.8 -7.6 -1.3 -10.0 -17.9 -3.0 -39.7 -4.0 -53.9 -2.4 Z M2350.0 1016.7 c-27.4 1.8 -30.5 3.6 -15.2 9.3 48.7 18.3 81.5 52.5 93.3 97.6 3.4 12.9 4.0 50.0 1.0 59.9 -0.7 2.2 -1.9 6.5 -2.8 9.5 -12.7 45.0 -59.4 89.9 -103.3 99.4 -23.2 5.0 -27.2 5.6 -35.8 5.6 -26.3 0.1 -63.4 -16.2 -78.8 -34.6 -23.9 -28.6 -32.5 -68.2 -20.5 -94.1 12.0 -25.5 36.1 -35.6 36.1 -15.1 0.1 41.8 66.1 32.5 75.0 -10.6 13.4 -65.2 -64.9 -100.1 -128.5 -57.3 -81.1 54.7 -67.6 200.2 24.4 261.5 115.2 76.9 275.1 13.8 307.5 -121.3 1.5 -6.1 3.1 -12.6 3.6 -14.5 6.8 -23.9 1.9 -75.2 -9.9 -104.3 -11.1 -27.5 -28.3 -49.9 -53.2 -69.3 -29.9 -23.3 -38.5 -25.3 -92.9 -21.7 Z M1247.3 1025.4 c-5.7 4.2 -20.4 37.2 -28.2 63.6 -4.6 15.5 -6.0 21.9 -10.0 45.5 -3.8 23.1 -5.1 53.4 -2.8 68.0 0.9 5.5 1.9 12.2 2.2 15.0 1.1 9.9 3.6 24.1 5.6 31.2 1.0 4.0 1.9 8.1 1.9 9.0 0.0 2.6 10.0 30.9 15.3 43.3 25.7 60.6 67.9 109.7 125.8 146.3 5.8 3.7 10.9 6.7 11.3 6.7 0.4 -0.0 4.2 2.0 8.4 4.5 12.0 6.9 53.6 22.8 66.7 25.5 2.2 0.4 6.9 1.5 10.5 2.3 24.1 5.8 32.1 6.8 60.0 7.4 21.1 0.5 41.0 -0.7 53.0 -3.2 3.6 -0.8 8.3 -1.7 10.5 -2.0 2.2 -0.3 7.4 -1.5 11.5 -2.6 4.1 -1.1 10.2 -2.7 13.5 -3.6 18.9 -4.8 49.3 -17.6 67.0 -28.1 65.2 -38.8 106.2 -92.9 122.9 -162.2 10.8 -44.9 9.8 -60.6 -5.9 -92.6 -13.5 -27.2 -15.0 -27.2 -15.8 0.4 -0.7 25.8 -3.6 45.1 -10.0 67.7 -20.6 71.8 -80.9 131.3 -156.2 153.7 -20.3 6.1 -22.5 6.6 -34.0 8.2 -5.5 0.8 -12.9 1.9 -16.5 2.5 -44.2 7.3 -111.0 -10.4 -160.5 -42.4 -69.7 -45.1 -110.7 -114.8 -118.0 -201.0 -3.8 -45.1 14.7 -102.5 48.2 -149.4 9.0 -12.5 7.9 -13.7 -12.6 -12.7 -12.0 0.6 -35.7 -0.2 -55.1 -2.0 -5.0 -0.4 -7.0 -0.2 -8.7 1.0 Z M2574.5 1025.1 c-4.9 0.5 -20.7 0.8 -35.0 0.8 -14.3 -0.0 -26.6 -0.0 -27.2 -0.0 -3.0 0.2 -0.6 5.5 8.4 18.6 37.1 54.0 52.7 126.4 39.0 181.0 -0.8 3.3 -2.3 9.6 -3.3 14.0 -23.8 108.2 -139.9 196.6 -253.7 193.2 -116.5 -3.4 -214.6 -88.3 -229.7 -198.7 -0.5 -3.6 -1.3 -9.4 -1.9 -13.0 -0.5 -3.6 -1.3 -14.0 -1.7 -23.2 -1.0 -23.7 -2.6 -24.4 -12.0 -5.6 -18.6 37.1 -19.9 60.3 -6.1 111.1 23.1 85.0 105.6 161.7 194.7 181.2 3.6 0.8 11.5 2.5 17.5 3.9 21.8 4.9 61.9 7.1 82.4 4.5 40.5 -5.1 69.2 -12.5 99.1 -25.5 73.8 -31.9 132.6 -91.4 165.7 -167.7 4.3 -10.1 13.3 -36.4 13.3 -39.1 0.0 -1.1 0.9 -5.6 1.9 -10.1 14.8 -62.2 11.2 -118.7 -11.6 -182.5 -7.3 -20.2 -18.3 -40.8 -23.1 -42.9 -2.5 -1.2 -3.5 -1.2 -16.7 -0.0 Z M1841.5 1335.6 c-45.9 12.5 -69.5 72.6 -50.1 127.3 0.9 2.4 1.6 5.3 1.6 6.6 0.0 6.4 17.3 45.6 29.6 67.0 2.8 4.9 8.9 15.5 13.4 23.5 8.0 13.8 21.4 34.4 32.4 49.5 2.8 3.8 7.4 10.3 10.1 14.4 6.1 8.9 20.2 27.5 30.9 40.5 11.7 14.3 12.3 14.1 35.6 -16.9 2.5 -3.3 7.3 -9.6 10.7 -14.0 47.9 -63.3 88.9 -139.5 95.2 -177.0 0.6 -3.3 1.5 -8.7 2.1 -12.0 1.8 -10.9 1.3 -45.2 -0.9 -52.1 -1.0 -3.2 -2.4 -7.7 -3.0 -9.9 -13.5 -50.0 -80.3 -64.9 -117.4 -26.1 -11.0 11.4 -12.1 11.4 -25.4 -1.5 -10.4 -10.1 -25.0 -18.9 -31.3 -18.9 -1.5 -0.0 -4.0 -0.4 -5.6 -0.9 -7.1 -2.3 -18.6 -2.0 -27.9 0.5 Z M995.5 1511.4 c-36.0 4.7 -54.5 10.4 -85.7 26.3 -39.5 20.1 -86.1 63.8 -113.3 106.3 -2.7 4.1 -7.5 11.5 -10.7 16.5 -6.2 9.4 -24.0 44.6 -28.1 55.6 -1.4 3.5 -3.9 10.2 -5.7 14.9 -1.8 4.7 -4.1 11.2 -5.1 14.5 -1.0 3.3 -3.6 12.1 -5.9 19.5 -2.2 7.4 -4.5 16.0 -5.1 19.0 -0.6 3.0 -2.2 9.3 -3.5 13.9 -11.7 40.7 -16.5 146.6 -7.8 175.3 1.4 4.6 10.2 0.3 38.7 -19.0 7.0 -4.8 16.2 -11.0 20.5 -13.7 9.6 -6.2 17.9 -12.2 35.2 -25.1 27.2 -20.3 34.6 -24.6 37.4 -21.9 2.0 2.0 2.0 2.0 -0.3 8.6 -9.8 28.1 -31.4 66.6 -53.9 95.8 -11.6 15.1 -13.7 36.3 -9.2 92.0 1.9 23.0 3.1 35.0 4.5 43.6 0.8 4.9 1.7 11.2 2.1 14.0 3.3 28.3 19.1 92.2 25.0 101.2 8.6 13.3 56.9 -44.4 74.8 -89.4 1.3 -3.2 4.5 -11.0 7.1 -17.3 8.2 -19.9 25.1 -68.0 35.5 -101.5 15.1 -48.3 21.6 -66.0 24.3 -66.3 4.3 -0.5 4.2 6.6 -0.4 49.3 -1.0 9.9 -2.5 24.1 -3.3 31.5 -0.8 7.4 -1.7 17.5 -2.1 22.5 -0.3 4.9 -1.2 13.0 -2.0 18.0 -3.6 23.3 -4.6 30.8 -5.5 40.5 -0.5 5.8 -1.4 14.8 -2.1 20.0 -4.0 33.8 4.1 43.8 30.9 38.5 62.1 -12.2 122.2 -82.5 130.7 -152.6 0.4 -3.0 1.3 -7.9 2.0 -10.9 0.7 -3.0 1.6 -8.0 2.0 -11.0 0.6 -4.7 1.5 -9.6 4.0 -20.8 3.1 -13.6 10.1 10.6 13.0 44.8 7.9 91.9 70.7 51.9 84.6 -53.9 0.5 -3.6 1.3 -7.8 1.8 -9.5 0.5 -1.7 1.2 -6.7 1.6 -11.1 0.4 -4.4 1.3 -13.6 2.1 -20.5 3.5 -31.0 0.8 -34.3 -19.5 -23.0 -13.1 7.2 -37.3 16.6 -49.1 18.9 -25.0 4.9 -31.0 5.5 -59.0 5.5 -29.5 -0.1 -25.6 0.4 -63.5 -6.9 -50.0 -9.6 -105.1 -50.7 -127.4 -95.1 -45.6 -91.3 2.4 -209.1 94.4 -231.7 3.3 -0.9 8.3 -2.1 11.0 -2.8 53.4 -13.2 122.2 25.2 145.0 80.9 23.9 58.6 -3.3 117.3 -49.4 106.2 -18.4 -4.4 -24.9 -25.6 -13.2 -42.7 9.5 -13.8 5.3 -21.0 -15.4 -26.3 -78.0 -19.9 -109.5 104.4 -38.1 150.5 72.8 46.8 181.9 10.0 211.6 -71.4 54.4 -149.0 -92.1 -320.7 -255.5 -299.7 Z M2793.0 1511.0 c-8.5 1.0 -18.0 2.6 -21.1 3.4 -3.0 0.9 -6.5 1.6 -7.6 1.6 -6.6 -0.0 -45.3 15.0 -60.0 23.3 -141.1 79.9 -170.0 284.0 -48.9 346.1 48.8 25.0 115.9 21.6 152.4 -7.8 52.8 -42.5 41.7 -131.0 -18.3 -145.6 -27.6 -6.7 -54.5 6.7 -43.9 21.9 16.6 24.3 7.1 46.3 -20.7 47.9 -47.9 2.7 -65.9 -74.8 -29.8 -128.1 29.5 -43.6 90.7 -71.3 133.2 -60.2 3.2 0.8 6.9 1.5 8.2 1.5 1.2 -0.0 6.9 1.6 12.5 3.5 103.5 36.1 139.3 177.1 66.1 260.5 -63.0 71.8 -186.9 93.8 -273.5 48.7 -19.3 -10.1 -21.7 -10.5 -23.5 -4.1 -1.2 4.4 0.3 38.4 2.3 50.2 0.8 4.8 1.7 10.9 2.1 13.7 1.5 12.5 7.7 38.9 12.2 52.5 23.4 69.6 65.8 76.7 72.3 12.0 1.3 -12.1 4.8 -36.8 6.0 -41.5 0.5 -2.2 1.0 -5.4 1.0 -7.2 0.0 -9.6 7.3 -7.6 8.5 2.4 0.3 3.2 1.3 9.1 2.1 13.1 0.8 4.0 1.9 11.0 2.4 15.5 7.7 67.5 55.5 132.4 113.4 154.1 41.8 15.7 53.3 8.0 48.6 -32.4 -0.5 -4.7 -1.4 -13.5 -2.0 -19.5 -0.5 -6.1 -1.7 -15.1 -2.5 -20.0 -1.4 -8.9 -4.5 -35.4 -6.5 -55.5 -1.6 -17.0 -3.9 -37.3 -4.5 -39.6 -3.1 -13.1 -2.5 -44.4 0.9 -44.4 3.9 -0.0 3.0 -2.6 36.7 101.0 26.9 82.9 48.1 124.3 81.3 158.8 18.3 19.0 22.8 19.6 27.5 3.7 4.0 -13.6 8.4 -30.1 9.6 -36.0 0.7 -3.3 2.2 -10.3 3.4 -15.5 8.1 -35.9 13.2 -74.1 15.6 -117.4 2.5 -46.0 1.0 -58.6 -9.1 -72.6 -3.2 -4.5 -7.7 -10.8 -9.9 -13.9 -10.4 -14.3 -14.1 -20.1 -21.9 -33.8 -4.6 -8.2 -8.7 -15.9 -9.1 -17.3 -0.4 -1.4 -3.6 -9.1 -7.0 -17.1 -7.5 -17.4 -8.2 -20.1 -6.0 -22.3 3.2 -3.2 4.3 -2.7 21.9 10.3 7.2 5.3 20.1 14.5 28.6 20.3 8.5 5.8 18.5 12.8 22.2 15.4 3.7 2.7 11.0 7.6 16.3 10.9 5.3 3.3 13.9 8.8 19.3 12.3 24.4 15.8 24.5 15.6 25.8 -45.3 1.3 -59.1 -3.2 -94.1 -19.7 -153.5 -21.2 -76.8 -73.4 -160.0 -124.4 -198.4 -59.6 -44.9 -119.8 -63.2 -182.5 -55.6 Z M1302.7 1614.7 c-1.3 1.3 -0.7 10.0 1.2 15.9 1.0 3.2 2.6 8.6 3.6 11.9 4.8 16.6 15.8 41.4 24.2 54.3 24.4 37.9 45.6 61.8 74.0 83.8 29.0 22.4 81.7 48.6 97.2 48.4 0.9 -0.0 5.4 0.8 10.1 1.9 4.7 1.1 11.7 2.7 15.5 3.5 6.2 1.4 22.9 3.0 53.8 5.2 18.1 1.2 17.5 3.2 -6.7 23.7 -8.6 7.4 -26.5 27.4 -33.2 37.3 -14.0 20.7 -17.1 19.9 -73.6 -19.3 -32.3 -22.4 -41.1 -28.8 -51.3 -37.5 -6.1 -5.1 -15.5 -13.0 -21.0 -17.4 -5.5 -4.5 -16.8 -14.9 -25.2 -23.3 -20.8 -20.8 -24.1 -19.6 -17.9 6.6 0.7 3.2 2.1 9.4 3.1 13.8 17.0 76.1 72.0 140.1 136.6 159.0 18.9 5.5 18.4 5.0 19.2 22.5 3.6 77.5 68.7 131.2 159.2 131.3 94.7 -0.0 159.8 -76.6 132.0 -155.3 -16.5 -46.8 -82.6 -67.9 -116.5 -37.3 -20.3 18.4 -18.4 50.5 2.6 44.8 47.6 -12.9 52.1 56.3 4.8 72.5 -46.7 16.1 -107.4 -52.4 -91.9 -103.6 0.8 -2.7 1.5 -5.9 1.5 -7.1 0.0 -7.4 12.5 -34.0 20.7 -44.3 52.6 -65.8 150.8 -59.5 204.7 13.1 42.8 57.7 32.3 145.8 -24.4 204.4 -15.7 16.2 -15.7 15.9 5.5 38.7 11.0 11.8 13.4 13.5 16.6 11.8 6.5 -3.5 47.3 -70.9 56.9 -94.0 5.0 -11.8 11.4 -32.1 12.5 -39.5 0.3 -2.2 1.2 -6.9 2.0 -10.5 12.6 -59.7 -1.9 -132.7 -34.1 -171.1 -18.8 -22.4 -27.0 -30.2 -43.9 -41.6 -24.7 -16.7 -63.0 -31.8 -90.0 -35.4 -3.3 -0.5 -7.6 -1.3 -9.5 -1.9 -1.9 -0.6 -7.8 -1.5 -13.0 -2.0 -5.2 -0.5 -17.1 -1.6 -26.5 -2.4 -9.3 -0.9 -21.0 -2.1 -26.0 -2.6 -4.9 -0.6 -18.4 -1.5 -30.0 -2.1 -11.5 -0.5 -25.0 -1.6 -30.0 -2.4 -4.9 -0.8 -15.7 -2.4 -24.0 -3.5 -8.2 -1.2 -17.5 -2.7 -20.5 -3.5 -15.5 -3.8 -19.6 -4.9 -32.5 -8.6 -48.6 -14.2 -77.6 -27.0 -113.0 -49.7 -32.2 -20.7 -70.5 -54.4 -94.8 -83.5 -4.6 -5.4 -6.5 -6.6 -8.0 -5.0 Z M2514.1 1635.8 c-60.2 60.9 -111.5 93.2 -182.6 114.7 -29.5 9.0 -30.6 9.3 -40.0 11.0 -4.9 0.9 -12.4 2.2 -16.5 3.0 -4.1 0.8 -11.6 1.9 -16.7 2.4 -5.0 0.6 -11.5 1.6 -14.5 2.1 -2.9 0.6 -13.6 1.5 -23.8 2.0 -10.2 0.6 -19.6 1.2 -21.0 1.5 -1.4 0.3 -15.3 1.4 -31.0 2.5 -15.7 1.2 -32.8 2.7 -38.0 3.5 -14.7 2.2 -31.3 5.3 -34.4 6.4 -1.5 0.6 -3.7 1.1 -4.9 1.1 -5.3 -0.0 -40.9 13.2 -51.7 19.2 -79.2 44.0 -119.7 138.3 -97.2 226.4 6.0 23.3 9.6 34.8 13.5 43.5 12.0 26.3 22.8 46.6 33.4 62.9 3.0 4.7 9.1 14.1 13.5 21.0 12.8 20.0 12.0 20.0 30.8 -0.2 19.9 -21.3 19.8 -18.8 1.7 -37.0 -79.1 -79.5 -63.9 -201.1 31.1 -248.7 67.7 -34.0 152.5 3.0 171.1 74.6 19.2 74.4 -59.9 146.4 -111.3 101.2 -28.7 -25.3 -5.3 -72.6 30.2 -61.0 19.7 6.4 16.7 -29.6 -3.9 -45.9 -37.8 -29.9 -100.5 -5.9 -116.2 44.5 -17.8 57.3 17.8 120.4 79.3 140.3 104.8 34.0 205.7 -23.0 213.1 -120.3 1.5 -18.8 1.3 -18.5 14.4 -22.0 47.6 -12.7 88.3 -47.4 120.0 -102.5 12.2 -21.3 28.9 -78.3 26.1 -89.4 -1.3 -5.3 -5.5 -2.5 -29.6 19.9 -4.1 3.9 -10.2 9.3 -13.4 12.0 -25.8 21.7 -34.9 29.0 -47.5 37.8 -7.9 5.6 -20.3 14.6 -27.5 19.9 -15.6 11.6 -49.1 31.9 -54.9 33.3 -4.9 1.3 -7.9 -1.1 -16.5 -12.9 -11.2 -15.5 -27.4 -33.3 -41.2 -45.6 -12.1 -10.8 -13.8 -13.0 -11.5 -15.4 1.6 -1.5 2.9 -1.7 37.5 -4.1 11.8 -0.8 23.1 -1.9 25.0 -2.5 1.9 -0.5 6.9 -1.6 11.0 -2.4 8.0 -1.7 11.1 -2.4 26.0 -6.4 84.3 -22.3 159.1 -95.6 188.0 -184.2 10.9 -33.7 8.2 -34.6 -19.9 -6.2 Z M1295.5 1838.9 c-1.1 0.5 -4.7 4.4 -8.0 8.7 -3.2 4.4 -7.6 9.8 -9.7 12.2 -5.7 6.3 -5.8 7.0 -4.1 25.8 11.8 131.2 -43.3 273.7 -108.2 279.6 -13.1 1.2 -15.2 1.9 -16.6 5.5 -1.0 2.7 0.4 45.5 1.7 49.2 0.3 0.8 0.9 9.8 1.4 20.0 0.6 10.2 1.7 24.7 2.4 32.1 0.8 7.4 1.8 19.6 2.1 27.0 0.4 7.4 1.1 16.9 1.5 21.0 0.5 4.1 1.4 22.6 2.0 41.0 1.7 51.9 0.7 51.6 35.0 12.0 18.0 -20.7 20.3 -23.5 30.0 -37.4 4.5 -6.5 9.8 -13.9 11.6 -16.5 13.4 -18.7 30.6 -45.7 37.4 -58.5 2.6 -5.0 7.7 -14.4 11.3 -20.9 7.5 -13.4 13.6 -26.3 29.0 -61.2 6.3 -14.1 12.2 -31.5 17.9 -52.0 7.5 -27.2 7.7 -27.8 9.3 -37.5 0.7 -4.7 1.8 -10.8 2.4 -13.5 6.3 -30.4 6.1 -90.7 -0.3 -122.0 -0.8 -3.9 -2.0 -9.5 -2.5 -12.5 -0.6 -3.0 -2.2 -9.6 -3.6 -14.5 -1.4 -5.0 -2.9 -11.0 -3.4 -13.5 -0.8 -3.7 -6.6 -18.8 -13.1 -34.5 -4.4 -10.5 -17.6 -36.2 -19.5 -38.1 -2.6 -2.6 -3.0 -2.7 -6.0 -1.5 Z M2540.4 1839.8 c-6.3 4.1 -28.7 51.9 -35.0 74.5 -5.7 20.6 -9.7 40.2 -12.9 61.9 -1.8 12.5 -2.1 57.8 -0.5 67.3 0.6 3.3 1.7 11.2 2.5 17.5 6.7 55.8 36.2 140.0 65.7 187.9 2.3 3.6 5.8 9.5 7.8 13.1 15.7 27.6 20.0 34.3 36.4 57.5 29.5 41.7 63.5 80.6 70.3 80.5 4.5 -0.0 5.0 -2.6 5.7 -32.0 0.3 -13.5 1.1 -29.0 1.6 -34.5 0.6 -5.5 1.5 -17.0 2.0 -25.5 1.1 -18.8 2.5 -35.8 5.1 -63.0 1.0 -11.3 2.3 -29.1 2.9 -39.5 0.5 -10.5 1.2 -21.8 1.6 -25.2 1.3 -12.6 -1.2 -15.3 -14.4 -15.3 -40.6 -0.0 -86.1 -60.9 -101.6 -136.0 -0.9 -4.1 -2.3 -10.9 -3.1 -15.0 -7.8 -37.6 -10.2 -97.8 -5.5 -136.3 1.1 -9.1 0.6 -10.7 -6.3 -18.5 -2.3 -2.7 -7.0 -8.4 -10.5 -12.6 -6.1 -7.4 -8.7 -8.9 -11.8 -6.8 Z M1384.2 2011.3 c-4.4 5.3 -0.3 72.5 6.3 101.2 0.7 3.3 2.4 10.5 3.6 16.0 12.4 56.5 43.8 103.2 93.6 139.2 26.0 18.9 41.4 27.5 117.8 66.3 69.3 35.3 101.0 54.1 135.9 80.9 41.0 31.5 81.1 76.2 107.5 119.6 2.3 3.8 6.6 10.8 9.5 15.5 2.9 4.7 8.3 14.3 12.0 21.5 21.4 41.0 21.3 40.8 24.1 38.5 2.0 -1.6 2.0 -10.0 0.0 -18.8 -3.5 -15.5 -4.5 -20.0 -5.4 -25.3 -6.1 -34.9 -42.0 -113.7 -66.6 -146.3 -3.3 -4.4 -7.5 -10.0 -9.4 -12.5 -26.9 -36.1 -74.8 -80.0 -127.6 -116.9 -3.3 -2.3 -11.2 -7.8 -17.5 -12.2 -6.3 -4.5 -18.5 -12.7 -27.0 -18.3 -71.3 -46.9 -99.3 -66.6 -132.5 -93.4 -15.4 -12.5 -51.8 -48.9 -61.7 -61.8 -24.1 -31.2 -32.8 -44.9 -50.8 -79.5 -7.3 -14.2 -9.4 -16.6 -11.8 -13.7 Z M2449.6 2013.2 c-0.8 1.3 -3.3 6.6 -5.7 11.8 -11.1 24.9 -21.7 41.6 -46.6 73.9 -15.3 19.7 -49.2 53.2 -74.7 73.6 -26.3 21.2 -28.9 23.1 -43.1 32.7 -7.7 5.2 -19.4 13.3 -26.0 18.0 -6.6 4.6 -21.9 14.8 -34.0 22.7 -12.1 7.9 -25.8 17.0 -30.5 20.2 -4.7 3.2 -13.2 9.1 -19.0 13.1 -17.8 12.2 -30.9 21.8 -44.9 32.8 -7.3 5.8 -14.8 11.6 -16.6 13.0 -15.8 12.0 -58.6 53.7 -70.2 68.5 -2.2 2.7 -4.8 5.7 -5.8 6.5 -16.8 13.7 -54.6 83.3 -70.4 129.5 -13.1 38.3 -21.7 89.7 -14.3 85.1 0.7 -0.4 6.5 -11.4 13.0 -24.4 45.1 -90.2 91.3 -143.7 173.2 -200.4 8.4 -5.8 33.2 -20.8 34.4 -20.8 0.3 -0.0 8.0 -4.1 17.3 -9.1 9.2 -5.1 27.8 -14.8 41.3 -21.7 85.7 -43.7 99.4 -51.4 124.4 -69.5 49.2 -35.6 76.3 -75.1 92.7 -135.2 13.9 -50.7 17.9 -139.7 5.5 -120.3 Z M1918.3 2079.1 c-1.3 0.5 -3.8 3.0 -5.5 5.6 -1.8 2.5 -5.5 7.6 -8.2 11.2 -2.7 3.6 -10.2 15.1 -16.7 25.6 -6.5 10.4 -14.1 22.8 -17.0 27.4 -20.9 33.3 -18.2 58.1 11.0 101.6 17.8 26.4 22.2 33.2 29.1 44.8 9.3 15.5 10.3 15.5 19.6 -0.1 3.1 -5.3 13.3 -21.1 22.6 -35.0 19.4 -29.3 23.9 -37.8 26.9 -51.7 7.0 -32.5 -3.9 -58.1 -53.4 -125.6 -2.5 -3.5 -5.6 -4.8 -8.4 -3.8 Z M2096.3 2162.6 c-3.5 1.8 -35.1 31.9 -54.4 51.9 -51.5 53.5 -82.4 105.8 -95.9 162.0 -4.4 18.5 -6.1 27.0 -7.0 35.7 -2.7 27.0 0.3 36.1 6.6 19.5 16.1 -42.8 29.0 -65.4 55.8 -97.7 22.0 -26.6 60.7 -59.6 111.1 -94.7 23.2 -16.2 57.2 -43.0 64.3 -50.6 7.3 -8.0 6.2 -9.3 -9.0 -10.7 -22.2 -2.1 -37.9 -5.9 -56.6 -13.6 -9.3 -3.8 -10.4 -4.0 -14.9 -1.8 Z M1726.5 2166.0 c-20.2 8.1 -27.2 9.8 -45.3 11.1 -18.8 1.3 -21.6 1.8 -22.0 4.3 -1.0 4.9 23.0 24.6 81.5 67.1 17.2 12.4 33.0 24.1 35.2 25.8 61.7 49.4 91.6 86.9 114.6 143.7 10.7 26.4 14.8 25.6 11.5 -2.0 -10.5 -85.8 -53.6 -159.8 -136.8 -234.9 -24.7 -22.3 -22.7 -21.5 -38.7 -15.1 Z M1083.9 2202.7 c-1.4 1.6 -4.3 5.3 -6.4 8.3 -3.8 5.4 -17.7 21.9 -35.7 42.3 -39.9 45.5 -62.0 48.7 -112.3 16.8 -14.9 -9.5 -19.4 -6.3 -15.0 10.6 0.8 3.1 1.5 7.2 1.5 9.1 0.0 1.9 0.7 6.6 1.6 10.6 0.8 3.9 2.4 11.1 3.5 16.1 7.6 34.7 27.3 87.2 45.4 121.0 2.4 4.4 7.4 14.1 11.1 21.5 20.4 40.6 68.1 106.2 98.7 135.7 11.4 11.0 12.9 9.8 16.1 -12.7 9.7 -66.5 11.1 -177.8 3.6 -281.5 -0.6 -7.7 -1.7 -30.8 -2.5 -51.4 -1.8 -44.8 -2.2 -49.1 -5.3 -49.1 -1.0 -0.0 -3.0 1.2 -4.3 2.7 Z M2749.6 2201.7 c-0.4 0.9 -1.3 19.7 -2.1 41.8 -0.8 22.0 -2.2 49.2 -3.0 60.5 -0.8 11.3 -1.9 33.1 -2.5 48.5 -0.6 15.4 -1.5 35.0 -2.1 43.5 -2.4 35.2 0.1 129.3 4.2 158.5 0.6 4.4 1.5 12.0 1.9 17.0 1.0 10.4 3.6 26.0 5.0 29.2 2.7 6.4 14.6 -3.3 34.4 -27.9 4.1 -5.1 9.6 -12.0 12.3 -15.3 22.3 -27.7 48.8 -68.2 66.4 -101.6 27.3 -52.1 45.5 -95.6 52.7 -126.4 0.5 -2.2 2.0 -7.6 3.2 -12.0 1.9 -7.0 4.1 -18.1 7.0 -36.0 3.4 -20.2 -0.6 -22.7 -18.0 -11.0 -50.7 34.1 -76.2 26.5 -129.0 -38.1 -7.3 -8.9 -9.5 -11.7 -19.8 -25.4 -5.1 -6.9 -9.2 -8.9 -10.6 -5.3 Z M1305.0 2296.2 c-13.2 6.5 -18.0 15.4 -18.0 33.5 0.1 15.2 4.0 55.4 5.8 60.4 0.5 1.3 1.3 4.6 1.6 7.4 1.1 7.5 5.2 22.6 9.6 35.5 24.9 73.3 65.2 124.0 134.6 169.3 14.8 9.6 58.8 33.8 72.4 39.8 4.7 2.0 13.5 6.0 19.5 8.9 12.5 5.9 28.7 13.1 45.5 20.0 11.0 4.5 21.2 9.1 63.0 28.3 76.3 35.0 99.0 47.4 140.5 77.1 31.5 22.5 47.1 35.7 66.2 56.4 22.5 24.3 27.1 30.0 40.5 50.2 10.7 16.2 14.6 16.1 10.1 -0.3 -1.4 -5.1 -2.8 -10.6 -3.2 -12.2 -6.8 -27.7 -32.0 -67.5 -63.6 -100.4 -27.5 -28.6 -78.5 -67.6 -119.5 -91.2 -3.0 -1.8 -10.0 -6.0 -15.5 -9.4 -5.5 -3.4 -13.1 -8.0 -17.0 -10.2 -31.2 -17.8 -35.1 -20.0 -57.5 -32.0 -10.7 -5.8 -19.9 -10.9 -20.5 -11.3 -0.5 -0.5 -5.9 -3.4 -12.0 -6.5 -6.0 -3.2 -18.9 -10.3 -28.5 -15.8 -9.6 -5.5 -21.8 -12.5 -27.0 -15.4 -65.5 -37.4 -123.4 -86.9 -154.0 -131.7 -3.3 -4.8 -7.3 -10.5 -8.9 -12.5 -8.1 -10.3 -24.9 -42.2 -32.6 -62.0 -7.2 -18.6 -17.5 -51.5 -17.5 -56.3 -0.1 -4.0 -4.8 -20.1 -6.2 -20.9 -1.9 -1.3 -2.9 -1.1 -7.8 1.3 Z M2526.2 2296.8 c-1.0 1.0 -2.6 5.3 -3.6 9.7 -28.3 124.3 -92.3 202.1 -231.5 281.2 -29.4 16.8 -31.8 18.1 -47.6 26.8 -17.2 9.4 -41.7 22.6 -49.0 26.5 -7.7 4.0 -49.5 28.0 -54.0 31.0 -2.2 1.4 -6.7 4.1 -10.0 6.0 -5.5 3.0 -23.6 14.6 -43.0 27.6 -4.4 3.0 -11.0 7.8 -14.7 10.7 -3.6 2.8 -10.4 8.1 -14.9 11.7 -53.8 42.0 -93.1 90.8 -107.2 133.0 -13.1 39.3 -11.7 45.2 4.9 20.5 26.5 -39.4 58.9 -72.0 102.9 -103.1 56.2 -39.7 74.3 -49.1 224.0 -115.2 130.3 -57.5 185.4 -99.6 230.0 -175.7 13.2 -22.5 30.3 -67.0 33.0 -85.5 0.3 -2.5 1.3 -7.4 2.1 -11.0 4.5 -20.6 7.2 -66.6 4.4 -76.5 -3.1 -11.2 -20.4 -23.1 -25.8 -17.7 Z M2645.0 2446.3 c-2.7 1.3 -4.0 5.0 -11.9 32.7 -9.0 31.9 -28.5 78.7 -42.5 101.9 -1.9 3.1 -7.7 13.2 -12.9 22.6 -12.0 21.6 -15.6 27.6 -24.0 40.5 -3.8 5.8 -10.1 15.5 -14.0 21.7 -4.0 6.1 -9.3 14.2 -11.8 18.0 -10.0 14.6 -27.4 42.1 -30.9 48.8 -2.0 3.8 -4.9 9.1 -6.4 11.6 -17.1 29.6 -3.6 55.7 24.9 48.4 17.2 -4.5 30.8 -21.1 69.8 -85.5 5.2 -8.5 11.3 -19.1 13.7 -23.5 2.4 -4.4 7.0 -12.9 10.2 -18.9 5.2 -9.6 16.1 -33.7 27.2 -59.9 5.9 -14.0 17.6 -50.9 17.6 -55.5 0.0 -1.0 0.7 -4.5 1.6 -7.7 6.0 -22.0 10.3 -69.4 7.4 -81.4 -2.3 -9.7 -11.7 -16.9 -18.0 -13.8 Z M1187.2 2449.1 c-11.0 5.5 -12.5 13.6 -9.4 48.4 2.1 23.0 2.5 25.9 6.3 43.5 1.9 8.7 3.0 13.4 7.6 30.5 15.0 56.6 61.5 146.4 102.3 198.0 21.3 26.8 45.7 31.8 55.9 11.4 8.6 -17.2 0.7 -36.4 -41.0 -99.1 -9.0 -13.6 -20.2 -31.1 -24.9 -38.8 -4.7 -7.7 -10.9 -18.0 -13.9 -22.8 -16.6 -26.8 -45.4 -86.0 -55.6 -114.2 -8.7 -24.1 -13.0 -38.6 -15.0 -50.9 -1.3 -7.9 -4.9 -9.6 -12.3 -6.0 Z M1569.5 2808.6 c-20.8 2.8 -23.5 3.5 -37.7 10.2 -30.8 14.4 -46.7 63.4 -36.9 114.2 0.6 3.6 1.6 9.4 2.2 13.0 11.6 78.8 58.7 136.2 99.3 121.0 22.2 -8.4 25.0 -21.2 26.7 -125.0 0.6 -36.6 1.3 -72.2 1.6 -79.1 1.2 -36.7 -21.3 -58.8 -55.2 -54.3 Z M2252.0 2809.6 c-33.4 12.7 -35.0 17.4 -35.0 98.8 0.1 136.8 3.1 151.9 31.0 159.1 31.3 8.1 66.5 -22.8 82.9 -72.3 36.8 -111.9 13.1 -183.6 -61.4 -185.7 -8.8 -0.3 -16.7 -0.2 -17.5 0.1 Z M1697.7 2827.4 c-40.3 12.1 -53.8 60.7 -36.8 132.6 0.6 2.5 1.5 7.0 2.1 10.0 0.5 3.0 1.4 7.3 1.9 9.5 1.6 6.5 4.4 21.7 4.8 25.5 0.6 5.4 3.3 21.8 4.8 29.0 0.8 3.6 1.9 9.3 2.4 12.7 5.2 33.3 68.3 14.8 93.3 -27.2 24.1 -40.5 33.1 -110.9 19.0 -147.7 -13.6 -35.1 -55.0 -55.2 -91.5 -44.4 Z M2107.5 2825.7 c-24.6 3.8 -42.8 18.0 -54.6 42.6 -3.6 7.5 -5.0 12.4 -8.0 27.7 -1.6 7.8 -0.5 44.7 1.5 52.5 0.8 3.3 1.5 7.3 1.6 9.0 0.0 3.2 1.9 10.3 8.2 31.0 13.8 44.6 41.9 71.1 79.1 74.2 20.3 1.7 28.8 -7.0 31.7 -32.7 1.2 -10.8 2.7 -20.6 4.7 -29.5 0.9 -3.9 2.2 -10.2 2.9 -14.0 0.6 -3.9 1.7 -9.9 2.3 -13.5 0.7 -3.6 1.8 -9.7 2.6 -13.5 0.8 -3.9 1.9 -10.4 2.5 -14.5 0.5 -4.1 1.7 -11.3 2.6 -16.0 12.6 -68.1 -20.2 -112.2 -77.1 -103.3 Z M0.2 2822.0 c0.0 99.3 0.4 179.1 0.8 177.5 1.0 -3.9 1.0 -351.1 0.0 -355.0 -0.4 -1.7 -0.8 78.2 -0.8 177.5 Z M3838.6 2648.7 c-0.9 5.5 -0.5 328.2 0.4 331.8 0.4 1.6 0.8 -73.2 0.9 -166.3 0.0 -93.0 -0.1 -169.2 -0.3 -169.2 -0.2 -0.0 -0.6 1.7 -1.0 3.7 Z M0.1 3659.2 c-0.1 180.8 -0.1 180.8 1919.9 180.8 1920.0 -0.0 1920.0 -0.0 1919.9 -180.3 -0.1 -99.1 -0.5 -178.9 -0.9 -177.2 -0.4 1.6 -0.8 81.8 -0.9 178.0 -0.1 134.7 -0.4 175.4 -1.3 176.3 -1.8 1.8 -3831.8 1.8 -3833.6 -0.0 -0.9 -0.9 -1.2 -41.7 -1.3 -176.8 -0.1 -96.5 -0.5 -176.9 -0.9 -178.5 -0.4 -1.7 -0.8 78.3 -0.9 177.7 Z"/>
  </g>
  <g id="layer-red">
  <path fill="#c80f12" stroke="none" d="M0.1 48.7 c0.1 26.9 0.5 47.4 0.9 45.8 0.4 -1.7 0.8 -22.6 0.9 -46.6 0.1 -32.4 0.4 -43.8 1.3 -44.7 0.9 -0.9 130.2 -1.2 575.3 -1.3 315.7 -0.1 575.4 -0.5 577.0 -0.9 1.7 -0.4 -257.7 -0.8 -576.2 -0.9 -579.3 -0.1 -579.3 -0.1 -579.2 48.6 Z M2690.5 1.0 c1.7 0.4 260.0 0.8 574.1 0.9 442.6 0.1 571.3 0.4 572.2 1.3 0.9 0.9 1.2 10.7 1.3 37.3 0.1 19.8 0.5 37.3 0.9 39.0 0.4 1.6 0.8 -15.6 0.9 -38.3 0.1 -41.2 0.1 -41.2 -576.1 -41.1 -317.0 0.1 -574.9 0.5 -573.3 0.9 Z M917.7 424.2 c-1.1 0.8 -2.1 3.7 -2.8 7.8 -0.5 3.6 -1.6 9.9 -2.4 14.0 -0.8 4.1 -1.6 10.0 -1.9 13.0 -0.3 3.0 -1.3 11.6 -2.2 19.0 -1.9 16.0 -2.3 76.4 -0.5 90.0 5.8 45.8 9.3 61.9 20.1 93.5 28.4 82.4 86.0 149.0 166.0 192.0 6.9 3.7 13.0 7.0 13.5 7.5 5.2 4.1 64.3 26.3 77.0 28.9 2.2 0.5 9.4 2.2 16.0 3.9 17.6 4.3 28.3 6.3 43.5 7.7 7.4 0.8 17.8 1.8 23.0 2.4 21.7 2.3 47.8 3.1 106.5 3.1 34.1 -0.0 68.8 0.5 77.0 1.0 39.7 2.6 70.7 6.9 96.5 13.5 3.0 0.8 7.5 1.7 9.9 2.0 20.5 2.7 79.8 24.4 115.3 42.1 19.7 9.9 41.1 22.7 56.7 33.9 63.4 45.7 104.5 96.1 124.4 152.5 3.0 8.5 5.7 17.3 6.1 19.5 0.4 2.2 1.3 6.7 2.1 10.0 6.1 26.4 6.0 73.6 -0.2 83.3 -4.8 7.7 -10.6 -0.6 -28.1 -40.3 -36.6 -82.9 -78.8 -136.0 -140.7 -176.9 -25.6 -17.0 -35.9 -22.4 -68.5 -36.4 -17.1 -7.4 -43.8 -15.8 -57.5 -18.2 -2.2 -0.4 -5.8 -1.2 -8.0 -1.8 -6.6 -1.8 -29.3 -5.1 -40.0 -5.7 -5.5 -0.4 -15.8 -1.3 -23.0 -2.1 -18.0 -1.9 -55.2 -0.4 -85.5 3.6 -8.0 1.0 -23.5 2.8 -34.5 4.0 -11.0 1.1 -25.4 2.8 -32.0 3.7 -34.7 4.9 -102.4 1.2 -135.0 -7.4 -56.7 -14.8 -94.2 -33.2 -139.0 -67.9 -30.7 -23.8 -30.4 -23.8 -42.9 -1.0 -28.5 51.6 -51.9 124.5 -59.1 183.6 -0.8 6.9 -2.3 18.6 -3.2 26.0 -2.4 18.1 -2.4 73.3 0.0 88.5 0.8 5.5 1.8 13.4 2.2 17.5 0.4 4.1 1.5 12.7 2.6 19.0 1.8 11.2 2.5 14.4 7.0 35.5 7.5 34.9 32.9 95.9 51.1 122.8 8.9 13.2 30.4 41.9 38.2 51.0 10.4 12.3 9.1 14.0 -7.1 9.8 -31.6 -8.3 -59.0 -5.4 -107.0 11.3 -26.1 9.1 -84.1 42.2 -106.8 61.0 -39.2 32.4 -70.5 65.6 -92.5 98.1 -3.0 4.4 -6.9 9.8 -8.6 12.0 -5.3 6.9 -19.3 30.6 -29.9 51.0 -13.0 25.0 -31.2 75.2 -37.4 103.5 -4.6 21.1 -8.6 42.4 -9.6 51.5 -0.3 2.7 -1.2 9.9 -2.0 16.0 -6.3 48.8 -5.3 120.5 2.5 169.5 7.7 48.8 6.3 48.1 42.0 22.6 37.1 -26.6 34.6 -28.1 36.0 22.0 0.9 35.5 2.2 53.0 7.0 94.9 3.8 33.8 12.0 76.8 19.1 100.5 1.5 5.2 4.0 13.5 5.4 18.5 3.8 13.1 18.4 55.1 21.3 61.3 5.3 11.2 6.3 10.9 35.9 -13.3 22.2 -18.2 23.0 -18.1 30.2 4.5 19.4 61.0 45.4 114.1 84.7 173.0 18.3 27.5 23.9 34.9 49.7 65.4 37.7 44.7 104.6 103.5 155.2 136.4 25.2 16.4 42.0 26.8 54.9 33.8 14.6 7.8 13.1 6.4 30.7 31.1 41.7 58.6 103.9 117.5 108.3 102.5 0.3 -0.9 1.2 -7.4 2.1 -14.5 4.7 -37.2 28.6 -60.4 66.7 -64.7 37.8 -4.2 56.7 12.7 50.5 45.2 -6.4 33.5 -8.1 52.6 -7.4 81.3 0.5 19.5 2.7 46.2 4.1 50.1 13.9 38.6 0.9 62.3 -26.8 49.1 -32.5 -15.4 -61.0 -49.2 -76.7 -91.0 -4.8 -12.8 -6.9 -12.6 -28.8 3.8 -96.2 71.9 -67.0 186.2 42.4 165.7 25.1 -4.7 44.2 -11.5 84.2 -30.0 35.1 -16.3 36.6 -15.0 13.1 11.9 -33.9 38.8 -38.8 45.5 -43.7 60.2 -13.3 39.7 23.9 82.7 71.6 82.7 22.9 -0.0 58.0 -18.2 90.7 -46.9 3.3 -2.9 12.9 -10.8 21.1 -17.4 8.3 -6.6 18.4 -15.0 22.6 -18.6 7.4 -6.5 10.6 -9.2 31.9 -26.7 5.8 -4.7 12.9 -10.7 15.9 -13.3 18.9 -16.1 18.9 -8.5 0.0 22.6 -7.3 12.0 -15.2 25.3 -17.6 29.6 -5.0 8.9 -7.5 13.0 -14.8 24.2 -8.6 13.0 -24.5 38.5 -28.8 46.0 -9.3 16.5 -10.8 19.4 -12.7 25.0 -9.9 28.7 21.3 65.7 61.2 72.6 41.0 7.1 65.7 -6.0 86.9 -46.0 6.2 -11.7 7.1 -13.7 17.3 -38.1 3.1 -7.4 6.8 -15.8 8.1 -18.5 2.9 -6.0 20.5 -47.1 20.5 -47.9 0.0 -0.3 4.0 -8.9 8.9 -19.3 8.7 -18.5 11.5 -24.8 23.1 -52.8 3.2 -7.7 8.9 -21.0 12.8 -29.5 3.8 -8.6 7.4 -17.2 8.1 -19.2 3.0 -9.2 9.3 -8.5 7.3 0.9 -0.6 2.6 -1.4 7.5 -1.7 10.8 -1.2 11.3 -6.3 44.9 -9.2 59.5 -0.8 4.1 -1.8 10.6 -2.4 14.5 -0.5 3.8 -1.3 8.3 -1.9 10.0 -0.5 1.6 -1.4 6.4 -1.9 10.5 -0.5 4.1 -2.1 14.2 -3.6 22.5 -3.2 18.1 -6.4 38.5 -7.5 48.0 -0.4 3.8 -1.5 10.8 -2.3 15.5 -0.9 4.7 -2.5 14.3 -3.6 21.5 -1.1 7.1 -2.7 17.3 -3.6 22.5 -1.4 8.8 -2.1 14.3 -4.6 32.5 -3.1 22.8 6.7 48.3 25.2 66.1 21.6 20.5 64.5 35.7 86.2 30.5 64.4 -15.4 98.6 -53.4 90.7 -100.6 -0.6 -3.3 -1.9 -13.7 -3.1 -23.0 -2.9 -24.2 -4.9 -38.1 -9.0 -60.4 -1.1 -5.6 -1.9 -11.3 -1.9 -12.5 0.0 -1.1 -0.9 -5.7 -2.0 -10.1 -1.1 -4.4 -2.0 -9.7 -2.0 -11.8 0.0 -2.1 -0.6 -6.6 -1.4 -10.0 -0.8 -3.4 -2.4 -12.1 -3.5 -19.2 -1.2 -7.2 -2.8 -16.8 -3.7 -21.5 -0.8 -4.7 -1.9 -12.0 -2.4 -16.3 -0.5 -4.3 -1.2 -8.2 -1.4 -8.6 -0.5 -0.8 -4.0 -22.8 -6.1 -38.6 -0.8 -5.5 -1.8 -12.9 -2.4 -16.5 -5.1 -31.9 2.7 -23.0 23.4 26.5 6.5 15.6 17.9 42.2 33.5 78.0 10.1 23.0 17.8 41.3 24.4 57.5 35.9 88.2 69.1 111.7 125.1 88.5 53.3 -22.0 60.3 -51.1 25.1 -104.5 -2.8 -4.3 -7.7 -12.0 -10.8 -17.2 -3.2 -5.1 -9.3 -14.8 -13.5 -21.5 -4.3 -6.6 -11.7 -18.8 -16.6 -27.0 -4.8 -8.1 -11.9 -20.0 -15.8 -26.3 -16.6 -27.1 -17.2 -35.1 -1.7 -22.3 3.9 3.2 9.7 7.8 12.8 10.3 3.2 2.5 11.1 8.9 17.6 14.3 6.6 5.4 15.5 12.7 19.9 16.3 16.9 14.0 23.1 19.1 30.4 25.4 32.1 27.6 48.7 39.6 68.6 49.8 26.1 13.2 58.2 12.9 79.6 -0.9 31.7 -20.5 41.1 -55.5 23.1 -86.0 -6.1 -10.5 -25.0 -33.6 -45.4 -55.6 -7.2 -7.8 -6.4 -12.4 1.9 -10.1 4.8 1.3 23.5 9.3 28.8 12.3 53.0 30.6 118.5 36.0 150.0 12.5 46.1 -34.5 26.9 -110.0 -40.1 -157.4 -16.2 -11.6 -17.4 -11.4 -22.4 2.6 -14.3 40.3 -39.6 71.2 -71.2 87.2 -30.2 15.3 -40.8 0.8 -32.2 -43.4 1.5 -7.6 2.8 -24.9 4.0 -53.2 1.0 -21.7 -1.8 -63.6 -5.1 -79.6 -6.7 -31.3 7.0 -46.8 41.5 -46.7 44.4 0.2 74.9 30.0 75.0 73.2 0.0 13.8 6.5 12.5 27.4 -5.6 32.4 -27.9 66.0 -66.0 87.1 -98.6 8.3 -12.7 12.2 -17.1 18.2 -20.2 46.3 -23.8 99.0 -60.5 145.2 -100.9 43.1 -37.8 87.2 -87.6 116.8 -132.1 10.2 -15.2 11.7 -17.6 21.6 -33.5 15.7 -25.3 36.2 -64.5 46.9 -89.8 2.2 -5.2 5.3 -12.4 6.8 -16.0 1.5 -3.6 6.5 -17.8 11.1 -31.5 12.0 -35.9 10.5 -35.5 36.9 -11.4 22.9 20.9 27.9 22.0 33.3 7.4 7.3 -19.8 17.6 -51.5 22.7 -70.0 1.2 -4.4 3.1 -10.7 4.2 -14.0 2.6 -7.5 5.2 -19.3 9.2 -42.0 0.9 -5.0 2.3 -11.9 3.1 -15.5 5.7 -26.0 11.2 -84.6 13.4 -142.5 1.2 -31.6 1.9 -32.6 14.3 -24.2 18.1 12.4 33.1 22.7 39.8 27.4 13.8 9.9 17.1 7.1 19.5 -16.2 0.3 -3.3 1.2 -9.8 2.0 -14.5 0.8 -4.7 1.9 -13.0 2.4 -18.5 0.6 -5.5 1.5 -13.4 2.0 -17.5 10.2 -80.0 0.7 -173.9 -25.0 -248.5 -36.5 -106.2 -100.9 -189.4 -189.9 -245.2 -25.3 -15.9 -49.5 -28.4 -71.4 -36.8 -13.3 -5.1 -19.9 -7.2 -38.1 -12.0 -24.9 -6.6 -43.6 -5.6 -77.7 4.2 -3.3 1.0 -6.8 -0.6 -6.8 -3.0 0.1 -2.4 0.0 -2.3 13.5 -17.8 32.3 -37.0 58.9 -84.8 73.8 -132.9 4.8 -15.3 7.6 -25.1 8.6 -30.3 0.5 -2.3 1.9 -8.5 3.1 -13.7 2.5 -10.8 5.5 -27.1 6.9 -37.5 4.5 -32.7 4.5 -32.5 4.4 -69.5 -0.1 -37.2 -1.7 -61.0 -5.7 -83.5 -0.8 -4.4 -2.0 -10.7 -2.5 -14.0 -2.3 -12.9 -4.2 -21.4 -6.6 -30.0 -1.4 -5.0 -3.7 -13.3 -5.1 -18.5 -9.7 -36.2 -25.6 -75.3 -44.2 -109.3 -10.3 -18.8 -11.3 -18.9 -30.4 -4.1 -43.4 33.5 -76.9 51.6 -121.8 65.9 -19.0 6.0 -24.4 7.5 -26.6 7.5 -1.1 -0.0 -5.6 0.9 -10.0 1.9 -37.9 9.1 -112.6 9.4 -167.9 0.5 -46.2 -7.3 -116.3 -7.3 -154.0 0.1 -3.8 0.8 -12.4 2.3 -19.0 3.5 -17.2 2.9 -46.8 12.1 -70.0 21.5 -51.5 21.0 -100.0 55.5 -136.4 97.0 -31.3 35.7 -47.5 64.8 -79.0 141.9 -10.2 25.0 -12.8 25.9 -18.9 6.3 -2.9 -9.4 -3.8 -53.6 -1.4 -66.2 0.6 -3.3 1.6 -9.2 2.2 -13.0 10.3 -66.1 74.7 -145.9 159.4 -197.5 31.5 -19.2 80.3 -40.6 117.6 -51.5 5.2 -1.5 11.5 -3.3 14.0 -4.1 2.5 -0.7 10.4 -2.5 17.5 -3.9 7.2 -1.5 16.2 -3.5 20.0 -4.5 12.7 -3.4 30.0 -6.4 46.0 -8.0 40.7 -3.9 47.7 -4.2 123.0 -4.9 41.8 -0.3 76.5 -0.9 77.1 -1.3 0.6 -0.4 9.8 -1.2 20.5 -1.8 19.9 -1.1 35.4 -3.5 63.9 -9.6 33.2 -7.2 93.8 -28.8 104.5 -37.4 0.6 -0.4 7.3 -4.2 15.0 -8.5 52.3 -28.8 93.6 -69.7 127.2 -126.0 10.7 -18.0 22.2 -42.5 25.7 -55.0 0.8 -2.8 3.5 -12.0 5.9 -20.5 6.8 -23.4 11.0 -43.1 12.8 -58.5 0.5 -4.4 1.4 -11.2 2.1 -15.0 1.6 -9.3 1.5 -89.4 -0.1 -102.0 -0.6 -5.0 -1.6 -13.3 -2.1 -18.5 -0.6 -5.2 -1.5 -11.8 -2.1 -14.5 -0.5 -2.8 -1.2 -6.0 -1.5 -7.2 -1.5 -7.6 -4.6 -6.9 -23.0 5.3 -21.9 14.6 -71.7 44.1 -87.9 52.1 -3.3 1.7 -14.5 7.4 -25.0 12.7 -10.4 5.3 -24.4 12.1 -31.0 15.1 -6.6 2.9 -19.2 8.8 -28.0 13.0 -8.8 4.2 -20.3 9.5 -25.5 11.7 -5.2 2.2 -20.1 8.6 -33.0 14.3 -12.9 5.6 -28.2 12.1 -34.0 14.3 -5.8 2.3 -21.1 8.4 -34.0 13.7 -12.9 5.3 -30.2 12.3 -38.5 15.5 -8.2 3.2 -19.0 7.5 -24.0 9.5 -4.9 2.0 -15.3 6.1 -23.0 9.0 -7.7 3.0 -19.6 7.7 -26.5 10.6 -10.8 4.5 -21.5 8.8 -36.0 14.4 -5.6 2.2 -8.3 1.8 -21.2 -3.6 -6.8 -2.8 -16.1 -6.6 -20.8 -8.4 -4.7 -1.8 -18.3 -7.2 -30.2 -11.8 -32.1 -12.7 -105.2 -37.2 -118.8 -40.0 -3.3 -0.6 -37.5 -9.2 -47.0 -11.7 -4.1 -1.1 -9.5 -2.4 -12.0 -2.9 -2.5 -0.5 -6.5 -1.3 -9.0 -1.9 -11.4 -2.7 -18.9 -4.2 -23.0 -4.8 -2.5 -0.4 -7.0 -1.3 -10.0 -2.1 -9.0 -2.3 -27.7 -5.5 -52.0 -8.8 -5.8 -0.8 -12.7 -2.0 -15.5 -2.5 -57.4 -11.4 -220.8 -13.9 -305.6 -4.5 -7.4 0.8 -18.3 1.9 -24.4 2.5 -6.0 0.5 -15.7 1.7 -21.5 2.5 -5.8 0.9 -16.8 2.5 -24.5 3.6 -7.7 1.1 -17.4 2.7 -21.5 3.5 -4.1 0.8 -10.2 1.9 -13.5 2.4 -11.7 1.7 -25.1 4.1 -30.5 5.4 -5.5 1.4 -11.7 2.7 -24.0 5.1 -3.6 0.7 -9.0 1.9 -12.0 2.7 -7.0 1.9 -14.5 3.8 -19.0 4.8 -43.8 9.7 -124.6 36.7 -175.5 58.7 -23.2 10.0 -29.0 12.4 -31.8 13.5 -3.6 1.3 -6.2 0.6 -27.2 -7.9 -9.3 -3.8 -26.0 -10.5 -37.0 -14.8 -25.0 -9.8 -67.0 -26.7 -83.5 -33.5 -6.9 -2.9 -19.9 -8.1 -29.0 -11.5 -9.1 -3.5 -23.2 -9.2 -31.5 -12.8 -8.2 -3.5 -22.2 -9.5 -31.0 -13.2 -14.9 -6.3 -24.2 -10.5 -63.0 -28.8 -25.6 -12.0 -70.2 -34.9 -89.0 -45.7 -30.0 -17.1 -36.2 -20.9 -57.9 -35.2 -22.0 -14.6 -24.1 -15.6 -26.9 -13.6 Z m82.9 95.3 c2.8 1.2 9.3 4.7 14.5 7.7 20.4 11.8 47.1 24.5 72.4 34.4 7.7 3.0 16.5 6.6 19.6 7.9 3.1 1.4 9.7 4.1 14.5 6.1 62.1 24.9 99.6 57.9 108.9 95.8 11.0 44.9 -10.7 71.8 -48.5 60.3 -22.8 -7.0 -32.3 -17.2 -30.2 -32.2 2.3 -15.5 1.3 -19.6 -6.6 -27.5 -28.2 -28.1 -69.6 -10.3 -54.3 23.4 17.7 39.1 66.8 72.3 123.6 83.5 6.1 1.2 14.2 2.8 18.0 3.6 30.9 6.4 93.6 9.4 194.2 9.5 28.5 -0.0 29.3 -0.1 29.3 -3.6 0.0 -2.9 -1.4 -3.6 -11.5 -6.2 -61.7 -15.5 -163.5 -76.1 -163.5 -97.2 0.0 -4.9 1.5 -4.7 22.5 2.0 5.0 1.6 13.7 3.8 19.5 4.9 26.6 5.1 32.1 6.1 35.1 6.1 1.8 -0.0 8.9 0.9 15.8 1.9 6.9 1.1 21.2 2.9 31.6 4.1 18.5 2.0 22.3 2.5 46.5 5.5 17.8 2.3 36.1 5.1 52.0 8.1 8.0 1.5 17.0 3.0 20.0 3.4 4.6 0.6 21.4 4.5 43.5 10.0 21.1 5.3 65.5 20.9 84.0 29.5 120.9 56.5 202.8 135.9 252.7 244.8 11.3 24.8 12.7 27.5 14.9 28.2 3.2 1.0 6.2 -1.8 8.3 -7.6 2.9 -7.9 20.4 -43.9 26.8 -55.0 57.5 -99.4 137.7 -169.6 245.8 -215.2 11.3 -4.8 63.0 -22.0 77.0 -25.6 4.7 -1.2 11.0 -2.9 14.0 -3.6 11.5 -3.0 22.9 -5.4 33.5 -7.0 6.1 -0.9 14.6 -2.3 19.0 -3.1 8.9 -1.7 31.2 -4.9 45.0 -6.5 5.0 -0.5 10.4 -1.4 12.0 -1.9 1.7 -0.4 8.0 -1.1 14.0 -1.5 6.1 -0.3 15.1 -1.3 20.0 -2.1 5.0 -0.8 20.3 -3.0 34.0 -4.9 13.8 -1.9 30.0 -4.4 36.0 -5.5 6.1 -1.1 13.3 -2.5 16.0 -3.0 2.8 -0.4 12.0 -2.9 20.6 -5.4 21.0 -6.2 23.3 -5.8 17.9 3.2 -15.6 25.5 -92.0 70.9 -153.0 90.8 -16.0 5.2 -15.8 5.1 -16.9 7.2 -2.4 4.4 -2.6 4.4 57.0 4.3 95.9 -0.3 140.8 -3.2 174.9 -11.3 2.5 -0.6 6.5 -1.4 9.0 -1.8 40.2 -7.1 91.1 -36.3 110.5 -63.5 25.4 -35.6 8.7 -67.7 -28.0 -53.7 -18.2 6.9 -25.5 18.6 -23.1 37.2 4.8 38.2 -69.4 51.1 -80.4 14.0 -17.0 -57.1 28.2 -105.9 136.0 -147.0 6.9 -2.7 12.6 -5.2 39.5 -17.3 20.4 -9.2 45.7 -21.7 52.8 -26.1 15.8 -9.9 16.7 -8.9 17.4 19.6 1.1 45.2 -3.0 75.1 -15.9 116.1 -31.0 98.5 -121.5 165.2 -247.3 182.2 -6.0 0.9 -11.7 1.7 -12.5 2.0 -3.5 1.1 -58.0 3.6 -100.0 4.5 -25.0 0.6 -51.3 1.7 -58.5 2.5 -7.1 0.7 -16.4 1.7 -20.5 2.0 -4.1 0.3 -10.0 1.1 -13.0 1.6 -3.0 0.5 -9.5 1.4 -14.5 1.9 -4.9 0.6 -10.4 1.5 -12.1 2.0 -1.7 0.6 -5.9 1.4 -9.5 1.9 -14.7 1.9 -23.6 3.9 -64.5 14.6 -33.3 8.6 -79.9 27.3 -111.4 44.5 -6.9 3.8 -13.8 7.3 -15.2 7.9 -2.9 1.1 -18.7 10.4 -30.3 17.9 -45.3 29.1 -91.0 70.0 -121.9 109.2 -35.2 44.7 -54.7 76.6 -75.5 124.0 -7.9 17.8 -9.4 20.2 -12.5 19.8 -2.4 -0.3 -1.5 1.4 -17.2 -32.3 -41.4 -88.8 -95.1 -152.8 -179.4 -213.7 -9.6 -7.0 -38.5 -23.9 -62.1 -36.6 -24.7 -13.2 -97.2 -40.8 -114.8 -43.8 -2.0 -0.3 -5.6 -1.2 -8.1 -1.9 -5.0 -1.4 -17.9 -4.2 -34.0 -7.4 -19.6 -3.8 -26.5 -5.0 -33.0 -5.6 -3.6 -0.4 -10.1 -1.3 -14.5 -2.0 -4.4 -0.8 -12.9 -1.9 -19.0 -2.4 -6.0 -0.6 -15.0 -1.5 -20.0 -2.1 -4.9 -0.5 -20.2 -1.4 -34.0 -2.0 -13.7 -0.5 -42.5 -1.6 -64.0 -2.5 -79.1 -3.1 -109.3 -8.4 -162.5 -28.2 -38.7 -14.5 -91.1 -48.8 -104.5 -68.6 -0.5 -0.8 -4.4 -5.7 -8.6 -10.8 -25.6 -31.8 -41.7 -66.7 -50.8 -110.4 -5.6 -27.2 -7.5 -50.6 -7.0 -85.2 0.5 -26.3 0.8 -26.8 14.5 -20.8 Z m141.7 478.4 c20.8 7.2 20.7 6.1 7.6 45.5 -3.3 10.0 -6.4 20.1 -6.8 22.6 -0.5 2.5 -1.5 7.4 -2.4 11.0 -1.7 6.8 -2.2 9.5 -6.4 33.0 -3.5 19.4 -4.1 83.2 -1.0 100.5 2.7 14.8 5.5 31.4 6.2 36.5 3.1 21.6 23.8 74.8 39.1 100.8 85.8 144.8 255.7 220.8 413.9 185.0 21.3 -4.8 56.7 -15.9 66.8 -21.0 3.2 -1.6 10.8 -4.9 17.0 -7.4 17.7 -7.3 24.1 -10.8 58.8 -32.3 15.2 -9.4 17.6 -3.6 4.2 10.1 -47.8 49.1 -117.1 86.8 -185.8 101.2 -7.1 1.5 -15.5 3.4 -18.5 4.1 -23.0 5.6 -98.8 8.2 -116.4 4.0 -1.1 -0.3 -7.9 -1.2 -15.1 -2.0 -7.1 -0.8 -14.8 -1.9 -17.0 -2.4 -2.2 -0.6 -8.9 -2.0 -15.0 -3.1 -36.5 -7.2 -82.8 -25.1 -123.3 -47.9 -99.8 -55.9 -170.3 -153.6 -185.7 -257.2 -0.7 -4.7 -1.8 -11.0 -2.3 -14.0 -3.3 -17.2 -4.5 -62.2 -2.4 -89.9 2.6 -35.5 15.8 -84.2 30.9 -114.4 13.2 -26.4 36.0 -61.7 41.6 -64.4 3.1 -1.5 2.8 -1.5 12.0 1.7 Z m1569.4 -0.6 c9.2 5.1 40.0 58.2 50.7 87.3 3.0 8.2 6.1 16.6 7.0 18.6 2.3 5.3 7.3 25.0 10.7 41.6 4.9 24.2 6.9 73.0 3.9 96.7 -0.6 4.9 -1.5 12.8 -1.9 17.5 -2.4 23.4 -13.0 65.9 -21.8 87.5 -16.7 40.6 -26.0 56.5 -58.2 99.1 -2.5 3.3 -11.4 13.0 -19.9 21.6 -13.8 14.0 -20.6 20.1 -40.2 36.2 -43.7 35.9 -130.6 75.3 -182.2 82.5 -3.7 0.5 -7.2 1.2 -7.7 1.6 -0.6 0.3 -6.3 1.2 -12.8 2.0 -6.5 0.8 -14.9 1.9 -18.8 2.4 -61.2 8.1 -144.3 -3.8 -200.7 -28.7 -41.3 -18.3 -75.0 -40.6 -111.2 -73.5 -29.2 -26.6 -21.4 -28.8 16.7 -4.8 18.2 11.5 57.5 29.3 83.7 37.9 14.2 4.6 18.6 5.8 39.5 10.6 87.8 20.3 188.8 3.3 274.5 -46.1 47.2 -27.2 95.6 -72.6 125.2 -117.3 22.0 -33.2 35.5 -62.4 48.1 -104.0 2.0 -6.3 3.8 -13.5 4.2 -16.0 0.4 -2.5 1.5 -8.8 2.5 -14.0 8.0 -40.9 8.0 -103.0 0.0 -142.0 -1.1 -5.2 -2.0 -10.6 -2.0 -11.9 0.0 -1.3 -0.9 -5.8 -1.9 -10.0 -1.1 -4.2 -2.4 -9.4 -2.9 -11.6 -0.5 -2.2 -3.5 -11.9 -6.7 -21.5 -11.4 -34.9 -11.9 -32.8 9.2 -40.0 10.0 -3.4 10.0 -3.4 13.0 -1.7 Z m-1230.6 17.7 c33.8 2.7 40.6 6.3 23.1 12.5 -46.3 16.3 -79.2 51.5 -92.9 99.5 -4.9 17.5 -2.0 56.0 5.7 75.6 21.4 53.9 79.4 95.4 133.3 95.4 60.1 -0.0 108.0 -44.9 108.1 -101.5 0.0 -26.8 -16.1 -52.4 -33.0 -52.5 -4.1 -0.0 -5.7 2.4 -6.5 9.8 -4.2 38.8 -62.0 35.7 -75.0 -4.0 -10.6 -32.3 4.8 -64.1 37.6 -77.5 77.3 -31.7 154.2 51.9 139.9 152.2 -15.4 107.2 -132.6 184.1 -231.6 151.9 -61.1 -19.9 -93.4 -43.2 -125.3 -90.4 -12.7 -18.8 -27.0 -53.7 -29.0 -70.9 -0.4 -3.4 -1.4 -8.5 -2.2 -11.4 -11.9 -42.7 9.3 -113.9 43.8 -147.3 36.6 -35.3 60.2 -44.8 104.0 -41.4 Z m926.5 2.9 c18.7 6.5 47.7 27.5 60.8 44.0 26.5 33.5 38.3 64.9 40.2 106.6 0.6 14.1 -0.7 37.0 -2.6 43.5 -0.5 1.9 -2.1 8.4 -3.6 14.5 -30.2 125.9 -172.3 191.3 -288.5 132.9 -128.2 -64.3 -128.8 -267.2 -1.0 -290.5 53.8 -9.8 95.9 26.8 86.1 74.7 -8.9 43.1 -74.9 52.4 -75.0 10.6 0.0 -15.9 -16.2 -14.0 -29.1 3.4 -39.7 53.7 17.4 140.5 92.3 140.4 8.6 -0.0 12.6 -0.6 35.8 -5.6 43.9 -9.5 90.6 -54.4 103.3 -99.4 0.9 -3.0 2.1 -7.3 2.8 -9.5 3.0 -9.9 2.4 -47.0 -1.0 -59.9 -11.8 -45.1 -44.6 -79.3 -93.3 -97.6 -15.3 -5.7 -12.2 -7.5 15.2 -9.3 36.7 -2.4 48.0 -2.2 57.6 1.2 Z m-1127.6 8.2 c9.6 0.5 23.6 0.7 31.1 0.3 20.5 -1.0 21.6 0.2 12.6 12.7 -33.5 46.9 -52.0 104.3 -48.2 149.4 7.3 86.2 48.3 155.9 118.0 201.0 49.5 32.0 116.3 49.7 160.5 42.4 3.6 -0.6 11.0 -1.7 16.5 -2.5 11.5 -1.6 13.7 -2.1 34.0 -8.2 75.3 -22.4 135.6 -81.9 156.2 -153.7 6.4 -22.6 9.3 -41.9 10.0 -67.7 0.8 -27.6 2.3 -27.6 15.8 -0.4 13.4 27.3 16.0 46.7 10.1 74.1 -9.1 42.2 -19.7 70.0 -37.0 96.5 -34.4 52.6 -96.1 96.7 -157.1 112.3 -3.3 0.9 -9.4 2.5 -13.5 3.6 -4.1 1.1 -9.3 2.3 -11.5 2.6 -2.2 0.3 -6.9 1.2 -10.5 2.0 -12.0 2.5 -31.9 3.7 -53.0 3.2 -27.9 -0.6 -35.9 -1.6 -60.0 -7.4 -3.6 -0.8 -8.3 -1.9 -10.5 -2.3 -13.1 -2.7 -54.7 -18.6 -66.7 -25.5 -4.2 -2.5 -8.0 -4.5 -8.4 -4.5 -0.4 -0.0 -5.5 -3.0 -11.3 -6.7 -57.9 -36.6 -100.1 -85.7 -125.8 -146.3 -5.3 -12.4 -15.3 -40.7 -15.3 -43.3 0.0 -0.9 -0.9 -5.0 -1.9 -9.0 -2.0 -7.1 -4.5 -21.3 -5.6 -31.2 -0.3 -2.8 -1.3 -9.5 -2.2 -15.0 -1.7 -10.8 -1.3 -36.5 0.8 -53.5 5.5 -44.6 17.2 -84.0 34.0 -114.6 5.4 -9.8 6.7 -10.7 14.9 -10.0 3.6 0.4 14.4 1.1 24.0 1.7 Z m1311.2 -1.0 c4.8 2.1 15.8 22.7 23.1 42.9 22.8 63.8 26.4 120.3 11.6 182.5 -1.0 4.5 -1.9 9.0 -1.9 10.1 0.0 2.7 -9.0 29.0 -13.3 39.1 -23.2 53.4 -57.2 96.9 -101.7 129.9 -26.0 19.3 -39.1 27.0 -64.0 37.8 -29.9 13.0 -58.6 20.4 -99.1 25.5 -20.5 2.6 -60.6 0.4 -82.4 -4.5 -6.0 -1.4 -13.9 -3.1 -17.5 -3.9 -19.2 -4.2 -49.4 -16.0 -69.4 -27.2 -70.7 -39.5 -120.1 -108.2 -131.6 -182.8 -5.7 -37.6 -3.9 -49.9 12.4 -82.3 9.4 -18.8 11.0 -18.1 12.0 5.6 0.4 9.2 1.2 19.6 1.7 23.2 0.6 3.6 1.4 9.4 1.9 13.0 15.1 110.4 113.2 195.3 229.7 198.7 113.8 3.4 229.9 -85.0 253.7 -193.2 1.0 -4.4 2.5 -10.7 3.3 -14.0 13.7 -54.6 -1.9 -127.0 -39.0 -181.0 -9.0 -13.1 -11.4 -18.4 -8.4 -18.6 0.6 -0.0 12.9 -0.0 27.2 -0.0 14.3 -0.0 30.1 -0.3 35.0 -0.8 13.2 -1.2 14.2 -1.2 16.7 -0.0 Z m-721.8 310.0 c1.6 0.5 4.1 0.9 5.6 0.9 6.3 -0.0 20.9 8.8 31.3 18.9 13.3 12.9 14.4 12.9 25.4 1.5 37.1 -38.8 103.9 -23.9 117.4 26.1 0.6 2.2 2.0 6.7 3.0 9.9 2.2 6.9 2.7 41.2 0.9 52.1 -0.6 3.3 -1.5 8.7 -2.1 12.0 -4.2 25.1 -23.3 66.9 -51.7 113.4 -6.1 9.9 -36.0 53.6 -43.5 63.6 -3.4 4.4 -8.2 10.7 -10.7 14.0 -23.3 31.0 -23.9 31.2 -35.6 16.9 -10.7 -13.0 -24.8 -31.6 -30.9 -40.5 -2.7 -4.1 -7.3 -10.6 -10.1 -14.4 -11.0 -15.1 -24.4 -35.7 -32.4 -49.5 -4.5 -8.0 -10.6 -18.6 -13.4 -23.5 -12.3 -21.4 -29.6 -60.6 -29.6 -67.0 0.0 -1.3 -0.7 -4.2 -1.6 -6.6 -24.0 -67.6 23.3 -145.1 78.0 -127.8 Z m-823.9 175.9 c177.5 21.0 283.9 237.4 172.5 351.1 -60.1 61.3 -183.4 50.5 -211.5 -18.6 -24.9 -61.3 16.0 -125.6 71.0 -111.5 20.7 5.3 24.9 12.5 15.4 26.3 -21.6 31.4 18.7 59.6 49.8 34.9 48.1 -38.3 15.0 -136.8 -56.7 -169.2 -24.6 -11.1 -55.0 -15.1 -75.5 -10.1 -2.7 0.7 -7.7 1.9 -11.0 2.8 -92.0 22.6 -140.0 140.4 -94.4 231.7 22.3 44.4 77.4 85.5 127.4 95.1 37.9 7.3 34.0 6.8 63.5 6.9 28.0 -0.0 34.0 -0.6 59.0 -5.5 11.8 -2.3 36.0 -11.7 49.1 -18.9 20.3 -11.3 23.0 -8.0 19.5 23.0 -0.8 6.9 -1.7 16.1 -2.1 20.5 -0.4 4.4 -1.1 9.4 -1.6 11.1 -0.5 1.7 -1.3 5.9 -1.8 9.5 -6.3 48.3 -31.8 100.7 -51.5 106.0 -18.1 4.9 -29.8 -13.5 -33.1 -52.1 -0.9 -10.6 -5.3 -39.9 -6.6 -43.8 -1.3 -4.0 -5.5 -4.6 -6.4 -1.0 -2.5 11.2 -3.4 16.1 -4.0 20.8 -0.4 3.0 -1.3 8.0 -2.0 11.0 -0.7 3.0 -1.6 7.9 -2.0 10.9 -8.5 70.1 -68.6 140.4 -130.7 152.6 -26.8 5.3 -34.9 -4.7 -30.9 -38.5 0.7 -5.2 1.6 -14.2 2.1 -20.0 0.9 -9.7 1.9 -17.2 5.5 -40.5 0.8 -5.0 1.7 -13.1 2.0 -18.0 0.4 -5.0 1.3 -15.1 2.1 -22.5 0.8 -7.4 2.3 -21.6 3.3 -31.5 4.6 -42.7 4.7 -49.8 0.4 -49.3 -2.7 0.3 -9.2 18.0 -24.3 66.3 -10.4 33.5 -27.3 81.6 -35.5 101.5 -2.6 6.3 -5.8 14.1 -7.1 17.3 -17.9 45.0 -66.2 102.7 -74.8 89.4 -5.9 -9.0 -21.7 -72.9 -25.0 -101.2 -0.4 -2.8 -1.3 -9.1 -2.1 -14.0 -0.8 -5.0 -1.9 -14.4 -2.5 -21.0 -6.9 -76.2 -5.6 -97.9 7.2 -114.6 22.5 -29.2 44.1 -67.7 53.9 -95.8 2.3 -6.6 2.3 -6.6 0.3 -8.6 -2.8 -2.7 -10.2 1.6 -37.4 21.9 -17.3 12.9 -25.6 18.9 -35.2 25.1 -4.3 2.7 -13.5 8.9 -20.5 13.7 -28.5 19.3 -37.3 23.6 -38.7 19.0 -8.7 -28.7 -3.9 -134.6 7.8 -175.3 1.3 -4.6 2.9 -10.9 3.5 -13.9 0.6 -3.0 2.9 -11.6 5.1 -19.0 2.3 -7.4 4.9 -16.2 5.9 -19.5 1.0 -3.3 3.3 -9.8 5.1 -14.5 1.8 -4.7 4.3 -11.4 5.7 -14.9 4.1 -11.0 21.9 -46.2 28.1 -55.6 3.2 -5.0 8.0 -12.4 10.7 -16.5 41.6 -64.9 114.0 -118.3 175.0 -129.1 32.1 -5.7 50.5 -6.7 74.0 -3.9 Z m1800.0 0.4 c51.5 6.8 84.1 20.7 130.0 55.2 51.0 38.4 103.2 121.6 124.4 198.4 16.5 59.4 21.0 94.4 19.7 153.5 -1.3 60.9 -1.4 61.1 -25.8 45.3 -5.4 -3.5 -14.0 -9.0 -19.3 -12.3 -5.3 -3.3 -12.6 -8.2 -16.3 -10.9 -3.7 -2.6 -13.7 -9.6 -22.2 -15.4 -8.5 -5.8 -21.4 -15.0 -28.6 -20.3 -17.6 -13.0 -18.7 -13.5 -21.9 -10.3 -2.2 2.2 -1.5 4.9 6.0 22.3 3.4 8.0 6.6 15.7 7.0 17.1 0.4 1.4 4.5 9.1 9.1 17.3 7.8 13.7 11.5 19.5 21.9 33.8 19.1 26.7 18.1 24.3 19.5 44.7 2.0 30.9 -3.0 90.3 -11.5 136.7 -1.3 7.1 -3.4 17.3 -4.6 22.5 -1.2 5.2 -2.7 12.2 -3.4 15.5 -1.2 5.9 -5.6 22.4 -9.6 36.0 -4.7 15.9 -9.2 15.3 -27.5 -3.7 -33.2 -34.5 -54.4 -75.9 -81.3 -158.8 -33.7 -103.6 -32.8 -101.0 -36.7 -101.0 -3.4 -0.0 -4.0 31.3 -0.9 44.4 0.6 2.3 2.9 22.6 4.5 39.6 2.0 20.1 5.1 46.6 6.5 55.5 0.8 4.9 2.0 13.9 2.5 20.0 0.6 6.0 1.5 14.8 2.0 19.5 3.2 27.5 1.3 35.7 -8.9 37.9 -31.0 6.6 -77.7 -18.6 -111.7 -60.4 -20.8 -25.5 -37.6 -65.7 -41.4 -99.2 -0.5 -4.5 -1.6 -11.5 -2.4 -15.5 -0.8 -4.0 -1.8 -9.9 -2.1 -13.1 -1.2 -10.0 -8.5 -12.0 -8.5 -2.4 0.0 1.8 -0.5 5.0 -1.0 7.2 -1.2 4.7 -4.7 29.4 -6.0 41.5 -6.5 64.7 -48.9 57.6 -72.3 -12.0 -4.5 -13.6 -10.7 -40.0 -12.2 -52.5 -0.4 -2.8 -1.3 -8.9 -2.1 -13.7 -2.0 -11.8 -3.5 -45.8 -2.3 -50.2 1.8 -6.4 4.2 -6.0 23.5 4.1 99.9 52.1 245.3 13.6 293.7 -77.7 41.2 -77.9 8.7 -186.7 -67.0 -223.4 -10.3 -5.1 -28.3 -11.6 -31.8 -11.6 -1.3 -0.0 -5.0 -0.7 -8.2 -1.5 -42.5 -11.1 -103.7 16.6 -133.2 60.2 -36.1 53.3 -18.1 130.8 29.8 128.1 27.8 -1.6 37.3 -23.6 20.7 -47.9 -10.6 -15.2 16.3 -28.6 43.9 -21.9 60.0 14.6 71.1 103.1 18.3 145.6 -36.5 29.4 -103.6 32.8 -152.4 7.8 -121.1 -62.1 -92.2 -266.2 48.9 -346.1 14.7 -8.3 53.4 -23.3 60.0 -23.3 1.1 -0.0 4.6 -0.7 7.6 -1.6 17.4 -4.8 49.7 -6.1 73.6 -3.0 Z m-1534.8 108.3 c58.3 69.7 133.2 115.3 228.3 138.9 3.6 0.8 9.0 2.2 12.0 2.9 3.0 0.8 12.3 2.3 20.5 3.5 8.3 1.1 19.1 2.7 24.0 3.5 5.0 0.8 18.5 1.9 30.0 2.4 11.6 0.6 25.1 1.5 30.0 2.1 5.0 0.5 16.7 1.7 26.0 2.6 9.4 0.8 21.3 1.9 26.5 2.4 5.2 0.5 11.1 1.4 13.0 2.0 1.9 0.6 6.2 1.4 9.5 1.9 27.0 3.6 65.3 18.7 90.0 35.4 16.9 11.4 25.1 19.2 43.9 41.6 32.2 38.4 46.7 111.4 34.1 171.1 -0.8 3.6 -1.7 8.3 -2.0 10.5 -1.1 7.4 -7.5 27.7 -12.5 39.5 -9.6 23.1 -50.4 90.5 -56.9 94.0 -3.2 1.7 -5.6 -0.0 -16.6 -11.8 -21.2 -22.8 -21.2 -22.5 -5.5 -38.7 72.0 -74.4 66.8 -184.8 -11.3 -238.9 -56.5 -39.1 -127.8 -30.1 -169.0 21.4 -8.2 10.3 -20.7 36.9 -20.7 44.3 0.0 1.2 -0.7 4.4 -1.5 7.1 -15.5 51.2 45.2 119.7 91.9 103.6 47.3 -16.2 42.8 -85.4 -4.8 -72.5 -21.0 5.7 -22.9 -26.4 -2.6 -44.8 33.9 -30.6 100.0 -9.5 116.5 37.3 27.8 78.7 -37.3 155.3 -132.0 155.3 -90.5 -0.1 -155.6 -53.8 -159.2 -131.3 -0.8 -17.5 -0.3 -17.0 -19.2 -22.5 -64.6 -18.9 -119.6 -82.9 -136.6 -159.0 -1.0 -4.4 -2.4 -10.6 -3.1 -13.8 -6.2 -26.2 -2.9 -27.4 17.9 -6.6 8.4 8.4 19.7 18.8 25.2 23.3 5.5 4.4 14.9 12.3 21.0 17.4 19.0 16.2 67.9 49.8 97.1 66.6 14.5 8.4 15.9 7.9 27.8 -9.8 6.7 -9.9 24.6 -29.9 33.2 -37.3 24.2 -20.5 24.8 -22.5 6.7 -23.7 -30.9 -2.2 -47.6 -3.8 -53.8 -5.2 -3.8 -0.8 -10.8 -2.4 -15.5 -3.5 -4.7 -1.1 -9.2 -1.9 -10.1 -1.9 -15.5 0.2 -68.2 -26.0 -97.2 -48.4 -28.4 -22.0 -49.6 -45.9 -74.0 -83.8 -8.4 -12.9 -19.4 -37.7 -24.2 -54.3 -1.0 -3.3 -2.6 -8.7 -3.6 -11.9 -4.9 -15.4 -1.5 -20.7 6.8 -10.9 Z m1228.7 -3.1 c1.5 3.9 -5.1 26.6 -13.5 46.8 -33.6 79.8 -102.8 142.4 -179.9 162.8 -14.9 4.0 -18.0 4.7 -26.0 6.4 -4.1 0.8 -9.1 1.9 -11.0 2.4 -1.9 0.6 -13.2 1.7 -25.0 2.5 -34.6 2.4 -35.9 2.6 -37.5 4.1 -2.3 2.4 -0.6 4.6 11.5 15.4 13.8 12.3 30.0 30.1 41.2 45.6 8.6 11.8 11.6 14.2 16.5 12.9 5.8 -1.4 39.3 -21.7 54.9 -33.3 7.2 -5.3 19.6 -14.3 27.5 -19.9 12.6 -8.8 21.7 -16.1 47.5 -37.8 3.2 -2.7 9.3 -8.1 13.4 -12.0 24.1 -22.4 28.3 -25.2 29.6 -19.9 2.8 11.1 -13.9 68.1 -26.1 89.4 -31.7 55.1 -72.4 89.8 -120.0 102.5 -13.1 3.5 -12.9 3.2 -14.4 22.0 -7.4 97.3 -108.3 154.3 -213.1 120.3 -61.5 -19.9 -97.1 -83.0 -79.3 -140.3 15.7 -50.4 78.4 -74.4 116.2 -44.5 20.6 16.3 23.6 52.3 3.9 45.9 -35.5 -11.6 -58.9 35.7 -30.2 61.0 51.4 45.2 130.5 -26.8 111.3 -101.2 -18.6 -71.6 -103.4 -108.6 -171.1 -74.6 -95.0 47.6 -110.2 169.2 -31.1 248.7 18.1 18.2 18.2 15.7 -1.7 37.0 -18.8 20.2 -18.0 20.2 -30.8 0.2 -4.4 -6.9 -10.5 -16.3 -13.5 -21.0 -10.6 -16.3 -21.4 -36.6 -33.4 -62.9 -3.9 -8.7 -7.5 -20.2 -13.5 -43.5 -22.5 -88.1 18.0 -182.4 97.2 -226.4 10.8 -6.0 46.4 -19.2 51.7 -19.2 1.2 -0.0 3.4 -0.5 4.9 -1.1 3.1 -1.1 19.7 -4.2 34.4 -6.4 5.2 -0.8 22.3 -2.3 38.0 -3.5 15.7 -1.1 29.6 -2.2 31.0 -2.5 1.4 -0.3 10.8 -0.9 21.0 -1.5 10.2 -0.5 20.9 -1.4 23.8 -2.0 3.0 -0.5 9.5 -1.5 14.5 -2.1 5.1 -0.5 12.6 -1.6 16.7 -2.4 4.1 -0.8 11.6 -2.1 16.5 -3.0 9.4 -1.7 10.5 -2.0 40.0 -11.0 71.1 -21.5 122.4 -53.8 182.6 -114.7 20.3 -20.5 23.8 -23.2 25.3 -19.2 Z m-1237.9 223.8 c1.9 1.9 15.1 27.6 19.5 38.1 6.5 15.7 12.3 30.8 13.1 34.5 0.5 2.5 2.0 8.5 3.4 13.5 1.4 4.9 3.0 11.5 3.6 14.5 0.5 3.0 1.7 8.6 2.5 12.5 6.4 31.3 6.6 91.6 0.3 122.0 -0.6 2.7 -1.7 8.8 -2.4 13.5 -1.6 9.7 -1.8 10.3 -9.3 37.5 -5.7 20.5 -11.6 37.9 -17.9 52.0 -15.4 34.9 -21.5 47.8 -29.0 61.2 -3.6 6.5 -8.7 15.9 -11.3 20.9 -6.8 12.8 -24.0 39.8 -37.4 58.5 -1.8 2.6 -7.1 10.0 -11.6 16.5 -9.7 13.9 -12.0 16.7 -30.0 37.4 -34.3 39.6 -33.3 39.9 -35.0 -12.0 -0.6 -18.4 -1.5 -36.9 -2.0 -41.0 -0.4 -4.1 -1.1 -13.6 -1.5 -21.0 -0.3 -7.4 -1.3 -19.6 -2.1 -27.0 -0.7 -7.4 -1.8 -21.9 -2.4 -32.1 -0.5 -10.2 -1.1 -19.2 -1.4 -20.0 -1.3 -3.7 -2.7 -46.5 -1.7 -49.2 1.4 -3.6 3.5 -4.3 16.6 -5.5 43.9 -4.0 82.1 -63.7 101.0 -157.7 7.1 -35.5 10.2 -88.2 7.2 -121.9 -1.7 -18.8 -1.6 -19.5 4.1 -25.8 2.1 -2.4 6.5 -7.8 9.7 -12.2 5.2 -6.9 8.0 -9.3 10.8 -9.5 0.4 -0.1 1.9 1.0 3.2 2.3 Z m1250.7 6.2 c3.5 4.2 8.2 9.9 10.5 12.6 6.9 7.8 7.4 9.4 6.3 18.5 -4.7 38.5 -2.3 98.7 5.5 136.3 0.8 4.1 2.2 10.9 3.1 15.0 15.5 75.1 61.0 136.0 101.6 136.0 13.2 -0.0 15.7 2.7 14.4 15.3 -0.4 3.4 -1.1 14.7 -1.6 25.2 -0.6 10.4 -1.9 28.2 -2.9 39.5 -2.6 27.2 -4.0 44.2 -5.1 63.0 -0.5 8.5 -1.4 20.0 -2.0 25.5 -0.5 5.5 -1.3 21.0 -1.6 34.5 -0.7 29.4 -1.2 32.0 -5.7 32.0 -6.8 0.1 -40.8 -38.8 -70.3 -80.5 -16.4 -23.2 -20.7 -29.9 -36.4 -57.5 -2.0 -3.6 -5.5 -9.5 -7.8 -13.1 -4.7 -7.7 -16.1 -30.3 -23.9 -47.4 -21.5 -47.0 -36.7 -98.4 -41.8 -140.5 -0.8 -6.3 -1.9 -14.2 -2.5 -17.5 -4.9 -28.6 0.8 -83.4 13.4 -129.2 5.1 -18.2 20.3 -52.7 30.0 -67.8 6.6 -10.2 8.3 -10.2 16.8 0.1 Z m-1156.2 178.4 c18.0 34.6 26.7 48.3 50.8 79.5 9.9 12.9 46.3 49.3 61.7 61.8 33.2 26.8 61.2 46.5 132.5 93.4 8.5 5.6 20.7 13.8 27.0 18.3 6.3 4.4 14.2 9.9 17.5 12.2 52.8 36.9 100.7 80.8 127.6 116.9 1.9 2.5 6.1 8.1 9.4 12.5 24.6 32.6 60.5 111.4 66.6 146.3 0.9 5.3 1.9 9.8 5.4 25.3 2.0 8.8 2.0 17.2 0.0 18.8 -2.8 2.3 -2.7 2.5 -24.1 -38.5 -3.7 -7.2 -9.1 -16.8 -12.0 -21.5 -2.9 -4.7 -7.2 -11.7 -9.5 -15.5 -26.4 -43.4 -66.5 -88.1 -107.5 -119.6 -34.9 -26.8 -66.6 -45.6 -135.9 -80.9 -76.4 -38.8 -91.8 -47.4 -117.8 -66.3 -49.8 -36.0 -81.2 -82.7 -93.6 -139.2 -1.2 -5.5 -2.9 -12.7 -3.6 -16.0 -4.7 -20.5 -9.3 -72.5 -8.1 -90.4 1.2 -16.8 3.7 -16.3 13.6 2.9 Z m1058.9 -12.6 c6.2 7.5 -0.6 83.6 -10.8 121.1 -16.4 60.1 -43.5 99.6 -92.7 135.2 -25.0 18.1 -38.7 25.8 -124.4 69.5 -13.5 6.9 -32.1 16.6 -41.3 21.7 -9.3 5.0 -17.0 9.1 -17.3 9.1 -1.2 -0.0 -26.0 15.0 -34.4 20.8 -81.9 56.7 -128.1 110.2 -173.2 200.4 -17.3 34.7 -20.0 32.1 -11.7 -11.7 11.3 -59.4 56.8 -156.9 83.4 -178.5 1.0 -0.8 3.6 -3.8 5.8 -6.5 11.6 -14.8 54.4 -56.5 70.2 -68.5 1.8 -1.4 9.3 -7.2 16.6 -13.0 14.0 -11.0 27.1 -20.6 44.9 -32.8 5.8 -4.0 14.3 -9.9 19.0 -13.1 4.7 -3.2 18.4 -12.3 30.5 -20.2 12.1 -7.9 27.4 -18.1 34.0 -22.7 6.6 -4.7 18.3 -12.8 26.0 -18.0 14.2 -9.6 16.8 -11.5 43.1 -32.7 25.5 -20.4 59.4 -53.9 74.7 -73.6 24.9 -32.3 35.5 -49.0 46.6 -73.9 6.4 -14.3 8.1 -16.2 11.0 -12.6 Z m-528.2 70.5 c67.2 91.6 70.2 111.6 26.5 177.3 -9.3 13.9 -19.5 29.7 -22.6 35.0 -9.3 15.6 -10.3 15.6 -19.6 0.1 -6.9 -11.6 -11.3 -18.4 -29.1 -44.8 -29.2 -43.5 -31.9 -68.3 -11.0 -101.6 2.9 -4.6 10.5 -17.0 17.0 -27.4 6.5 -10.5 14.0 -22.0 16.7 -25.6 2.7 -3.6 6.4 -8.7 8.2 -11.2 4.9 -7.3 9.5 -7.9 13.9 -1.8 Z m184.5 81.5 c18.7 7.7 34.4 11.5 56.6 13.6 15.2 1.4 16.3 2.7 9.0 10.7 -7.1 7.6 -41.1 34.4 -64.3 50.6 -38.0 26.5 -77.0 58.0 -96.1 77.8 -32.8 34.2 -52.4 65.9 -70.8 114.6 -6.3 16.6 -9.3 7.5 -6.6 -19.5 0.9 -8.7 2.6 -17.2 7.0 -35.7 16.0 -66.9 50.5 -119.2 127.8 -193.7 25.1 -24.1 24.4 -23.8 37.4 -18.4 Z m-366.6 -1.1 c4.6 2.6 39.7 35.2 52.6 48.8 59.3 62.7 89.1 116.8 101.7 184.4 8.1 43.8 4.4 53.3 -8.4 21.5 -23.0 -56.8 -52.9 -94.3 -114.6 -143.7 -2.2 -1.7 -18.0 -13.4 -35.2 -25.8 -58.5 -42.5 -82.5 -62.2 -81.5 -67.1 0.4 -2.5 3.2 -3.0 22.0 -4.3 18.1 -1.3 25.1 -3.0 45.3 -11.1 10.4 -4.1 14.6 -4.7 18.1 -2.7 Z m-654.2 38.9 c1.4 6.5 1.7 12.4 3.1 46.9 0.8 20.6 1.9 43.7 2.5 51.4 7.5 103.7 6.1 215.0 -3.6 281.5 -3.2 22.5 -4.7 23.7 -16.1 12.7 -30.6 -29.5 -78.3 -95.1 -98.7 -135.7 -3.7 -7.4 -8.7 -17.1 -11.1 -21.5 -18.1 -33.8 -37.8 -86.3 -45.4 -121.0 -1.1 -5.0 -2.7 -12.2 -3.5 -16.1 -0.9 -4.0 -1.6 -8.7 -1.6 -10.6 0.0 -1.9 -0.7 -6.0 -1.5 -9.1 -2.4 -9.4 -1.9 -15.2 1.5 -15.7 3.7 -0.6 6.1 0.3 13.5 5.1 50.3 31.9 72.4 28.7 112.3 -16.8 18.0 -20.4 31.9 -36.9 35.7 -42.3 7.6 -10.9 11.9 -13.8 12.9 -8.8 Z m1669.8 4.8 c10.3 13.7 12.5 16.5 19.8 25.4 52.8 64.6 78.3 72.2 129.0 38.1 17.4 -11.7 21.4 -9.2 18.0 11.0 -2.9 17.9 -5.1 29.0 -7.0 36.0 -1.2 4.4 -2.7 9.8 -3.2 12.0 -7.2 30.8 -25.4 74.3 -52.7 126.4 -17.6 33.4 -44.1 73.9 -66.4 101.6 -2.7 3.3 -8.2 10.2 -12.3 15.3 -19.8 24.6 -31.7 34.3 -34.4 27.9 -1.4 -3.2 -4.0 -18.8 -5.0 -29.2 -0.4 -5.0 -1.3 -12.6 -1.9 -17.0 -4.1 -29.2 -6.6 -123.3 -4.2 -158.5 0.6 -8.5 1.5 -28.1 2.1 -43.5 0.6 -15.4 1.7 -37.2 2.5 -48.5 0.8 -11.3 2.2 -38.5 3.0 -60.5 1.8 -49.8 2.1 -50.7 12.7 -36.5 Z m-1447.4 87.9 c1.4 0.8 6.1 16.9 6.2 20.9 0.0 4.8 10.3 37.7 17.5 56.3 7.7 19.8 24.5 51.7 32.6 62.0 1.6 2.0 5.6 7.7 8.9 12.5 30.6 44.8 88.5 94.3 154.0 131.7 5.2 2.9 17.4 9.9 27.0 15.4 9.6 5.5 22.5 12.6 28.5 15.8 6.1 3.1 11.5 6.0 12.0 6.5 0.6 0.4 9.8 5.5 20.5 11.3 22.4 12.0 26.3 14.2 57.5 32.0 3.9 2.2 11.5 6.8 17.0 10.2 5.5 3.4 12.5 7.6 15.5 9.4 41.0 23.6 92.0 62.6 119.5 91.2 31.6 32.9 56.8 72.7 63.6 100.4 0.4 1.6 1.8 7.1 3.2 12.2 4.5 16.4 0.6 16.5 -10.1 0.3 -13.4 -20.2 -18.0 -25.9 -40.5 -50.2 -27.5 -29.7 -65.0 -58.4 -115.7 -88.5 -19.2 -11.5 -36.7 -20.1 -91.0 -45.0 -41.8 -19.2 -52.0 -23.8 -63.0 -28.3 -16.8 -6.9 -33.0 -14.1 -45.5 -20.0 -6.0 -2.9 -14.8 -6.9 -19.5 -8.9 -13.6 -6.0 -57.6 -30.2 -72.4 -39.8 -69.4 -45.3 -109.7 -96.0 -134.6 -169.3 -4.4 -12.9 -8.5 -28.0 -9.6 -35.5 -0.3 -2.8 -1.1 -6.1 -1.6 -7.4 -1.8 -5.0 -5.7 -45.2 -5.8 -60.4 0.0 -15.2 1.1 -19.0 7.9 -25.7 7.4 -7.4 14.8 -11.1 17.9 -9.1 Z m1224.0 2.7 c17.7 8.8 21.7 43.6 10.8 93.4 -0.8 3.6 -1.8 8.5 -2.1 11.0 -2.7 18.5 -19.8 63.0 -33.0 85.5 -24.1 41.1 -45.7 65.9 -81.5 93.8 -31.4 24.5 -83.5 53.2 -148.5 81.9 -149.7 66.1 -167.8 75.5 -224.0 115.2 -44.0 31.1 -76.4 63.7 -102.9 103.1 -16.6 24.7 -18.0 18.8 -4.9 -20.5 14.1 -42.2 53.4 -91.0 107.2 -133.0 4.5 -3.6 11.3 -8.9 14.9 -11.7 3.7 -2.9 10.3 -7.7 14.7 -10.7 19.4 -13.0 37.5 -24.6 43.0 -27.6 3.3 -1.9 7.8 -4.6 10.0 -6.0 4.5 -3.0 46.3 -27.0 54.0 -31.0 13.0 -6.8 57.4 -31.0 71.0 -38.7 47.8 -27.1 51.8 -29.5 86.4 -52.5 31.0 -20.5 58.3 -43.6 82.6 -69.8 44.0 -47.5 71.9 -102.4 88.1 -173.5 2.8 -12.0 5.1 -13.5 14.2 -8.9 Z m117.3 150.0 c4.2 2.1 7.6 6.9 8.9 12.5 2.9 12.0 -1.4 59.4 -7.4 81.4 -0.9 3.2 -1.6 6.7 -1.6 7.7 0.0 4.6 -11.7 41.5 -17.6 55.5 -11.1 26.2 -22.0 50.3 -27.2 59.9 -3.2 6.0 -7.8 14.5 -10.2 18.9 -4.6 8.5 -18.6 31.8 -30.0 50.0 -30.0 47.8 -43.6 60.6 -64.0 60.5 -21.2 -0.1 -28.5 -25.4 -14.4 -49.9 1.5 -2.5 4.4 -7.8 6.4 -11.6 3.5 -6.7 20.9 -34.2 30.9 -48.8 2.5 -3.8 7.8 -11.9 11.8 -18.0 3.9 -6.2 10.2 -15.9 14.0 -21.7 8.4 -12.9 12.0 -18.9 24.0 -40.5 5.2 -9.4 11.0 -19.5 12.9 -22.6 14.0 -23.2 33.5 -70.0 42.5 -101.9 10.2 -36.1 10.6 -36.7 21.0 -31.4 Z m-1457.2 1.3 c1.0 1.0 2.2 3.8 2.6 6.2 2.0 12.3 6.3 26.8 15.0 50.9 10.2 28.2 39.0 87.4 55.6 114.2 3.0 4.8 9.2 15.1 13.9 22.8 4.7 7.7 15.9 25.2 24.9 38.8 41.7 62.7 49.6 81.9 41.0 99.1 -10.2 20.4 -34.6 15.4 -55.9 -11.4 -40.8 -51.6 -87.3 -141.4 -102.3 -198.0 -4.6 -17.1 -5.7 -21.8 -7.6 -30.5 -3.8 -17.6 -4.2 -20.5 -6.3 -43.5 -3.1 -34.8 -1.6 -42.9 9.4 -48.4 5.3 -2.6 7.3 -2.6 9.7 -0.2 Z m397.6 362.3 c21.2 7.0 31.1 23.9 30.2 51.7 -0.3 6.9 -1.0 42.5 -1.6 79.1 -1.4 82.3 -3.1 99.5 -11.1 112.5 -15.3 24.8 -57.3 15.9 -80.9 -17.1 -14.6 -20.5 -29.5 -60.5 -34.0 -91.4 -0.6 -3.6 -1.6 -9.4 -2.2 -13.0 -9.8 -50.8 6.1 -99.8 36.9 -114.2 14.2 -6.7 16.9 -7.4 37.7 -10.2 5.8 -0.7 19.0 0.6 25.0 2.6 Z m698.5 1.1 c49.0 15.7 67.0 72.6 47.4 150.1 -19.2 75.8 -53.7 115.1 -92.4 105.1 -27.9 -7.2 -30.9 -22.3 -31.0 -159.1 0.0 -81.4 1.6 -86.1 35.0 -98.8 4.2 -1.6 33.6 0.3 41.0 2.7 Z m-554.1 15.2 c36.5 9.8 57.1 39.9 57.1 83.4 -0.1 88.9 -39.2 151.6 -94.5 151.6 -17.8 -0.0 -22.6 -3.1 -24.6 -15.8 -0.5 -3.4 -1.6 -9.1 -2.4 -12.7 -1.5 -7.2 -4.2 -23.6 -4.8 -29.0 -0.4 -3.8 -3.2 -19.0 -4.8 -25.5 -0.5 -2.2 -1.4 -6.5 -1.9 -9.5 -0.6 -3.0 -1.5 -7.5 -2.1 -10.0 -22.2 -93.9 11.1 -150.4 78.0 -132.5 Z m405.6 0.9 c34.3 11.2 49.6 49.4 40.1 100.6 -0.9 4.7 -2.1 11.9 -2.6 16.0 -0.6 4.1 -1.7 10.6 -2.5 14.5 -0.8 3.8 -1.9 9.9 -2.6 13.5 -0.6 3.6 -1.7 9.6 -2.3 13.5 -0.7 3.8 -2.0 10.1 -2.9 14.0 -2.0 8.9 -3.5 18.7 -4.7 29.5 -2.9 25.7 -11.4 34.4 -31.7 32.7 -37.2 -3.1 -65.3 -29.6 -79.1 -74.2 -6.3 -20.7 -8.2 -27.8 -8.2 -31.0 -0.1 -1.7 -0.8 -5.7 -1.6 -9.0 -1.0 -4.0 -1.7 -13.0 -2.1 -26.5 -0.5 -20.3 -0.4 -22.2 3.2 -38.5 9.4 -43.3 54.5 -68.9 97.0 -55.1 Z M3838.6 2376.7 c-0.9 5.5 -0.5 256.2 0.4 259.8 0.4 1.6 0.8 -57.0 0.9 -130.3 0.0 -73.2 -0.1 -133.2 -0.3 -133.2 -0.2 -0.0 -0.6 1.7 -1.0 3.7 Z M0.2 2511.0 c0.0 69.6 0.4 125.1 0.8 123.5 0.4 -1.7 0.8 -57.2 0.8 -123.5 0.0 -66.3 -0.4 -121.9 -0.8 -123.5 -0.4 -1.7 -0.8 53.9 -0.8 123.5 Z M3838.6 2991.7 c-0.9 5.5 -0.5 477.2 0.4 480.8 0.4 1.6 0.8 -106.7 0.9 -240.8 0.0 -134.0 -0.1 -243.7 -0.3 -243.7 -0.2 -0.0 -0.6 1.7 -1.0 3.7 Z M0.2 3240.5 c0.0 128.7 0.4 232.6 0.8 231.0 1.0 -3.9 1.0 -458.1 0.0 -462.0 -0.4 -1.7 -0.8 102.3 -0.8 231.0 Z"/>
  </g>
</svg>