<?xml version="1.0" encoding="UTF-8"?>
<svg xmlns="http://www.w3.org/2000/svg" width="3840" height="3840" viewBox="0 0 3840 3840">
  <path fill="#c80f12" stroke="none" d="M0.1 48.7 c0.1 26.9 0.5 47.4 0.9 45.8 0.4 -1.7 0.8 -22.6 0.9 -46.6 0.1 -32.4 0.4 -43.8 1.3 -44.7 0.9 -0.9 130.2 -1.2 575.3 -1.3 315.7 -0.1 575.4 -0.5 577.0 -0.9 1.7 -0.4 -257.7 -0.8 -576.2 -0.9 -579.3 -0.1 -579.3 -0.1 -579.2 48.6 Z M2690.5 1.0 c1.7 0.4 260.0 0.8 574.1 0.9 442.6 0.1 571.3 0.4 572.2 1.3 0.9 0.9 1.2 10.7 1.3 37.3 0.1 19.8 0.5 37.3 0.9 39.0 0.4 1.6 0.8 -15.6 0.9 -38.3 0.1 -41.2 0.1 -41.2 -576.1 -41.1 -317.0 0.1 -574.9 0.5 -573.3 0.9 Z M917.7 424.2 c-1.1 0.8 -2.1 3.7 -2.8 7.8 -0.5 3.6 -1.6 9.9 -2.4 14.0 -0.8 4.1 -1.6 10.0 -1.9 13.0 -0.3 3.0 -1.3 11.6 -2.2 19.0 -1.9 16.0 -2.3 76.4 -0.5 90.0 5.8 45.8 9.3 61.9 20.1 93.5 28.4 82.4 86.0 149.0 166.0 192.0 6.9 3.7 13.0 7.0 13.5 7.5 5.2 4.1 64.3 26.3 77.0 28.9 2.2 0.5 9.4 2.2 16.0 3.9 17.6 4.3 28.3 6.3 43.5 7.7 7.4 0.8 17.8 1.8 23.0 2.4 21.7 2.3 47.8 3.1 106.5 3.1 34.1 -0.0 68.8 0.5 77.0 1.0 39.7 2.6 70.7 6.9 96.5 13.5 3.0 0.8 7.5 1.7 9.9 2.0 20.5 2.7 79.8 24.4 115.3 42.1 19.7 9.9 41.1 22.7 56.7 33.9 63.4 45.7 104.5 96.1 124.4 152.5 3.0 8.5 5.7 17.3 6.1 19.5 0.4 2.2 1.3 6.7 2.1 10.0 6.1 26.4 6.0 73.6 -0.2 83.3 -4.8 7.7 -10.6 -0.6 -28.1 -40.3 -36.6 -82.9 -78.8 -136.0 -140.7 -176.9 -25.6 -17.0 -35.9 -22.4 -68.5 -36.4 -17.1 -7.4 -43.8 -15.8 -57.5 -18.2 -2.2 -0.4 -5.8 -1.2 -8.0 -1.8 -6.6 -1.8 -29.3 -5.1 -40.0 -5.7 -5.5 -0.4 -15.8 -1.3 -23.0 -2.1 -18.0 -1.9 -55.2 -0.4 -85.5 3.6 -8.0 1.0 -23.5 2.8 -34.5 4.0 -11.0 1.1 -25.4 2.8 -32.0 3.7 -34.7 4.9 -102.4 1.2 -135.0 -7.4 -56.7 -14.8 -94.2 -33.2 -139.0 -67.9 -30.7 -23.8 -30.4 -23.8 -42.9 -1.0 -28.5 51.6 -51.9 124.5 -59.1 183.6 -0.8 6.9 -2.3 18.6 -3.2 26.0 -2.4 18.1 -2.4 73.3 0.0 88.5 0.8 5.5 1.8 13.4 2.2 17.5 0.4 4.1 1.5 12.7 2.6 19.0 1.8 11.2 2.5 14.4 7.0 35.5 7.5 34.9 32.9 95.9 51.1 122.8 8.9 13.2 30.4 41.9 38.2 51.0 10.4 12.3 9.1 14.0 -7.1 9.8 -31.6 -8.3 -59.0 -5.4 -107.0 11.3 -26.1 9.1 -84.1 42.2 -106.8 61.0 -39.2 32.4 -70.5 65.6 -92.5 98.1 -3.0 4.4 -6.9 9.8 -8.6 12.0 -5.3 6.9 -19.3 30.6 -29.9 51.0 -13.0 25.0 -31.2 75.2 -37.4 103.5 -4.6 21.1 -8.6 42.4 -9.6 51.5 -0.3 2.7 -1.2 9.9 -2.0 16.0 -6.3 48.8 -5.3 120.5 2.5 169.5 7.7 48.8 6.3 48.1 42.0 22.6 37.1 -26.6 34.6 -28.1 36.0 22.0 0.9 35.5 2.2 53.0 7.0 94.9 3.8 33.8 12.0 76.8 19.1 100.5 1.5 5.2 4.0 13.5 5.4 18.5 3.8 13.1 18.4 55.1 21.3 61.3 5.3 11.2 6.3 10.9 35.9 -13.3 22.2 -18.2 23.0 -18.1 30.2 4.5 19.4 61.0 45.4 114.1 84.7 173.0 18.3 27.5 23.9 34.9 49.7 65.4 37.7 44.7 104.6 103.5 155.2 136.4 25.2 16.4 42.0 26.8 54.9 33.8 14.6 7.8 13.1 6.4 30.7 31.1 41.7 58.6 103.9 117.5 108.3 102.5 0.3 -0.9 1.2 -7.4 2.1 -14.5 4.7 -37.2 28.6 -60.4 66.7 -64.7 37.8 -4.2 56.7 12.7 50.5 45.2 -6.4 33.5 -8.1 52.6 -7.4 81.3 0.5 19.5 2.7 46.2 4.1 50.1 13.9 38.6 0.9 62.3 -26.8 49.1 -32.5 -15.4 -61.0 -49.2 -76.7 -91.0 -4.8 -12.8 -6.9 -12.6 -28.8 3.8 -96.2 71.9 -67.0 186.2 42.4 165.7 25.1 -4.7 44.2 -11.5 84.2 -30.0 35.1 -16.3 36.6 -15.0 13.1 11.9 -33.9 38.8 -38.8 45.5 -43.7 60.2 -13.3 39.7 23.9 82.7 71.6 82.7 22.9 -0.0 58.0 -18.2 90.7 -46.9 3.3 -2.9 12.9 -10.8 21.1 -17.4 8.3 -6.6 18.4 -15.0 22.6 -18.6 7.4 -6.5 10.6 -9.2 31.9 -26.7 5.8 -4.7 12.9 -10.7 15.9 -13.3 18.9 -16.1 18.9 -8.5 0.0 22.6 -7.3 12.0 -15.2 25.3 -17.6 29.6 -5.0 8.9 -7.5 13.0 -14.8 24.2 -8.6 13.0 -24.5 38.5 -28.8 46.0 -9.3 16.5 -10.8 19.4 -12.7 25.0 -9.9 28.7 21.3 65.7 61.2 72.6 41.0 7.1 65.7 -6.0 86.9 -46.0 6.2 -11.7 7.1 -13.7 17.3 -38.1 3.1 -7.4 6.8 -15.8 8.1 -18.5 2.9 -6.0 20.5 -47.1 20.5 -47.9 0.0 -0.3 4.0 -8.9 8.9 -19.3 8.7 -18.5 11.5 -24.8 23.1 -52.8 3.2 -7.7 8.9 -21.0 12.8 -29.5 3.8 -8.6 7.4 -17.2 8.1 -19.2 3.0 -9.2 9.3 -8.5 7.3 0.9 -0.6 2.6 -1.4 7.5 -1.7 10.8 -1.2 11.3 -6.3 44.9 -9.2 59.5 -0.8 4.1 -1.8 10.6 -2.4 14.5 -0.5 3.8 -1.3 8.3 -1.9 10.0 -0.5 1.6 -1.4 6.4 -1.9 10.5 -0.5 4.1 -2.1 14.2 -3.6 22.5 -3.2 18.1 -6.4 38.5 -7.5 48.0 -0.4 3.8 -1.5 10.8 -2.3 15.5 -0.9 4.7 -2.5 14.3 -3.6 21.5 -1.1 7.1 -2.7 17.3 -3.6 22.5 -1.4 8.8 -2.1 14.3 -4.6 32.5 -3.1 22.8 6.7 48.3 25.2 66.1 21.6 20.5 64.5 35.7 86.2 30.5 64.4 -15.4 98.6 -53.4 90.7 -100.6 -0.6 -3.3 -1.9 -13.7 -3.1 -23.0 -2.9 -24.2 -4.9 -38.1 -9.0 -60.4 -1.1 -5.6 -1.9 -11.3 -1.9 -12.5 0.0 -1.1 -0.9 -5.7 -2.0 -10.1 -1.1 -4.4 -2.0 -9.7 -2.0 -11.8 0.0 -2.1 -0.6 -6.6 -1.4 -10.0 -0.8 -3.4 -2.4 -12.1 -3.5 -19.2 -1.2 -7.2 -2.8 -16.8 -3.7 -21.5 -0.8 -4.7 -1.9 -12.0 -2.4 -16.3 -0.5 -4.3 -1.2 -8.2 -1.4 -8.6 -0.5 -0.8 -4.0 -22.8 -6.1 -38.6 -0.8 -5.5 -1.8 -12.9 -2.4 -16.5 -5.1 -31.9 2.7 -23.0 23.4 26.5 6.5 15.6 17.9 42.2 33.5 78.0 10.1 23.0 17.8 41.3 24.4 57.5 35.9 88.2 69.1 111.7 125.1 88.5 53.3 -22.0 60.3 -51.1 25.1 -104.5 -2.8 -4.3 -7.7 -12.0 -10.8 -17.2 -3.2 -5.1 -9.3 -14.8 -13.5 -21.5 -4.3 -6.6 -11.7 -18.8 -16.6 -27.0 -4.8 -8.1 -11.9 -20.0 -15.8 -26.3 -16.6 -27.1 -17.2 -35.1 -1.7 -22.3 3.9 3.2 9.7 7.8 12.8 10.3 3.2 2.5 11.1 8.9 17.6 14.3 6.6 5.4 15.5 12.7 19.9 16.3 16.9 14.0 23.1 19.1 30.4 25.4 32.1 27.6 48.7 39.6 68.6 49.8 26.1 13.2 58.2 12.9 79.6 -0.9 31.7 -20.5 41.1 -55.5 23.1 -86.0 -6.1 -10.5 -25.0 -33.6 -45.4 -55.6 -7.2 -7.8 -6.4 -12.4 1.9 -10.1 4.8 1.3 23.5 9.3 28.8 12.3 53.0 30.6 118.5 36.0 150.0 12.5 46.1 -34.5 26.9 -110.0 -40.1 -157.4 -16.2 -11.6 -17.4 -11.4 -22.4 2.6 -14.3 40.3 -39.6 71.2 -71.2 87.2 -30.2 15.3 -40.8 0.8 -32.2 -43.4 1.5 -7.6 2.8 -24.9 4.0 -53.2 1.0 -21.7 -1.8 -63.6 -5.1 -79.6 -6.7 -31.3 7.0 -46.8 41.5 -46.7 44.4 0.2 74.9 30.0 75.0 73.2 0.0 13.8 6.5 12.5 27.4 -5.6 32.4 -27.9 66.0 -66.0 87.1 -98.6 8.3 -12.7 12.2 -17.1 18.2 -20.2 46.3 -23.8 99.0 -60.5 145.2 -100.9 43.1 -37.8 87.2 -87.6 116.8 -132.1 10.2 -15.2 11.7 -17.6 21.6 -33.5 15.7 -25.3 36.2 -64.5 46.9 -89.8 2.2 -5.2 5.3 -12.4 6.8 -16.0 1.5 -3.6 6.5 -17.8 11.1 -31.5 12.0 -35.9 10.5 -35.5 36.9 -11.4 22.9 20.9 27.9 22.0 33.3 7.4 7.3 -19.8 17.6 -51.5 22.7 -70.0 1.2 -4.4 3.1 -10.7 4.2 -14.0 2.6 -7.5 5.2 -19.3 9.2 -42.0 0.9 -5.0 2.3 -11.9 3.1 -15.5 5.7 -26.0 11.2 -84.6 13.4 -142.5 1.2 -31.6 1.9 -32.6 14.3 -24.2 18.1 12.4 33.1 22.7 39.8 27.4 13.8 9.9 17.1 7.1 19.5 -16.2 0.3 -3.3 1.2 -9.8 2.0 -14.5 0.8 -4.7 1.9 -13.0 2.4 -18.5 0.6 -5.5 1.5 -13.4 2.0 -17.5 10.2 -80.0 0.7 -173.9 -25.0 -248.5 -36.5 -106.2 -100.9 -189.4 -189.9 -245.2 -25.3 -15.9 -49.5 -28.4 -71.4 -36.8 -13.3 -5.1 -19.9 -7.2 -38.1 -12.0 -24.9 -6.6 -43.6 -5.6 -77.7 4.2 -3.3 1.0 -6.8 -0.6 -6.8 -3.0 0.1 -2.4 0.0 -2.3 13.5 -17.8 32.3 -37.0 58.9 -84.8 73.8 -132.9 4.8 -15.3 7.6 -25.1 8.6 -30.3 0.5 -2.3 1.9 -8.5 3.1 -13.7 2.5 -10.8 5.5 -27.1 6.9 -37.5 4.5 -32.7 4.5 -32.5 4.4 -69.5 -0.1 -37.2 -1.7 -61.0 -5.7 -83.5 -0.8 -4.4 -2.0 -10.7 -2.5 -14.0 -2.3 -12.9 -4.2 -21.4 -6.6 -30.0 -1.4 -5.0 -3.7 -13.3 -5.1 -18.5 -9.7 -36.2 -25.6 -75.3 -44.2 -109.3 -10.3 -18.8 -11.3 -18.9 -30.4 -4.1 -43.4 33.5 -76.9 51.6 -121.8 65.9 -19.0 6.0 -24.4 7.5 -26.6 7.5 -1.1 -0.0 -5.6 0.9 -10.0 1.9 -37.9 9.1 -112.6 9.4 -167.9 0.5 -46.2 -7.3 -116.3 -7.3 -154.0 0.1 -3.8 0.8 -12.4 2.3 -19.0 3.5 -17.2 2.9 -46.8 12.1 -70.0 21.5 -51.5 21.0 -100.0 55.5 -136.4 97.0 -31.3 35.7 -47.5 64.8 -79.0 141.9 -10.2 25.0 -12.8 25.9 -18.9 6.3 -2.9 -9.4 -3.8 -53.6 -1.4 -66.2 0.6 -3.3 1.6 -9.2 2.2 -13.0 10.3 -66.1 74.7 -145.9 159.4 -197.5 31.5 -19.2 80.3 -40.6 117.6 -51.5 5.2 -1.5 11.5 -3.3 14.0 -4.1 2.5 -0.7 10.4 -2.5 17.5 -3.9 7.2 -1.5 16.2 -3.5 20.0 -4.5 12.7 -3.4 30.0 -6.4 46.0 -8.0 40.7 -3.9 47.7 -4.2 123.0 -4.9 41.8 -0.3 76.5 -0.9 77.1 -1.3 0.6 -0.4 9.8 -1.2 20.5 -1.8 19.9 -1.1 35.4 -3.5 63.9 -9.6 33.2 -7.2 93.8 -28.8 104.5 -37.4 0.6 -0.4 7.3 -4.2 15.0 -8.5 52.3 -28.8 93.6 -69.7 127.2 -126.0 10.7 -18.0 22.2 -42.5 25.7 -55.0 0.8 -2.8 3.5 -12.0 5.9 -20.5 6.8 -23.4 11.0 -43.1 12.8 -58.5 0.5 -4.4 1.4 -11.2 2.1 -15.0 1.6 -9.3 1.5 -89.4 -0.1 -102.0 -0.6 -5.0 -1.6 -13.3 -2.1 -18.5 -0.6 -5.2 -1.5 -11.8 -2.1 -14.5 -0.5 -2.8 -1.2 -6.0 -1.5 -7.2 -1.5 -7.6 -4.6 -6.9 -23.0 5.3 -21.9 14.6 -71.7 44.1 -87.9 52.1 -3.3 1.7 -14.5 7.4 -25.0 12.7 -10.4 5.3 -24.4 12.1 -31.0 15.1 -6.6 2.9 -19.2 8.8 -28.0 13.0 -8.8 4.2 -20.3 9.5 -25.5 11.7 -5.2 2.2 -20.1 8.6 -33.0 14.3 -12.9 5.6 -28.2 12.1 -34.0 14.3 -5.8 2.3 -21.1 8.4 -34.0 13.7 -12.9 5.3 -30.2 12.3 -38.5 15.5 -8.2 3.2 -19.0 7.5 -24.0 9.5 -4.9 2.0 -15.3 6.1 -23.0 9.0 -7.7 3.0 -19.6 7.7 -26.5 10.6 -10.8 4.5 -21.5 8.8 -36.0 14.4 -5.6 2.2 -8.3 1.8 -21.2 -3.6 -6.8 -2.8 -16.1 -6.6 -20.8 -8.4 -4.7 -1.8 -18.3 -7.2 -30.2 -11.8 -32.1 -12.7 -105.2 -37.2 -118.8 -40.0 -3.3 -0.6 -37.5 -9.2 -47.0 -11.7 -4.1 -1.1 -9.5 -2.4 -12.0 -2.9 -2.5 -0.5 -6.5 -1.3 -9.0 -1.9 -11.4 -2.7 -18.9 -4.2 -23.0 -4.8 -2.5 -0.4 -7.0 -1.3 -10.0 -2.1 -9.0 -2.3 -27.7 -5.5 -52.0 -8.8 -5.8 -0.8 -12.7 -2.0 -15.5 -2.5 -57.4 -11.4 -220.8 -13.9 -305.6 -4.5 -7.4 0.8 -18.3 1.9 -24.4 2.5 -6.0 0.5 -15.7 1.7 -21.5 2.5 -5.8 0.9 -16.8 2.5 -24.5 3.6 -7.7 1.1 -17.4 2.7 -21.5 3.5 -4.1 0.8 -10.2 1.9 -13.5 2.4 -11.7 1.7 -25.1 4.1 -30.5 5.4 -5.5 1.4 -11.7 2.7 -24.0 5.1 -3.6 0.7 -9.0 1.9 -12.0 2.7 -7.0 1.9 -14.5 3.8 -19.0 4.8 -43.8 9.7 -124.6 36.7 -175.5 58.7 -23.2 10.0 -29.0 12.4 -31.8 13.5 -3.6 1.3 -6.2 0.6 -27.2 -7.9 -9.3 -3.8 -26.0 -10.5 -37.0 -14.8 -25.0 -9.8 -67.0 -26.7 -83.5 -33.5 -6.9 -2.9 -19.9 -8.1 -29.0 -11.5 -9.1 -3.5 -23.2 -9.2 -31.5 -12.8 -8.2 -3.5 -22.2 -9.5 -31.0 -13.2 -14.9 -6.3 -24.2 -10.5 -63.0 -28.8 -25.6 -12.0 -70.2 -34.9 -89.0 -45.7 -30.0 -17.1 -36.2 -20.9 -57.9 -35.2 -22.0 -14.6 -24.1 -15.6 -26.9 -13.6 Z m82.9 95.3 c2.8 1.2 9.3 4.7 14.5 7.7 20.4 11.8 47.1 24.5 72.4 34.4 7.7 3.0 16.5 6.6 19.6 7.9 3.1 1.4 9.7 4.1 14.5 6.1 62.1 24.9 99.6 57.9 108.9 95.8 11.0 44.9 -10.7 71.8 -48.5 60.3 -22.8 -7.0 -32.3 -17.2 -30.2 -32.2 2.3 -15.5 1.3 -19.6 -6.6 -27.5 -28.2 -28.1 -69.6 -10.3 -54.3 23.4 17.7 39.1 66.8 72.3 123.6 83.5 6.1 1.2 14.2 2.8 18.0 3.6 30.9 6.4 93.6 9.4 194.2 9.5 28.5 -0.0 29.3 -0.1 29.3 -3.6 0.0 -2.9 -1.4 -3.6 -11.5 -6.2 -61.7 -15.5 -163.5 -76.1 -163.5 -97.2 0.0 -4.9 1.5 -4.7 22.5 2.0 5.0 1.6 13.7 3.8 19.5 4.9 26.6 5.1 32.1 6.1 35.1 6.1 1.8 -0.0 8.9 0.9 15.8 1.9 6.9 1.1 21.2 2.9 31.6 4.1 18.5 2.0 22.3 2.5 46.5 5.5 17.8 2.3 36.1 5.1 52.0 8.1 8.0 1.5 17.0 3.0 20.0 3.4 4.6 0.6 21.4 4.5 43.5 10.0 21.1 5.3 65.5 20.9 84.0 29.5 120.9 56.5 202.8 135.9 252.7 244.8 11.3 24.8 12.7 27.5 14.9 28.2 3.2 1.0 6.2 -1.8 8.3 -7.6 2.9 -7.9 20.4 -43.9 26.8 -55.0 57.5 -99.4 137.7 -169.6 245.8 -215.2 11.3 -4.8 63.0 -22.0 77.0 -25.6 4.7 -1.2 11.0 -2.9 14.0 -3.6 11.5 -3.0 22.9 -5.4 33.5 -7.0 6.1 -0.9 14.6 -2.3 19.0 -3.1 8.9 -1.7 31.2 -4.9 45.0 -6.5 5.0 -0.5 10.4 -1.4 12.0 -1.9 1.7 -0.4 8.0 -1.1 14.0 -1.5 6.1 -0.3 15.1 -1.3 20.0 -2.1 5.0 -0.8 20.3 -3.0 34.0 -4.9 13.8 -1.9 30.0 -4.4 36.0 -5.5 6.1 -1.1 13.3 -2.5 16.0 -3.0 2.8 -0.4 12.0 -2.9 20.6 -5.4 21.0 -6.2 23.3 -5.8 17.9 3.2 -15.6 25.5 -92.0 70.9 -153.0 90.8 -16.0 5.2 -15.8 5.1 -16.9 7.2 -2.4 4.4 -2.6 4.4 57.0 4.3 95.9 -0.3 140.8 -3.2 174.9 -11.3 2.5 -0.6 6.5 -1.4 9.0 -1.8 40.2 -7.1 91.1 -36.3 110.5 -63.5 25.4 -35.6 8.7 -67.7 -28.0 -53.7 -18.2 6.9 -25.5 18.6 -23.1 37.2 4.8 38.2 -69.4 51.1 -80.4 14.0 -17.0 -57.1 28.2 -105.9 136.0 -147.0 6.9 -2.7 12.6 -5.2 39.5 -17.3 20.4 -9.2 45.7 -21.7 52.8 -26.1 15.8 -9.9 16.7 -8.9 17.4 19.6 1.1 45.2 -3.0 75.1 -15.9 116.1 -31.0 98.5 -121.5 165.2 -247.3 182.2 -6.0 0.9 -11.7 1.7 -12.5 2.0 -3.5 1.1 -58.0 3.6 -100.0 4.5 -25.0 0.6 -51.3 1.7 -58.5 2.5 -7.1 0.7 -16.4 1.7 -20.5 2.0 -4.1 0.3 -10.0 1.1 -13.0 1.6 -3.0 0.5 -9.5 1.4 -14.5 1.9 -4.9 0.6 -10.4 1.5 -12.1 2.0 -1.7 0.6 -5.9 1.4 -9.5 1.9 -14.7 1.9 -23.6 3.9 -64.5 14.6 -33.3 8.6 -79.9 27.3 -111.4 44.5 -6.9 3.8 -13.8 7.3 -15.2 7.9 -2.9 1.1 -18.7 10.4 -30.3 17.9 -45.3 29.1 -91.0 70.0 -121.9 109.2 -35.2 44.7 -54.7 76.6 -75.5 124.0 -7.9 17.8 -9.4 20.2 -12.5 19.8 -2.4 -0.3 -1.5 1.4 -17.2 -32.3 -41.4 -88.8 -95.1 -152.8 -179.4 -213.7 -9.6 -7.0 -38.5 -23.9 -62.1 -36.6 -24.7 -13.2 -97.2 -40.8 -114.8 -43.8 -2.0 -0.3 -5.6 -1.2 -8.1 -1.9 -5.0 -1.4 -17.9 -4.2 -34.0 -7.4 -19.6 -3.8 -26.5 -5.0 -33.0 -5.6 -3.6 -0.4 -10.1 -1.3 -14.5 -2.0 -4.4 -0.8 -12.9 -1.9 -19.0 -2.4 -6.0 -0.6 -15.0 -1.5 -20.0 -2.1 -4.9 -0.5 -20.2 -1.4 -34.0 -2.0 -13.7 -0.5 -42.5 -1.6 -64.0 -2.5 -79.1 -3.1 -109.3 -8.4 -162.5 -28.2 -38.7 -14.5 -91.1 -48.8 -104.5 -68.6 -0.5 -0.8 -4.4 -5.7 -8.6 -10.8 -25.6 -31.8 -41.7 -66.7 -50.8 -110.4 -5.6 -27.2 -7.5 -50.6 -7.0 -85.2 0.5 -26.3 0.8 -26.8 14.5 -20.8 Z m141.7 478.4 c20.8 7.2 20.7 6.1 7.6 45.5 -3.3 10.0 -6.4 20.1 -6.8 22.6 -0.5 2.5 -1.5 7.4 -2.4 11.0 -1.7 6.8 -2.2 9.5 -6.4 33.0 -3.5 19.4 -4.1 83.2 -1.0 100.5 2.7 14.8 5.5 31.4 6.2 36.5 3.1 21.6 23.8 74.8 39.1 100.8 85.8 144.8 255.7 220.8 413.9 185.0 21.3 -4.8 56.7 -15.9 66.8 -21.0 3.2 -1.6 10.8 -4.9 17.0 -7.4 17.7 -7.3 24.1 -10.8 58.8 -32.3 15.2 -9.4 17.6 -3.6 4.2 10.1 -47.8 49.1 -117.1 86.8 -185.8 101.2 -7.1 1.5 -15.5 3.4 -18.5 4.1 -23.0 5.6 -98.8 8.2 -116.4 4.0 -1.1 -0.3 -7.9 -1.2 -15.1 -2.0 -7.1 -0.8 -14.8 -1.9 -17.0 -2.4 -2.2 -0.6 -8.9 -2.0 -15.0 -3.1 -36.5 -7.2 -82.8 -25.1 -123.3 -47.9 -99.8 -55.9 -170.3 -153.6 -185.7 -257.2 -0.7 -4.7 -1.8 -11.0 -2.3 -14.0 -3.3 -17.2 -4.5 -62.2 -2.4 -89.9 2.6 -35.5 15.8 -84.2 30.9 -114.4 13.2 -26.4 36.0 -61.7 41.6 -64.4 3.1 -1.5 2.8 -1.5 12.0 1.7 Z m1569.4 -0.6 c9.2 5.1 40.0 58.2 50.7 87.3 3.0 8.2 6.1 16.6 7.0 18.6 2.3 5.3 7.3 25.0 10.7 41.6 4.9 24.2 6.9 73.0 3.9 96.7 -0.6 4.9 -1.5 12.8 -1.9 17.5 -2.4 23.4 -13.0 65.9 -21.8 87.5 -16.7 40.6 -26.0 56.5 -58.2 99.1 -2.5 3.3 -11.4 13.0 -19.9 21.6 -13.8 14.0 -20.6 20.1 -40.2 36.2 -43.7 35.9 -130.6 75.3 -182.2 82.5 -3.7 0.5 -7.2 1.2 -7.7 1.6 -0.6 0.3 -6.3 1.2 -12.8 2.0 -6.5 0.8 -14.9 1.9 -18.8 2.4 -61.2 8.1 -144.3 -3.8 -200.7 -28.7 -41.3 -18.3 -75.0 -40.6 -111.2 -73.5 -29.2 -26.6 -21.4 -28.8 16.7 -4.8 18.2 11.5 57.5 29.3 83.7 37.9 14.2 4.6 18.6 5.8 39.5 10.6 87.8 20.3 188.8 3.3 274.5 -46.1 47.2 -27.2 95.6 -72.6 125.2 -117.3 22.0 -33.2 35.5 -62.4 48.1 -104.0 2.0 -6.3 3.8 -13.5 4.2 -16.0 0.4 -2.5 1.5 -8.8 2.5 -14.0 8.0 -40.9 8.0 -103.0 0.0 -142.0 -1.1 -5.2 -2.0 -10.6 -2.0 -11.9 0.0 -1.3 -0.9 -5.8 -1.9 -10.0 -1.1 -4.2 -2.4 -9.4 -2.9 -11.6 -0.5 -2.2 -3.5 -11.9 -6.7 -21.5 -11.4 -34.9 -11.9 -32.8 9.2 -40.0 10.0 -3.4 10.0 -3.4 13.0 -1.7 Z m-1230.6 17.7 c33.8 2.7 40.6 6.3 23.1 12.5 -46.3 16.3 -79.2 51.5 -92.9 99.5 -4.9 17.5 -2.0 56.0 5.7 75.6 21.4 53.9 79.4 95.4 133.3 95.4 60.1 -0.0 108.0 -44.9 108.1 -101.5 0.0 -26.8 -16.1 -52.4 -33.0 -52.5 -4.1 -0.0 -5.7 2.4 -6.5 9.8 -4.2 38.8 -62.0 35.7 -75.0 -4.0 -10.6 -32.3 4.8 -64.1 37.6 -77.5 77.3 -31.7 154.2 51.9 139.9 152.2 -15.4 107.2 -132.6 184.1 -231.6 151.9 -61.1 -19.9 -93.4 -43.2 -125.3 -90.4 -12.7 -18.8 -27.0 -53.7 -29.0 -70.9 -0.4 -3.4 -1.4 -8.5 -2.2 -11.4 -11.9 -42.7 9.3 -113.9 43.8 -147.3 36.6 -35.3 60.2 -44.8 104.0 -41.4 Z m926.5 2.9 c18.7 6.5 47.7 27.5 60.8 44.0 26.5 33.5 38.3 64.9 40.2 106.6 0.6 14.1 -0.7 37.0 -2.6 43.5 -0.5 1.9 -2.1 8.4 -3.6 14.5 -30.2 125.9 -172.3 191.3 -288.5 132.9 -128.2 -64.3 -128.8 -267.2 -1.0 -290.5 53.8 -9.8 95.9 26.8 86.1 74.7 -8.9 43.1 -74.9 52.4 -75.0 10.6 0.0 -15.9 -16.2 -14.0 -29.1 3.4 -39.7 53.7 17.4 140.5 92.3 140.4 8.6 -0.0 12.6 -0.6 35.8 -5.6 43.9 -9.5 90.6 -54.4 103.3 -99.4 0.9 -3.0 2.1 -7.3 2.8 -9.5 3.0 -9.9 2.4 -47.0 -1.0 -59.9 -11.8 -45.1 -44.6 -79.3 -93.3 -97.6 -15.3 -5.7 -12.2 -7.5 15.2 -9.3 36.7 -2.4 48.0 -2.2 57.6 1.2 Z m-1127.6 8.2 c9.6 0.5 23.6 0.7 31.1 0.3 20.5 -1.0 21.6 0.2 12.6 12.7 -33.5 46.9 -52.0 104.3 -48.2 149.4 7.3 86.2 48.3 155.9 118.0 201.0 49.5 32.0 116.3 49.7 160.5 42.4 3.6 -0.6 11.0 -1.7 16.5 -2.5 11.5 -1.6 13.7 -2.1 34.0 -8.2 75.3 -22.4 135.6 -81.9 156.2 -153.7 6.4 -22.6 9.3 -41.9 10.0 -67.7 0.8 -27.6 2.3 -27.6 15.8 -0.4 13.4 27.3 16.0 46.7 10.1 74.1 -9.1 42.2 -19.7 70.0 -37.0 96.5 -34.4 52.6 -96.1 96.7 -157.1 112.3 -3.3 0.9 -9.4 2.5 -13.5 3.6 -4.1 1.1 -9.3 2.3 -11.5 2.6 -2.2 0.3 -6.9 1.2 -10.5 2.0 -12.0 2.5 -31.9 3.7 -53.0 3.2 -27.9 -0.6 -35.9 -1.6 -60.0 -7.4 -3.6 -0.8 -8.3 -1.9 -10.5 -2.3 -13.1 -2.7 -54.7 -18.6 -66.7 -25.5 -4.2 -2.5 -8.0 -4.5 -8.4 -4.5 -0.4 -0.0 -5.5 -3.0 -11.3 -6.7 -57.9 -36.6 -100.1 -85.7 -125.8 -146.3 -5.3 -12.4 -15.3 -40.7 -15.3 -43.3 0.0 -0.9 -0.9 -5.0 -1.9 -9.0 -2.0 -7.1 -4.5 -21.3 -5.6 -31.2 -0.3 -2.8 -1.3 -9.5 -2.2 -15.0 -1.7 -10.8 -1.3 -36.5 0.8 -53.5 5.5 -44.6 17.2 -84.0 34.0 -114.6 5.4 -9.8 6.7 -10.7 14.9 -10.0 3.6 0.4 14.4 1.1 24.0 1.7 Z m1311.2 -1.0 c4.8 2.1 15.8 22.7 23.1 42.9 22.8 63.8 26.4 120.3 11.6 182.5 -1.0 4.5 -1.9 9.0 -1.9 10.1 0.0 2.7 -9.0 29.0 -13.3 39.1 -23.2 53.4 -57.2 96.9 -101.7 129.9 -26.0 19.3 -39.1 27.0 -64.0 37.8 -29.9 13.0 -58.6 20.4 -99.1 25.5 -20.5 2.6 -60.6 0.4 -82.4 -4.5 -6.0 -1.4 -13.9 -3.1 -17.5 -3.9 -19.2 -4.2 -49.4 -16.0 -69.4 -27.2 -70.7 -39.5 -120.1 -108.2 -131.6 -182.8 -5.7 -37.6 -3.9 -49.9 12.4 -82.3 9.4 -18.8 11.0 -18.1 12.0 5.6 0.4 9.2 1.2 19.6 1.7 23.2 0.6 3.6 1.4 9.4 1.9 13.0 15.1 110.4 113.2 195.3 229.7 198.7 113.8 3.4 229.9 -85.0 253.7 -193.2 1.0 -4.4 2.5 -10.7 3.3 -14.0 13.7 -54.6 -1.9 -127.0 -39.0 -181.0 -9.0 -13.1 -11.4 -18.4 -8.4 -18.6 0.6 -0.0 12.9 -0.0 27.2 -0.0 14.3 -0.0 30.1 -0.3 35.0 -0.8 13.2 -1.2 14.2 -1.2 16.7 -0.0 Z m-721.8 310.0 c1.6 0.5 4.1 0.9 5.6 0.9 6.3 -0.0 20.9 8.8 31.3 18.9 13.3 12.9 14.4 12.9 25.4 1.5 37.1 -38.8 103.9 -23.9 117.4 26.1 0.6 2.2 2.0 6.7 3.0 9.9 2.2 6.9 2.7 41.2 0.9 52.1 -0.6 3.3 -1.5 8.7 -2.1 12.0 -4.2 25.1 -23.3 66.9 -51.7 113.4 -6.1 9.9 -36.0 53.6 -43.5 63.6 -3.4 4.4 -8.2 10.7 -10.7 14.0 -23.3 31.0 -23.9 31.2 -35.6 16.9 -10.7 -13.0 -24.8 -31.6 -30.9 -40.5 -2.7 -4.1 -7.3 -10.6 -10.1 -14.4 -11.0 -15.1 -24.4 -35.7 -32.4 -49.5 -4.5 -8.0 -10.6 -18.6 -13.4 -23.5 -12.3 -21.4 -29.6 -60.6 -29.6 -67.0 0.0 -1.3 -0.7 -4.2 -1.6 -6.6 -24.0 -67.6 23.3 -145.1 78.0 -127.8 Z m-823.9 175.9 c177.5 21.0 283.9 237.4 172.5 351.1 -60.1 61.3 -183.4 50.5 -211.5 -18.6 -24.9 -61.3 16.0 -125.6 71.0 -111.5 20.7 5.3 24.9 12.5 15.4 26.3 -21.6 31.4 18.7 59.6 49.8 34.9 48.1 -38.3 15.0 -136.8 -56.7 -169.2 -24.6 -11.1 -55.0 -15.1 -75.5 -10.1 -2.7 0.7 -7.7 1.9 -11.0 2.8 -92.0 22.6 -140.0 140.4 -94.4 231.7 22.3 44.4 77.4 85.5 127.4 95.1 37.9 7.3 34.0 6.8 63.5 6.9 28.0 -0.0 34.0 -0.6 59.0 -5.5 11.8 -2.3 36.0 -11.7 49.1 -18.9 20.3 -11.3 23.0 -8.0 19.5 23.0 -0.8 6.9 -1.7 16.1 -2.1 20.5 -0.4 4.4 -1.1 9.4 -1.6 11.1 -0.5 1.7 -1.3 5.9 -1.8 9.5 -6.3 48.3 -31.8 100.7 -51.5 106.0 -18.1 4.9 -29.8 -13.5 -33.1 -52.1 -0.9 -10.6 -5.3 -39.9 -6.6 -43.8 -1.3 -4.0 -5.5 -4.6 -6.4 -1.0 -2.5 11.2 -3.4 16.1 -4.0 20.8 -0.4 3.0 -1.3 8.0 -2.0 11.0 -0.7 3.0 -1.6 7.9 -2.0 10.9 -8.5 70.1 -68.6 140.4 -130.7 152.6 -26.8 5.3 -34.9 -4.7 -30.9 -38.5 0.7 -5.2 1.6 -14.2 2.1 -20.0 0.9 -9.7 1.9 -17.2 5.5 -40.5 0.8 -5.0 1.7 -13.1 2.0 -18.0 0.4 -5.0 1.3 -15.1 2.1 -22.5 0.8 -7.4 2.3 -21.6 3.3 -31.5 4.6 -42.7 4.7 -49.8 0.4 -49.3 -2.7 0.3 -9.2 18.0 -24.3 66.3 -10.4 33.5 -27.3 81.6 -35.5 101.5 -2.6 6.3 -5.8 14.1 -7.1 17.3 -17.9 45.0 -66.2 102.7 -74.8 89.4 -5.9 -9.0 -21.7 -72.9 -25.0 -101.2 -0.4 -2.8 -1.3 -9.1 -2.1 -14.0 -0.8 -5.0 -1.9 -14.4 -2.5 -21.0 -6.9 -76.2 -5.6 -97.9 7.2 -114.6 22.5 -29.2 44.1 -67.7 53.9 -95.8 2.3 -6.6 2.3 -6.6 0.3 -8.6 -2.8 -2.7 -10.2 1.6 -37.4 21.9 -17.3 12.9 -25.6 18.9 -35.2 25.1 -4.3 2.7 -13.5 8.9 -20.5 13.7 -28.5 19.3 -37.3 23.6 -38.7 19.0 -8.7 -28.7 -3.9 -134.6 7.8 -175.3 1.3 -4.6 2.9 -10.9 3.5 -13.9 0.6 -3.0 2.9 -11.6 5.1 -19.0 2.3 -7.4 4.9 -16.2 5.9 -19.5 1.0 -3.3 3.3 -9.8 5.1 -14.5 1.8 -4.7 4.3 -11.4 5.7 -14.9 4.1 -11.0 21.9 -46.2 28.1 -55.6 3.2 -5.0 8.0 -12.4 10.7 -16.5 41.6 -64.9 114.0 -118.3 175.0 -129.1 32.1 -5.7 50.5 -6.7 74.0 -3.9 Z m1800.0 0.4 c51.5 6.8 84.1 20.7 130.0 55.2 51.0 38.4 103.2 121.6 124.4 198.4 16.5 59.4 21.0 94.4 19.7 153.5 -1.3 60.9 -1.4 61.1 -25.8 45.3 -5.4 -3.5 -14.0 -9.0 -19.3 -12.3 -5.3 -3.3 -12.6 -8.2 -16.3 -10.9 -3.7 -2.6 -13.7 -9.6 -22.2 -15.4 -8.5 -5.8 -21.4 -15.0 -28.6 -20.3 -17.6 -13.0 -18.7 -13.5 -21.9 -10.3 -2.2 2.2 -1.5 4.9 6.0 22.3 3.4 8.0 6.6 15.7 7.0 17.1 0.4 1.4 4.5 9.1 9.1 17.3 7.8 13.7 11.5 19.5 21.9 33.8 19.1 26.7 18.1 24.3 19.5 44.7 2.0 30.9 -3.0 90.3 -11.5 136.7 -1.3 7.1 -3.4 17.3 -4.6 22.5 -1.2 5.2 -2.7 12.2 -3.4 15.5 -1.2 5.9 -5.6 22.4 -9.6 36.0 -4.7 15.9 -9.2 15.3 -27.5 -3.7 -33.2 -34.5 -54.4 -75.9 -81.3 -158.8 -33.7 -103.6 -32.8 -101.0 -36.7 -101.0 -3.4 -0.0 -4.0 31.3 -0.9 44.4 0.6 2.3 2.9 22.6 4.5 39.6 2.0 20.1 5.1 46.6 6.5 55.5 0.8 4.9 2.0 13.9 2.5 20.0 0.6 6.0 1.5 14.8 2.0 19.5 3.2 27.5 1.3 35.7 -8.9 37.9 -31.0 6.6 -77.7 -18.6 -111.7 -60.4 -20.8 -25.5 -37.6 -65.7 -41.4 -99.2 -0.5 -4.5 -1.6 -11.5 -2.4 -15.5 -0.8 -4.0 -1.8 -9.9 -2.1 -13.1 -1.2 -10.0 -8.5 -12.0 -8.5 -2.4 0.0 1.8 -0.5 5.0 -1.0 7.2 -1.2 4.7 -4.7 29.4 -6.0 41.5 -6.5 64.7 -48.9 57.6 -72.3 -12.0 -4.5 -13.6 -10.7 -40.0 -12.2 -52.5 -0.4 -2.8 -1.3 -8.9 -2.1 -13.7 -2.0 -11.8 -3.5 -45.8 -2.3 -50.2 1.8 -6.4 4.2 -6.0 23.5 4.1 99.9 52.1 245.3 13.6 293.7 -77.7 41.2 -77.9 8.7 -186.7 -67.0 -223.4 -10.3 -5.1 -28.3 -11.6 -31.8 -11.6 -1.3 -0.0 -5.0 -0.7 -8.2 -1.5 -42.5 -11.1 -103.7 16.6 -133.2 60.2 -36.1 53.3 -18.1 130.8 29.8 128.1 27.8 -1.6 37.3 -23.6 20.7 -47.9 -10.6 -15.2 16.3 -28.6 43.9 -21.9 60.0 14.6 71.1 103.1 18.3 145.6 -36.5 29.4 -103.6 32.8 -152.4 7.8 -121.1 -62.1 -92.2 -266.2 48.9 -346.1 14.7 -8.3 53.4 -23.3 60.0 -23.3 1.1 -0.0 4.6 -0.7 7.6 -1.6 17.4 -4.8 49.7 -6.1 73.6 -3.0 Z m-1534.8 108.3 c58.3 69.7 133.2 115.3 228.3 138.9 3.6 0.8 9.0 2.2 12.0 2.9 3.0 0.8 12.3 2.3 20.5 3.5 8.3 1.1 19.1 2.7 24.0 3.5 5.0 0.8 18.5 1.9 30.0 2.4 11.6 0.6 25.1 1.5 30.0 2.1 5.0 0.5 16.7 1.7 26.0 2.6 9.4 0.8 21.3 1.9 26.5 2.4 5.2 0.5 11.1 1.4 13.0 2.0 1.9 0.6 6.2 1.4 9.5 1.9 27.0 3.6 65.3 18.7 90.0 35.4 16.9 11.4 25.1 19.2 43.9 41.6 32.2 38.4 46.7 111.4 34.1 171.1 -0.8 3.6 -1.7 8.3 -2.0 10.5 -1.1 7.4 -7.5 27.7 -12.5 39.5 -9.6 23.1 -50.4 90.5 -56.9 94.0 -3.2 1.7 -5.6 -0.0 -16.6 -11.8 -21.2 -22.8 -21.2 -22.5 -5.5 -38.7 72.0 -74.4 66.8 -184.8 -11.3 -238.9 -56.5 -39.1 -127.8 -30.1 -169.0 21.4 -8.2 10.3 -20.7 36.9 -20.7 44.3 0.0 1.2 -0.7 4.4 -1.5 7.1 -15.5 51.2 45.2 119.7 91.9 103.6 47.3 -16.2 42.8 -85.4 -4.8 -72.5 -21.0 5.7 -22.9 -26.4 -2.6 -44.8 33.9 -30.6 100.0 -9.5 116.5 37.3 27.8 78.7 -37.3 155.3 -132.0 155.3 -90.5 -0.1 -155.6 -53.8 -159.2 -131.3 -0.8 -17.5 -0.3 -17.0 -19.2 -22.5 -64.6 -18.9 -119.6 -82.9 -136.6 -159.0 -1.0 -4.4 -2.4 -10.6 -3.1 -13.8 -6.2 -26.2 -2.9 -27.4 17.9 -6.6 8.4 8.4 19.7 18.8 25.2 23.3 5.5 4.4 14.9 12.3 21.0 17.4 19.0 16.2 67.9 49.8 97.1 66.6 14.5 8.4 15.9 7.9 27.8 -9.8 6.7 -9.9 24.6 -29.9 33.2 -37.3 24.2 -20.5 24.8 -22.5 6.7 -23.7 -30.9 -2.2 -47.6 -3.8 -53.8 -5.2 -3.8 -0.8 -10.8 -2.4 -15.5 -3.5 -4.7 -1.1 -9.2 -1.9 -10.1 -1.9 -15.5 0.2 -68.2 -26.0 -97.2 -48.4 -28.4 -22.0 -49.6 -45.9 -74.0 -83.8 -8.4 -12.9 -19.4 -37.7 -24.2 -54.3 -1.0 -3.3 -2.6 -8.7 -3.6 -11.9 -4.9 -15.4 -1.5 -20.7 6.8 -10.9 Z m1228.7 -3.1 c1.5 3.9 -5.1 26.6 -13.5 46.8 -33.6 79.8 -102.8 142.4 -179.9 162.8 -14.9 4.0 -18.0 4.7 -26.0 6.4 -4.1 0.8 -9.1 1.9 -11.0 2.4 -1.9 0.6 -13.2 1.7 -25.0 2.5 -34.6 2.4 -35.9 2.6 -37.5 4.1 -2.3 2.4 -0.6 4.6 11.5 15.4 13.8 12.3 30.0 30.1 41.2 45.6 8.6 11.8 11.6 14.2 16.5 12.9 5.8 -1.4 39.3 -21.7 54.9 -33.3 7.2 -5.3 19.6 -14.3 27.5 -19.9 12.6 -8.8 21.7 -16.1 47.5 -37.8 3.2 -2.7 9.3 -8.1 13.4 -12.0 24.1 -22.4 28.3 -25.2 29.6 -19.9 2.8 11.1 -13.9 68.1 -26.1 89.4 -31.7 55.1 -72.4 89.8 -120.0 102.5 -13.1 3.5 -12.9 3.2 -14.4 22.0 -7.4 97.3 -108.3 154.3 -213.1 120.3 -61.5 -19.9 -97.1 -83.0 -79.3 -140.3 15.7 -50.4 78.4 -74.4 116.2 -44.5 20.6 16.3 23.6 52.3 3.9 45.9 -35.5 -11.6 -58.9 35.7 -30.2 61.0 51.4 45.2 130.5 -26.8 111.3 -101.2 -18.6 -71.6 -103.4 -108.6 -171.1 -74.6 -95.0 47.6 -110.2 169.2 -31.1 248.7 18.1 18.2 18.2 15.7 -1.7 37.0 -18.8 20.2 -18.0 20.2 -30.8 0.2 -4.4 -6.9 -10.5 -16.3 -13.5 -21.0 -10.6 -16.3 -21.4 -36.6 -33.4 -62.9 -3.9 -8.7 -7.5 -20.2 -13.5 -43.5 -22.5 -88.1 18.0 -182.4 97.2 -226.4 10.8 -6.0 46.4 -19.2 51.7 -19.2 1.2 -0.0 3.4 -0.5 4.9 -1.1 3.1 -1.1 19.7 -4.2 34.4 -6.4 5.2 -0.8 22.3 -2.3 38.0 -3.5 15.7 -1.1 29.6 -2.2 31.0 -2.5 1.4 -0.3 10.8 -0.9 21.0 -1.5 10.2 -0.5 20.9 -1.4 23.8 -2.0 3.0 -0.5 9.5 -1.5 14.5 -2.1 5.1 -0.5 12.6 -1.6 16.7 -2.4 4.1 -0.8 11.6 -2.1 16.5 -3.0 9.4 -1.7 10.5 -2.0 40.0 -11.0 71.1 -21.5 122.4 -53.8 182.6 -114.7 20.3 -20.5 23.8 -23.2 25.3 -19.2 Z m-1237.9 223.8 c1.9 1.9 15.1 27.6 19.5 38.1 6.5 15.7 12.3 30.8 13.1 34.5 0.5 2.5 2.0 8.5 3.4 13.5 1.4 4.9 3.0 11.5 3.6 14.5 0.5 3.0 1.7 8.6 2.5 12.5 6.4 31.3 6.6 91.6 0.3 122.0 -0.6 2.7 -1.7 8.8 -2.4 13.5 -1.6 9.7 -1.8 10.3 -9.3 37.5 -5.7 20.5 -11.6 37.9 -17.9 52.0 -15.4 34.9 -21.5 47.8 -29.0 61.2 -3.6 6.5 -8.7 15.9 -11.3 20.9 -6.8 12.8 -24.0 39.8 -37.4 58.5 -1.8 2.6 -7.1 10.0 -11.6 16.5 -9.7 13.9 -12.0 16.7 -30.0 37.4 -34.3 39.6 -33.3 39.9 -35.0 -12.0 -0.6 -18.4 -1.5 -36.9 -2.0 -41.0 -0.4 -4.1 -1.1 -13.6 -1.5 -21.0 -0.3 -7.4 -1.3 -19.6 -2.1 -27.0 -0.7 -7.4 -1.8 -21.9 -2.4 -32.1 -0.5 -10.2 -1.1 -19.2 -1.4 -20.0 -1.3 -3.7 -2.7 -46.5 -1.7 -49.2 1.4 -3.6 3.5 -4.3 16.6 -5.5 43.9 -4.0 82.1 -63.7 101.0 -157.7 7.1 -35.5 10.2 -88.2 7.2 -121.9 -1.7 -18.8 -1.6 -19.5 4.1 -25.8 2.1 -2.4 6.5 -7.8 9.7 -12.2 5.2 -6.9 8.0 -9.3 10.8 -9.5 0.4 -0.1 1.9 1.0 3.2 2.3 Z m1250.7 6.2 c3.5 4.2 8.2 9.9 10.5 12.6 6.9 7.8 7.4 9.4 6.3 18.5 -4.7 38.5 -2.3 98.7 5.5 136.3 0.8 4.1 2.2 10.9 3.1 15.0 15.5 75.1 61.0 136.0 101.6 136.0 13.2 -0.0 15.7 2.7 14.4 15.3 -0.4 3.4 -1.1 14.7 -1.6 25.2 -0.6 10.4 -1.9 28.2 -2.9 39.5 -2.6 27.2 -4.0 44.2 -5.1 63.0 -0.5 8.5 -1.4 20.0 -2.0 25.5 -0.5 5.5 -1.3 21.0 -1.6 34.5 -0.7 29.4 -1.2 32.0 -5.7 32.0 -6.8 0.1 -40.8 -38.8 -70.3 -80.5 -16.4 -23.2 -20.7 -29.9 -36.4 -57.5 -2.0 -3.6 -5.5 -9.5 -7.8 -13.1 -4.7 -7.7 -16.1 -30.3 -23.9 -47.4 -21.5 -47.0 -36.7 -98.4 -41.8 -140.5 -0.8 -6.3 -1.9 -14.2 -2.5 -17.5 -4.9 -28.6 0.8 -83.4 13.4 -129.2 5.1 -18.2 20.3 -52.7 30.0 -67.8 6.6 -10.2 8.3 -10.2 16.8 0.1 Z m-1156.2 178.4 c18.0 34.6 26.7 48.3 50.8 79.5 9.9 12.9 46.3 49.3 61.7 61.8 33.2 26.8 61.2 46.5 132.5 93.4 8.5 5.6 20.7 13.8 27.0 18.3 6.3 4.4 14.2 9.9 17.5 12.2 52.8 36.9 100.7 80.8 127.6 116.9 1.9 2.5 6.1 8.1 9.4 12.5 24.6 32.6 60.5 111.4 66.6 146.3 0.9 5.3 1.9 9.8 5.4 25.3 2.0 8.8 2.0 17.2 0.0 18.8 -2.8 2.3 -2.7 2.5 -24.1 -38.5 -3.7 -7.2 -9.1 -16.8 -12.0 -21.5 -2.9 -4.7 -7.2 -11.7 -9.5 -15.5 -26.4 -43.4 -66.5 -88.1 -107.5 -119.6 -34.9 -26.8 -66.6 -45.6 -135.9 -80.9 -76.4 -38.8 -91.8 -47.4 -117.8 -66.3 -49.8 -36.0 -81.2 -82.7 -93.6 -139.2 -1.2 -5.5 -2.9 -12.7 -3.6 -16.0 -4.7 -20.5 -9.3 -72.5 -8.1 -90.4 1.2 -16.8 3.7 -16.3 13.6 2.9 Z m1058.9 -12.6 c6.2 7.5 -0.6 83.6 -10.8 121.1 -16.4 60.1 -43.5 99.6 -92.7 135.2 -25.0 18.1 -38.7 25.8 -124.4 69.5 -13.5 6.9 -32.1 16.6 -41.3 21.7 -9.3 5.0 -17.0 9.1 -17.3 9.1 -1.2 -0.0 -26.0 15.0 -34.4 20.8 -81.9 56.7 -128.1 110.2 -173.2 200.4 -17.3 34.7 -20.0 32.1 -11.7 -11.7 11.3 -59.4 56.8 -156.9 83.4 -178.5 1.0 -0.8 3.6 -3.8 5.8 -6.5 11.6 -14.8 54.4 -56.5 70.2 -68.5 1.8 -1.4 9.3 -7.2 16.6 -13.0 14.0 -11.0 27.1 -20.6 44.9 -32.8 5.8 -4.0 14.3 -9.9 19.0 -13.1 4.7 -3.2 18.4 -12.3 30.5 -20.2 12.1 -7.9 27.4 -18.1 34.0 -22.7 6.6 -4.7 18.3 -12.8 26.0 -18.0 14.2 -9.6 16.8 -11.5 43.1 -32.7 25.5 -20.4 59.4 -53.9 74.7 -73.6 24.9 -32.3 35.5 -49.0 46.6 -73.9 6.4 -14.3 8.1 -16.2 11.0 -12.6 Z m-528.2 70.5 c67.2 91.6 70.2 111.6 26.5 177.3 -9.3 13.9 -19.5 29.7 -22.6 35.0 -9.3 15.6 -10.3 15.6 -19.6 0.1 -6.9 -11.6 -11.3 -18.4 -29.1 -44.8 -29.2 -43.5 -31.9 -68.3 -11.0 -101.6 2.9 -4.6 10.5 -17.0 17.0 -27.4 6.5 -10.5 14.0 -22.0 16.7 -25.6 2.7 -3.6 6.4 -8.7 8.2 -11.2 4.9 -7.3 9.5 -7.9 13.9 -1.8 Z m184.5 81.5 c18.7 7.7 34.4 11.5 56.6 13.6 15.2 1.4 16.3 2.7 9.0 10.7 -7.1 7.6 -41.1 34.4 -64.3 50.6 -38.0 26.5 -77.0 58.0 -96.1 77.8 -32.8 34.2 -52.4 65.9 -70.8 114.6 -6.3 16.6 -9.3 7.5 -6.6 -19.5 0.9 -8.7 2.6 -17.2 7.0 -35.7 16.0 -66.9 50.5 -119.2 127.8 -193.7 25.1 -24.1 24.4 -23.8 37.4 -18.4 Z m-366.6 -1.1 c4.6 2.6 39.7 35.2 52.6 48.8 59.3 62.7 89.1 116.8 101.7 184.4 8.1 43.8 4.4 53.3 -8.4 21.5 -23.0 -56.8 -52.9 -94.3 -114.6 -143.7 -2.2 -1.7 -18.0 -13.4 -35.2 -25.8 -58.5 -42.5 -82.5 -62.2 -81.5 -67.1 0.4 -2.5 3.2 -3.0 22.0 -4.3 18.1 -1.3 25.1 -3.0 45.3 -11.1 10.4 -4.1 14.6 -4.7 18.1 -2.7 Z m-654.2 38.9 c1.4 6.5 1.7 12.4 3.1 46.9 0.8 20.6 1.9 43.7 2.5 51.4 7.5 103.7 6.1 215.0 -3.6 281.5 -3.2 22.5 -4.7 23.7 -16.1 12.7 -30.6 -29.5 -78.3 -95.1 -98.7 -135.7 -3.7 -7.4 -8.7 -17.1 -11.1 -21.5 -18.1 -33.8 -37.8 -86.3 -45.4 -121.0 -1.1 -5.0 -2.7 -12.2 -3.5 -16.1 -0.9 -4.0 -1.6 -8.7 -1.6 -10.6 0.0 -1.9 -0.7 -6.0 -1.5 -9.1 -2.4 -9.4 -1.9 -15.2 1.5 -15.7 3.7 -0.6 6.1 0.3 13.5 5.1 50.3 31.9 72.4 28.7 112.3 -16.8 18.0 -20.4 31.9 -36.9 35.7 -42.3 7.6 -10.9 11.9 -13.8 12.9 -8.8 Z m1669.8 4.8 c10.3 13.7 12.5 16.5 19.8 25.4 52.8 64.6 78.3 72.2 129.0 38.1 17.4 -11.7 21.4 -9.2 18.0 11.0 -2.9 17.9 -5.1 29.0 -7.0 36.0 -1.2 4.4 -2.7 9.8 -3.2 12.0 -7.2 30.8 -25.4 74.3 -52.7 126.4 -17.6 33.4 -44.1 73.9 -66.4 101.6 -2.7 3.3 -8.2 10.2 -12.3 15.3 -19.8 24.6 -31.7 34.3 -34.4 27.9 -1.4 -3.2 -4.0 -18.8 -5.0 -29.2 -0.4 -5.0 -1.3 -12.6 -1.9 -17.0 -4.1 -29.2 -6.6 -123.3 -4.2 -158.5 0.6 -8.5 1.5 -28.1 2.1 -43.5 0.6 -15.4 1.7 -37.2 2.5 -48.5 0.8 -11.3 2.2 -38.5 3.0 -60.5 1.8 -49.8 2.1 -50.7 12.7 -36.5 Z m-1447.4 87.9 c1.4 0.8 6.1 16.9 6.2 20.9 0.0 4.8 10.3 37.7 17.5 56.3 7.7 19.8 24.5 51.7 32.6 62.0 1.6 2.0 5.6 7.7 8.9 12.5 30.6 44.8 88.5 94.3 154.0 131.7 5.2 2.9 17.4 9.9 27.0 15.4 9.6 5.5 22.5 12.6 28.5 15.8 6.1 3.1 11.5 6.0 12.0 6.5 0.6 0.4 9.8 5.5 20.5 11.3 22.4 12.0 26.3 14.2 57.5 32.0 3.9 2.2 11.5 6.8 17.0 10.2 5.5 3.4 12.5 7.6 15.5 9.4 41.0 23.6 92.0 62.6 119.5 91.2 31.6 32.9 56.8 72.7 63.6 100.4 0.4 1.6 1.8 7.1 3.2 12.2 4.5 16.4 0.6 16.5 -10.1 0.3 -13.4 -20.2 -18.0 -25.9 -40.5 -50.2 -27.5 -29.7 -65.0 -58.4 -115.7 -88.5 -19.2 -11.5 -36.7 -20.1 -91.0 -45.0 -41.8 -19.2 -52.0 -23.8 -63.0 -28.3 -16.8 -6.9 -33.0 -14.1 -45.5 -20.0 -6.0 -2.9 -14.8 -6.9 -19.5 -8.9 -13.6 -6.0 -57.6 -30.2 -72.4 -39.8 -69.4 -45.3 -109.7 -96.0 -134.6 -169.3 -4.4 -12.9 -8.5 -28.0 -9.6 -35.5 -0.3 -2.8 -1.1 -6.1 -1.6 -7.4 -1.8 -5.0 -5.7 -45.2 -5.8 -60.4 0.0 -15.2 1.1 -19.0 7.9 -25.7 7.4 -7.4 14.8 -11.1 17.9 -9.1 Z m1224.0 2.7 c17.7 8.8 21.7 43.6 10.8 93.4 -0.8 3.6 -1.8 8.5 -2.1 11.0 -2.7 18.5 -19.8 63.0 -33.0 85.5 -24.1 41.1 -45.7 65.9 -81.5 93.8 -31.4 24.5 -83.5 53.2 -148.5 81.9 -149.7 66.1 -167.8 75.5 -224.0 115.2 -44.0 31.1 -76.4 63.7 -102.9 103.1 -16.6 24.7 -18.0 18.8 -4.9 -20.5 14.1 -42.2 53.4 -91.0 107.2 -133.0 4.5 -3.6 11.3 -8.9 14.9 -11.7 3.7 -2.9 10.3 -7.7 14.7 -10.7 19.4 -13.0 37.5 -24.6 43.0 -27.6 3.3 -1.9 7.8 -4.6 10.0 -6.0 4.5 -3.0 46.3 -27.0 54.0 -31.0 13.0 -6.8 57.4 -31.0 71.0 -38.7 47.8 -27.1 51.8 -29.5 86.4 -52.5 31.0 -20.5 58.3 -43.6 82.6 -69.8 44.0 -47.5 71.9 -102.4 88.1 -173.5 2.8 -12.0 5.1 -13.5 14.2 -8.9 Z m117.3 150.0 c4.2 2.1 7.6 6.9 8.9 12.5 2.9 12.0 -1.4 59.4 -7.4 81.4 -0.9 3.2 -1.6 6.7 -1.6 7.7 0.0 4.6 -11.7 41.5 -17.6 55.5 -11.1 26.2 -22.0 50.3 -27.2 59.9 -3.2 6.0 -7.8 14.5 -10.2 18.9 -4.6 8.5 -18.6 31.8 -30.0 50.0 -30.0 47.8 -43.6 60.6 -64.0 60.5 -21.2 -0.1 -28.5 -25.4 -14.4 -49.9 1.5 -2.5 4.4 -7.8 6.4 -11.6 3.5 -6.7 20.9 -34.2 30.9 -48.8 2.5 -3.8 7.8 -11.9 11.8 -18.0 3.9 -6.2 10.2 -15.9 14.0 -21.7 8.4 -12.9 12.0 -18.9 24.0 -40.5 5.2 -9.4 11.0 -19.5 12.9 -22.6 14.0 -23.2 33.5 -70.0 42.5 -101.9 10.2 -36.1 10.6 -36.7 21.0 -31.4 Z m-1457.2 1.3 c1.0 1.0 2.2 3.8 2.6 6.2 2.0 12.3 6.3 26.8 15.0 50.9 10.2 28.2 39.0 87.4 55.6 114.2 3.0 4.8 9.2 15.1 13.9 22.8 4.7 7.7 15.9 25.2 24.9 38.8 41.7 62.7 49.6 81.9 41.0 99.1 -10.2 20.4 -34.6 15.4 -55.9 -11.4 -40.8 -51.6 -87.3 -141.4 -102.3 -198.0 -4.6 -17.1 -5.7 -21.8 -7.6 -30.5 -3.8 -17.6 -4.2 -20.5 -6.3 -43.5 -3.1 -34.8 -1.6 -42.9 9.4 -48.4 5.3 -2.6 7.3 -2.6 9.7 -0.2 Z m397.6 362.3 c21.2 7.0 31.1 23.9 30.2 51.7 -0.3 6.9 -1.0 42.5 -1.6 79.1 -1.4 82.3 -3.1 99.5 -11.1 112.5 -15.3 24.8 -57.3 15.9 -80.9 -17.1 -14.6 -20.5 -29.5 -60.5 -34.0 -91.4 -0.6 -3.6 -1.6 -9.4 -2.2 -13.0 -9.8 -50.8 6.1 -99.8 36.9 -114.2 14.2 -6.7 16.9 -7.4 37.7 -10.2 5.8 -0.7 19.0 0.6 25.0 2.6 Z m698.5 1.1 c49.0 15.7 67.0 72.6 47.4 150.1 -19.2 75.8 -53.7 115.1 -92.4 105.1 -27.9 -7.2 -30.9 -22.3 -31.0 -159.1 0.0 -81.4 1.6 -86.1 35.0 -98.8 4.2 -1.6 33.6 0.3 41.0 2.7 Z m-554.1 15.2 c36.5 9.8 57.1 39.9 57.1 83.4 -0.1 88.9 -39.2 151.6 -94.5 151.6 -17.8 -0.0 -22.6 -3.1 -24.6 -15.8 -0.5 -3.4 -1.6 -9.1 -2.4 -12.7 -1.5 -7.2 -4.2 -23.6 -4.8 -29.0 -0.4 -3.8 -3.2 -19.0 -4.8 -25.5 -0.5 -2.2 -1.4 -6.5 -1.9 -9.5 -0.6 -3.0 -1.5 -7.5 -2.1 -10.0 -22.2 -93.9 11.1 -150.4 78.0 -132.5 Z m405.6 0.9 c34.3 11.2 49.6 49.4 40.1 100.6 -0.9 4.7 -2.1 11.9 -2.6 16.0 -0.6 4.1 -1.7 10.6 -2.5 14.5 -0.8 3.8 -1.9 9.9 -2.6 13.5 -0.6 3.6 -1.7 9.6 -2.3 13.5 -0.7 3.8 -2.0 10.1 -2.9 14.0 -2.0 8.9 -3.5 18.7 -4.7 29.5 -2.9 25.7 -11.4 34.4 -31.7 32.7 -37.2 -3.1 -65.3 -29.6 -79.1 -74.2 -6.3 -20.7 -8.2 -27.8 -8.2 -31.0 -0.1 -1.7 -0.8 -5.7 -1.6 -9.0 -1.0 -4.0 -1.7 -13.0 -2.1 -26.5 -0.5 -20.3 -0.4 -22.2 3.2 -38.5 9.4 -43.3 54.5 -68.9 97.0 -55.1 Z M3838.6 2376.7 c-0.9 5.5 -0.5 256.2 0.4 259.8 0.4 1.6 0.8 -57.0 0.9 -130.3 0.0 -73.2 -0.1 -133.2 -0.3 -133.2 -0.2 -0.0 -0.6 1.7 -1.0 3.7 Z M0.2 2511.0 c0.0 69.6 0.4 125.1 0.8 123.5 0.4 -1.7 0.8 -57.2 0.8 -123.5 0.0 -66.3 -0.4 -121.9 -0.8 -123.5 -0.4 -1.7 -0.8 53.9 -0.8 123.5 Z M3838.6 2991.7 c-0.9 5.5 -0.5 477.2 0.4 480.8 0.4 1.6 0.8 -106.7 0.9 -240.8 0.0 -134.0 -0.1 -243.7 -0.3 -243.7 -0.2 -0.0 -0.6 1.7 -1.0 3.7 Z M0.2 3240.5 c0.0 128.7 0.4 232.6 0.8 231.0 1.0 -3.9 1.0 -458.1 0.0 -462.0 -0.4 -1.7 -0.8 102.3 -0.8 231.0 Z"/>
</svg>